<ttFont>
    <TTGlyph name=".notdef" xMin="35" yMin="-299" xMax="314" yMax="1475">
      <contour>
        <pt x="35" y="-299" on="1"/>
        <pt x="35" y="1475" on="1"/>
        <pt x="314" y="1475" on="1"/>
        <pt x="314" y="-299" on="1"/>
      </contour>
      <contour>
        <pt x="70" y="-197" on="1"/>
        <pt x="280" y="-197" on="1"/>
        <pt x="280" y="1373" on="1"/>
        <pt x="70" y="1373" on="1"/>
      </contour>
    </TTGlyph>
    <TTGlyph name="A" xMin="55" yMin="0" xMax="750" yMax="1438">
      <contour>
        <pt x="282" y="436" on="1"/>
        <pt x="515" y="436" on="1"/>
        <pt x="520" y="436" on="0"/>
        <pt x="520" y="450" on="1"/>
        <pt x="520" y="456" on="0"/>
        <pt x="518" y="457" on="1"/>
        <pt x="402" y="1252" on="1"/>
        <pt x="402" y="1252" on="0"/>
        <pt x="400" y="1258" on="1"/>
        <pt x="397" y="1258" on="0"/>
        <pt x="397" y="1253" on="1"/>
        <pt x="270" y="460" on="1"/>
        <pt x="269" y="456" on="0"/>
        <pt x="269" y="451" on="1"/>
        <pt x="269" y="436" on="0"/>
      </contour>
      <contour>
        <pt x="70" y="0" on="1"/>
        <pt x="55" y="0" on="0"/>
        <pt x="55" y="30" on="1"/>
        <pt x="55" y="44" on="1"/>
        <pt x="55" y="54" on="0"/>
        <pt x="56" y="60" on="1"/>
        <pt x="291" y="1386" on="1"/>
        <pt x="301" y="1438" on="0"/>
        <pt x="327" y="1438" on="1"/>
        <pt x="482" y="1438" on="1"/>
        <pt x="509" y="1438" on="0"/>
        <pt x="518" y="1386" on="1"/>
        <pt x="745" y="60" on="1"/>
        <pt x="745" y="55" on="0"/>
        <pt x="750" y="34" on="0"/>
        <pt x="750" y="29" on="1"/>
        <pt x="750" y="0" on="0"/>
        <pt x="734" y="0" on="1"/>
        <pt x="610" y="0" on="1"/>
        <pt x="583" y="0" on="0"/>
        <pt x="576" y="45" on="1"/>
        <pt x="535" y="314" on="1"/>
        <pt x="531" y="331" on="0"/>
        <pt x="526" y="331" on="1"/>
        <pt x="252" y="331" on="1"/>
        <pt x="248" y="331" on="0"/>
        <pt x="244" y="313" on="1"/>
        <pt x="198" y="45" on="1"/>
        <pt x="193" y="18" on="0"/>
        <pt x="179" y="0" on="0"/>
        <pt x="167" y="0" on="1"/>
      </contour>
    </TTGlyph>
    <TTGlyph name="AE" xMin="54" yMin="0" xMax="953" yMax="1438">
      <contour>
        <pt x="324" y="436" on="1"/>
        <pt x="522" y="436" on="1"/>
        <pt x="526" y="436" on="0"/>
        <pt x="526" y="456" on="1"/>
        <pt x="526" y="1285" on="1"/>
        <pt x="526" y="1285" on="0"/>
        <pt x="525" y="1298" on="1"/>
        <pt x="524" y="1298" on="0"/>
        <pt x="520" y="1287" on="1"/>
        <pt x="313" y="460" on="1"/>
        <pt x="311" y="452" on="0"/>
        <pt x="311" y="448" on="1"/>
        <pt x="311" y="436" on="0"/>
      </contour>
      <contour>
        <pt x="69" y="0" on="1"/>
        <pt x="55" y="0" on="0"/>
        <pt x="55" y="30" on="1"/>
        <pt x="55" y="32" on="0"/>
        <pt x="54" y="42" on="0"/>
        <pt x="54" y="45" on="1"/>
        <pt x="54" y="52" on="0"/>
        <pt x="57" y="60" on="1"/>
        <pt x="411" y="1386" on="1"/>
        <pt x="423" y="1438" on="0"/>
        <pt x="451" y="1438" on="1"/>
        <pt x="905" y="1438" on="1"/>
        <pt x="913" y="1438" on="0"/>
        <pt x="922" y="1435" on="0"/>
        <pt x="929" y="1418" on="0"/>
        <pt x="929" y="1402" on="1"/>
        <pt x="929" y="1346" on="1"/>
        <pt x="929" y="1329" on="0"/>
        <pt x="922" y="1313" on="0"/>
        <pt x="914" y="1310" on="0"/>
        <pt x="905" y="1310" on="1"/>
        <pt x="698" y="1310" on="1"/>
        <pt x="687" y="1310" on="0"/>
        <pt x="687" y="1279" on="1"/>
        <pt x="687" y="824" on="1"/>
        <pt x="687" y="817" on="0"/>
        <pt x="693" y="802" on="0"/>
        <pt x="695" y="802" on="1"/>
        <pt x="881" y="802" on="1"/>
        <pt x="894" y="802" on="0"/>
        <pt x="906" y="786" on="0"/>
        <pt x="906" y="763" on="1"/>
        <pt x="906" y="708" on="1"/>
        <pt x="906" y="667" on="0"/>
        <pt x="881" y="667" on="1"/>
        <pt x="696" y="667" on="1"/>
        <pt x="694" y="667" on="0"/>
        <pt x="687" y="648" on="0"/>
        <pt x="687" y="641" on="1"/>
        <pt x="687" y="128" on="1"/>
        <pt x="929" y="128" on="1"/>
        <pt x="938" y="128" on="0"/>
        <pt x="946" y="125" on="0"/>
        <pt x="953" y="109" on="0"/>
        <pt x="953" y="92" on="1"/>
        <pt x="953" y="36" on="1"/>
        <pt x="953" y="13" on="0"/>
        <pt x="942" y="0" on="0"/>
        <pt x="929" y="0" on="1"/>
        <pt x="551" y="0" on="1"/>
        <pt x="542" y="0" on="0"/>
        <pt x="533" y="4" on="0"/>
        <pt x="526" y="21" on="0"/>
        <pt x="526" y="39" on="1"/>
        <pt x="526" y="331" on="1"/>
        <pt x="286" y="331" on="1"/>
        <pt x="281" y="331" on="0"/>
        <pt x="277" y="313" on="1"/>
        <pt x="206" y="45" on="1"/>
        <pt x="201" y="18" on="0"/>
        <pt x="185" y="0" on="0"/>
        <pt x="172" y="0" on="1"/>
      </contour>
    </TTGlyph>
    <TTGlyph name="Aacute" xMin="55" yMin="0" xMax="750" yMax="2016">
      <component glyphName="acute" x="18" y="407" flags="0x1004"/>
      <component glyphName="A" x="0" y="0" flags="0x1204"/>
    </TTGlyph>
    <TTGlyph name="Abreve" xMin="55" yMin="0" xMax="750" yMax="1761">
      <component glyphName="breve" x="-208" y="283" flags="0x1004"/>
      <component glyphName="A" x="0" y="0" flags="0x1204"/>
    </TTGlyph>
    <TTGlyph name="Acircumflex" xMin="55" yMin="0" xMax="750" yMax="1880">
      <component glyphName="circumflex" x="250" y="345" flags="0x1004"/>
      <component glyphName="A" x="0" y="0" flags="0x1204"/>
    </TTGlyph>
    <TTGlyph name="Adieresis" xMin="55" yMin="0" xMax="750" yMax="1746">
      <component glyphName="dieresis" x="196" y="1575" flags="0x1004"/>
      <component glyphName="A" x="0" y="0" flags="0x1204"/>
    </TTGlyph>
    <TTGlyph name="Agrave" xMin="55" yMin="0" xMax="750" yMax="2016">
      <component glyphName="grave" x="-52" y="407" flags="0x1004"/>
      <component glyphName="A" x="0" y="0" flags="0x1204"/>
    </TTGlyph>
    <TTGlyph name="Amacron" xMin="55" yMin="0" xMax="750" yMax="1672">
      <component glyphName="uni02C9" x="2" y="1086" flags="0x1004"/>
      <component glyphName="A" x="0" y="0" flags="0x1204"/>
    </TTGlyph>
    <TTGlyph name="Aogonek" xMin="55" yMin="-338" xMax="777" yMax="1438">
      <component glyphName="ogonek" x="282" y="4" flags="0x1004"/>
      <component glyphName="A" x="0" y="0" flags="0x1004"/>
    </TTGlyph>
    <TTGlyph name="Aring" xMin="55" yMin="0" xMax="750" yMax="1804">
      <component glyphName="ring" x="-136" y="601" flags="0x1004"/>
      <component glyphName="A" x="0" y="0" flags="0x1204"/>
    </TTGlyph>
    <TTGlyph name="Atilde" xMin="55" yMin="0" xMax="750" yMax="1738">
      <component glyphName="tilde" x="89" y="764" flags="0x1004"/>
      <component glyphName="A" x="0" y="0" flags="0x1204"/>
    </TTGlyph>
    <TTGlyph name="B" xMin="112" yMin="0" xMax="817" yMax="1438">
      <contour>
        <pt x="286" y="821" on="1"/>
        <pt x="491" y="821" on="1"/>
        <pt x="554" y="821" on="0"/>
        <pt x="631" y="936" on="0"/>
        <pt x="631" y="1038" on="1"/>
        <pt x="631" y="1311" on="0"/>
        <pt x="448" y="1311" on="1"/>
        <pt x="286" y="1311" on="1"/>
        <pt x="273" y="1311" on="0"/>
        <pt x="273" y="1290" on="1"/>
        <pt x="273" y="840" on="1"/>
        <pt x="273" y="821" on="0"/>
      </contour>
      <contour>
        <pt x="286" y="123" on="1"/>
        <pt x="443" y="123" on="1"/>
        <pt x="553" y="123" on="0"/>
        <pt x="661" y="279" on="0"/>
        <pt x="661" y="423" on="1"/>
        <pt x="661" y="547" on="0"/>
        <pt x="561" y="701" on="0"/>
        <pt x="484" y="701" on="1"/>
        <pt x="286" y="701" on="1"/>
        <pt x="273" y="701" on="0"/>
        <pt x="273" y="678" on="1"/>
        <pt x="273" y="141" on="1"/>
        <pt x="273" y="129" on="0"/>
        <pt x="279" y="123" on="0"/>
      </contour>
      <contour>
        <pt x="139" y="0" on="1"/>
        <pt x="130" y="0" on="0"/>
        <pt x="120" y="4" on="0"/>
        <pt x="112" y="23" on="0"/>
        <pt x="112" y="42" on="1"/>
        <pt x="112" y="1395" on="1"/>
        <pt x="112" y="1423" on="0"/>
        <pt x="125" y="1438" on="0"/>
        <pt x="139" y="1438" on="1"/>
        <pt x="483" y="1438" on="1"/>
        <pt x="780" y="1438" on="0"/>
        <pt x="780" y="1042" on="1"/>
        <pt x="780" y="853" on="0"/>
        <pt x="680" y="779" on="1"/>
        <pt x="671" y="772" on="0"/>
        <pt x="671" y="768" on="1"/>
        <pt x="671" y="762" on="0"/>
        <pt x="681" y="758" on="1"/>
        <pt x="817" y="666" on="0"/>
        <pt x="817" y="424" on="1"/>
        <pt x="817" y="303" on="0"/>
        <pt x="769" y="136" on="0"/>
        <pt x="675" y="41" on="0"/>
        <pt x="550" y="0" on="0"/>
        <pt x="464" y="0" on="1"/>
      </contour>
    </TTGlyph>
    <TTGlyph name="C" xMin="88" yMin="-14" xMax="641" yMax="1453">
      <contour>
        <pt x="475" y="-14" on="1"/>
        <pt x="438" y="-14" on="0"/>
        <pt x="382" y="-9" on="0"/>
        <pt x="313" y="9" on="0"/>
        <pt x="261" y="40" on="0"/>
        <pt x="205" y="95" on="0"/>
        <pt x="164" y="171" on="0"/>
        <pt x="126" y="282" on="0"/>
        <pt x="102" y="422" on="0"/>
        <pt x="88" y="608" on="0"/>
        <pt x="88" y="720" on="1"/>
        <pt x="88" y="858" on="0"/>
        <pt x="111" y="1079" on="0"/>
        <pt x="150" y="1231" on="0"/>
        <pt x="211" y="1342" on="0"/>
        <pt x="274" y="1405" on="0"/>
        <pt x="360" y="1442" on="0"/>
        <pt x="434" y="1453" on="0"/>
        <pt x="482" y="1453" on="1"/>
        <pt x="572" y="1453" on="0"/>
        <pt x="630" y="1427" on="1"/>
        <pt x="631" y="1426" on="0"/>
        <pt x="637" y="1422" on="0"/>
        <pt x="641" y="1415" on="0"/>
        <pt x="641" y="1409" on="1"/>
        <pt x="641" y="1312" on="1"/>
        <pt x="641" y="1300" on="0"/>
        <pt x="634" y="1300" on="1"/>
        <pt x="633" y="1300" on="0"/>
        <pt x="619" y="1304" on="0"/>
        <pt x="596" y="1310" on="0"/>
        <pt x="566" y="1317" on="0"/>
        <pt x="527" y="1321" on="0"/>
        <pt x="509" y="1321" on="1"/>
        <pt x="462" y="1321" on="0"/>
        <pt x="393" y="1300" on="0"/>
        <pt x="322" y="1227" on="0"/>
        <pt x="277" y="1099" on="0"/>
        <pt x="249" y="876" on="0"/>
        <pt x="249" y="720" on="1"/>
        <pt x="249" y="562" on="0"/>
        <pt x="273" y="339" on="0"/>
        <pt x="312" y="210" on="0"/>
        <pt x="379" y="138" on="0"/>
        <pt x="445" y="117" on="0"/>
        <pt x="493" y="117" on="1"/>
        <pt x="566" y="117" on="0"/>
        <pt x="620" y="136" on="1"/>
        <pt x="621" y="136" on="0"/>
        <pt x="628" y="121" on="0"/>
        <pt x="628" y="119" on="1"/>
        <pt x="628" y="25" on="1"/>
        <pt x="628" y="23" on="0"/>
        <pt x="621" y="8" on="0"/>
        <pt x="620" y="7" on="1"/>
        <pt x="564" y="-14" on="0"/>
      </contour>
    </TTGlyph>
    <TTGlyph name="Cacute" xMin="88" yMin="-14" xMax="641" yMax="2016">
      <component glyphName="acute" x="-20" y="407" flags="0x1004"/>
      <component glyphName="C" x="0" y="0" flags="0x1204"/>
    </TTGlyph>
    <TTGlyph name="Ccaron" xMin="88" yMin="-14" xMax="641" yMax="1880">
      <component glyphName="caron" x="212" y="345" flags="0x1004"/>
      <component glyphName="C" x="0" y="0" flags="0x1204"/>
    </TTGlyph>
    <TTGlyph name="Ccedilla" xMin="88" yMin="-558" xMax="641" yMax="1453">
      <component glyphName="cedilla" x="162" y="40" flags="0x1004"/>
      <component glyphName="C" x="0" y="0" flags="0x1204"/>
    </TTGlyph>
    <TTGlyph name="Ccircumflex" xMin="88" yMin="-14" xMax="641" yMax="1880">
      <component glyphName="circumflex" x="212" y="345" flags="0x1004"/>
      <component glyphName="C" x="0" y="0" flags="0x1204"/>
    </TTGlyph>
    <TTGlyph name="Cdotaccent" xMin="88" yMin="-14" xMax="641" yMax="1791">
      <component glyphName="dotaccent" x="264" y="1508" flags="0x1004"/>
      <component glyphName="C" x="0" y="0" flags="0x1204"/>
    </TTGlyph>
    <TTGlyph name="D" xMin="112" yMin="0" xMax="832" yMax="1438">
      <contour>
        <pt x="136" y="0" on="1"/>
        <pt x="124" y="0" on="0"/>
        <pt x="112" y="16" on="0"/>
        <pt x="112" y="42" on="1"/>
        <pt x="112" y="1402" on="1"/>
        <pt x="112" y="1424" on="0"/>
        <pt x="124" y="1438" on="0"/>
        <pt x="136" y="1438" on="1"/>
        <pt x="462" y="1438" on="1"/>
        <pt x="534" y="1438" on="0"/>
        <pt x="645" y="1396" on="0"/>
        <pt x="738" y="1296" on="0"/>
        <pt x="799" y="1135" on="0"/>
        <pt x="832" y="890" on="0"/>
        <pt x="832" y="726" on="1"/>
        <pt x="832" y="589" on="0"/>
        <pt x="816" y="379" on="0"/>
        <pt x="787" y="225" on="0"/>
        <pt x="736" y="118" on="0"/>
        <pt x="678" y="51" on="0"/>
        <pt x="592" y="13" on="0"/>
        <pt x="505" y="0" on="0"/>
        <pt x="444" y="0" on="1"/>
      </contour>
      <contour>
        <pt x="285" y="128" on="1"/>
        <pt x="438" y="128" on="1"/>
        <pt x="530" y="128" on="0"/>
        <pt x="628" y="231" on="0"/>
        <pt x="672" y="485" on="0"/>
        <pt x="672" y="725" on="1"/>
        <pt x="672" y="942" on="0"/>
        <pt x="622" y="1200" on="0"/>
        <pt x="524" y="1310" on="0"/>
        <pt x="443" y="1310" on="1"/>
        <pt x="284" y="1310" on="1"/>
        <pt x="273" y="1310" on="0"/>
        <pt x="273" y="1290" on="1"/>
        <pt x="273" y="150" on="1"/>
        <pt x="273" y="128" on="0"/>
      </contour>
    </TTGlyph>
    <TTGlyph name="Dcaron" xMin="112" yMin="0" xMax="832" yMax="1880">
      <component glyphName="caron" x="320" y="345" flags="0x1004"/>
      <component glyphName="D" x="0" y="0" flags="0x1204"/>
    </TTGlyph>
    <TTGlyph name="Dcroat" xMin="8" yMin="0" xMax="832" yMax="1438">
      <contour>
        <pt x="136" y="0" on="1"/>
        <pt x="124" y="0" on="0"/>
        <pt x="112" y="16" on="0"/>
        <pt x="112" y="42" on="1"/>
        <pt x="112" y="680" on="1"/>
        <pt x="39" y="680" on="1"/>
        <pt x="8" y="680" on="0"/>
        <pt x="8" y="714" on="1"/>
        <pt x="8" y="736" on="1"/>
        <pt x="8" y="772" on="0"/>
        <pt x="39" y="772" on="1"/>
        <pt x="112" y="772" on="1"/>
        <pt x="112" y="1402" on="1"/>
        <pt x="112" y="1424" on="0"/>
        <pt x="124" y="1438" on="0"/>
        <pt x="136" y="1438" on="1"/>
        <pt x="462" y="1438" on="1"/>
        <pt x="534" y="1438" on="0"/>
        <pt x="645" y="1396" on="0"/>
        <pt x="738" y="1296" on="0"/>
        <pt x="799" y="1135" on="0"/>
        <pt x="832" y="890" on="0"/>
        <pt x="832" y="726" on="1"/>
        <pt x="832" y="589" on="0"/>
        <pt x="816" y="379" on="0"/>
        <pt x="787" y="225" on="0"/>
        <pt x="736" y="118" on="0"/>
        <pt x="678" y="51" on="0"/>
        <pt x="592" y="13" on="0"/>
        <pt x="505" y="0" on="0"/>
        <pt x="444" y="0" on="1"/>
      </contour>
      <contour>
        <pt x="285" y="128" on="1"/>
        <pt x="438" y="128" on="1"/>
        <pt x="530" y="128" on="0"/>
        <pt x="628" y="231" on="0"/>
        <pt x="672" y="485" on="0"/>
        <pt x="672" y="725" on="1"/>
        <pt x="672" y="942" on="0"/>
        <pt x="622" y="1200" on="0"/>
        <pt x="524" y="1310" on="0"/>
        <pt x="443" y="1310" on="1"/>
        <pt x="284" y="1310" on="1"/>
        <pt x="273" y="1310" on="0"/>
        <pt x="273" y="1290" on="1"/>
        <pt x="273" y="772" on="1"/>
        <pt x="439" y="772" on="1"/>
        <pt x="470" y="772" on="0"/>
        <pt x="470" y="738" on="1"/>
        <pt x="470" y="715" on="1"/>
        <pt x="470" y="680" on="0"/>
        <pt x="439" y="680" on="1"/>
        <pt x="273" y="680" on="1"/>
        <pt x="273" y="150" on="1"/>
        <pt x="273" y="128" on="0"/>
      </contour>
    </TTGlyph>
    <TTGlyph name="Delta" xMin="97" yMin="246" xMax="704" yMax="1378">
      <contour>
        <pt x="283" y="376" on="1"/>
        <pt x="516" y="376" on="1"/>
        <pt x="521" y="376" on="0"/>
        <pt x="521" y="390" on="1"/>
        <pt x="521" y="395" on="0"/>
        <pt x="519" y="397" on="1"/>
        <pt x="403" y="1192" on="1"/>
        <pt x="403" y="1192" on="0"/>
        <pt x="401" y="1197" on="1"/>
        <pt x="398" y="1197" on="0"/>
        <pt x="398" y="1192" on="1"/>
        <pt x="271" y="400" on="1"/>
        <pt x="270" y="396" on="0"/>
        <pt x="270" y="391" on="1"/>
        <pt x="270" y="376" on="0"/>
      </contour>
      <contour>
        <pt x="112" y="246" on="1"/>
        <pt x="97" y="246" on="0"/>
        <pt x="97" y="275" on="1"/>
        <pt x="97" y="290" on="1"/>
        <pt x="97" y="300" on="0"/>
        <pt x="98" y="306" on="1"/>
        <pt x="292" y="1325" on="1"/>
        <pt x="302" y="1375" on="0"/>
        <pt x="329" y="1378" on="1"/>
        <pt x="474" y="1378" on="1"/>
        <pt x="502" y="1375" on="0"/>
        <pt x="510" y="1325" on="1"/>
        <pt x="699" y="306" on="1"/>
        <pt x="704" y="278" on="0"/>
        <pt x="704" y="275" on="1"/>
        <pt x="704" y="246" on="0"/>
        <pt x="688" y="246" on="1"/>
      </contour>
    </TTGlyph>
    <TTGlyph name="E" xMin="112" yMin="0" xMax="663" yMax="1438">
      <contour>
        <pt x="136" y="0" on="1"/>
        <pt x="128" y="0" on="0"/>
        <pt x="119" y="4" on="0"/>
        <pt x="112" y="21" on="0"/>
        <pt x="112" y="39" on="1"/>
        <pt x="112" y="1399" on="1"/>
        <pt x="112" y="1423" on="0"/>
        <pt x="124" y="1438" on="0"/>
        <pt x="136" y="1438" on="1"/>
        <pt x="636" y="1438" on="1"/>
        <pt x="644" y="1438" on="0"/>
        <pt x="653" y="1435" on="0"/>
        <pt x="660" y="1418" on="0"/>
        <pt x="660" y="1402" on="1"/>
        <pt x="660" y="1346" on="1"/>
        <pt x="660" y="1329" on="0"/>
        <pt x="653" y="1313" on="0"/>
        <pt x="645" y="1310" on="0"/>
        <pt x="636" y="1310" on="1"/>
        <pt x="284" y="1310" on="1"/>
        <pt x="273" y="1310" on="0"/>
        <pt x="273" y="1279" on="1"/>
        <pt x="273" y="824" on="1"/>
        <pt x="273" y="817" on="0"/>
        <pt x="279" y="802" on="0"/>
        <pt x="281" y="802" on="1"/>
        <pt x="574" y="802" on="1"/>
        <pt x="586" y="802" on="0"/>
        <pt x="598" y="786" on="0"/>
        <pt x="598" y="763" on="1"/>
        <pt x="598" y="708" on="1"/>
        <pt x="598" y="684" on="0"/>
        <pt x="586" y="667" on="0"/>
        <pt x="574" y="667" on="1"/>
        <pt x="282" y="667" on="1"/>
        <pt x="279" y="667" on="0"/>
        <pt x="273" y="648" on="0"/>
        <pt x="273" y="641" on="1"/>
        <pt x="273" y="128" on="1"/>
        <pt x="639" y="128" on="1"/>
        <pt x="648" y="128" on="0"/>
        <pt x="656" y="125" on="0"/>
        <pt x="663" y="109" on="0"/>
        <pt x="663" y="92" on="1"/>
        <pt x="663" y="36" on="1"/>
        <pt x="663" y="13" on="0"/>
        <pt x="652" y="0" on="0"/>
        <pt x="639" y="0" on="1"/>
      </contour>
    </TTGlyph>
    <TTGlyph name="Eacute" xMin="112" yMin="0" xMax="663" yMax="2016">
      <component glyphName="acute" x="4" y="407" flags="0x1004"/>
      <component glyphName="E" x="0" y="0" flags="0x1204"/>
    </TTGlyph>
    <TTGlyph name="Ebreve" xMin="112" yMin="0" xMax="663" yMax="1761">
      <component glyphName="breve" x="-223" y="283" flags="0x1004"/>
      <component glyphName="E" x="0" y="0" flags="0x1204"/>
    </TTGlyph>
    <TTGlyph name="Ecaron" xMin="112" yMin="0" xMax="663" yMax="1880">
      <component glyphName="caron" x="235" y="345" flags="0x1004"/>
      <component glyphName="E" x="0" y="0" flags="0x1204"/>
    </TTGlyph>
    <TTGlyph name="Ecircumflex" xMin="112" yMin="0" xMax="663" yMax="1880">
      <component glyphName="circumflex" x="234" y="345" flags="0x1004"/>
      <component glyphName="E" x="0" y="0" flags="0x1204"/>
    </TTGlyph>
    <TTGlyph name="Edieresis" xMin="112" yMin="0" xMax="663" yMax="1746">
      <component glyphName="dieresis" x="182" y="1575" flags="0x1004"/>
      <component glyphName="E" x="0" y="0" flags="0x1204"/>
    </TTGlyph>
    <TTGlyph name="Edotaccent" xMin="112" yMin="0" xMax="663" yMax="1791">
      <component glyphName="dotaccent" x="288" y="1508" flags="0x1004"/>
      <component glyphName="E" x="0" y="0" flags="0x1204"/>
    </TTGlyph>
    <TTGlyph name="Egrave" xMin="112" yMin="0" xMax="663" yMax="2016">
      <component glyphName="grave" x="-68" y="407" flags="0x1004"/>
      <component glyphName="E" x="0" y="0" flags="0x1204"/>
    </TTGlyph>
    <TTGlyph name="Emacron" xMin="112" yMin="0" xMax="663" yMax="1672">
      <component glyphName="macron" x="-12" y="1086" flags="0x1004"/>
      <component glyphName="E" x="0" y="0" flags="0x1204"/>
    </TTGlyph>
    <TTGlyph name="Eogonek" xMin="112" yMin="-338" xMax="663" yMax="1438">
      <component glyphName="ogonek" x="133" y="4" flags="0x1004"/>
      <component glyphName="E" x="0" y="0" flags="0x1004"/>
    </TTGlyph>
    <TTGlyph name="Eth" xMin="12" yMin="0" xMax="832" yMax="1438">
      <contour>
        <pt x="136" y="0" on="1"/>
        <pt x="124" y="0" on="0"/>
        <pt x="112" y="16" on="0"/>
        <pt x="112" y="42" on="1"/>
        <pt x="112" y="669" on="1"/>
        <pt x="53" y="669" on="1"/>
        <pt x="31" y="669" on="0"/>
        <pt x="12" y="686" on="0"/>
        <pt x="12" y="710" on="1"/>
        <pt x="12" y="742" on="1"/>
        <pt x="12" y="766" on="0"/>
        <pt x="31" y="783" on="0"/>
        <pt x="53" y="783" on="1"/>
        <pt x="112" y="783" on="1"/>
        <pt x="112" y="1402" on="1"/>
        <pt x="112" y="1424" on="0"/>
        <pt x="124" y="1438" on="0"/>
        <pt x="136" y="1438" on="1"/>
        <pt x="462" y="1438" on="1"/>
        <pt x="534" y="1438" on="0"/>
        <pt x="645" y="1396" on="0"/>
        <pt x="738" y="1296" on="0"/>
        <pt x="799" y="1135" on="0"/>
        <pt x="832" y="890" on="0"/>
        <pt x="832" y="726" on="1"/>
        <pt x="832" y="589" on="0"/>
        <pt x="816" y="379" on="0"/>
        <pt x="787" y="225" on="0"/>
        <pt x="736" y="118" on="0"/>
        <pt x="678" y="51" on="0"/>
        <pt x="592" y="13" on="0"/>
        <pt x="505" y="0" on="0"/>
        <pt x="444" y="0" on="1"/>
      </contour>
      <contour>
        <pt x="285" y="128" on="1"/>
        <pt x="438" y="128" on="1"/>
        <pt x="530" y="128" on="0"/>
        <pt x="628" y="231" on="0"/>
        <pt x="672" y="485" on="0"/>
        <pt x="672" y="725" on="1"/>
        <pt x="672" y="942" on="0"/>
        <pt x="622" y="1200" on="0"/>
        <pt x="524" y="1310" on="0"/>
        <pt x="443" y="1310" on="1"/>
        <pt x="284" y="1310" on="1"/>
        <pt x="273" y="1310" on="0"/>
        <pt x="273" y="1290" on="1"/>
        <pt x="273" y="783" on="1"/>
        <pt x="403" y="783" on="1"/>
        <pt x="425" y="783" on="0"/>
        <pt x="444" y="767" on="0"/>
        <pt x="444" y="743" on="1"/>
        <pt x="444" y="703" on="1"/>
        <pt x="443" y="684" on="0"/>
        <pt x="423" y="669" on="0"/>
        <pt x="403" y="669" on="1"/>
        <pt x="273" y="669" on="1"/>
        <pt x="273" y="150" on="1"/>
        <pt x="273" y="128" on="0"/>
      </contour>
    </TTGlyph>
    <TTGlyph name="Euro" xMin="25" yMin="-16" xMax="641" yMax="1455">
      <contour>
        <pt x="475" y="-16" on="1"/>
        <pt x="432" y="-16" on="0"/>
        <pt x="369" y="-9" on="0"/>
        <pt x="291" y="17" on="0"/>
        <pt x="234" y="62" on="0"/>
        <pt x="175" y="143" on="0"/>
        <pt x="134" y="255" on="0"/>
        <pt x="102" y="420" on="0"/>
        <pt x="95" y="524" on="1"/>
        <pt x="48" y="524" on="1"/>
        <pt x="35" y="524" on="0"/>
        <pt x="25" y="539" on="0"/>
        <pt x="25" y="569" on="1"/>
        <pt x="25" y="598" on="1"/>
        <pt x="25" y="628" on="0"/>
        <pt x="35" y="643" on="0"/>
        <pt x="48" y="643" on="1"/>
        <pt x="89" y="643" on="1"/>
        <pt x="88" y="668" on="0"/>
        <pt x="88" y="720" on="1"/>
        <pt x="88" y="734" on="0"/>
        <pt x="89" y="787" on="0"/>
        <pt x="89" y="799" on="1"/>
        <pt x="48" y="799" on="1"/>
        <pt x="35" y="799" on="0"/>
        <pt x="25" y="814" on="0"/>
        <pt x="25" y="844" on="1"/>
        <pt x="25" y="873" on="1"/>
        <pt x="25" y="903" on="0"/>
        <pt x="35" y="918" on="0"/>
        <pt x="48" y="918" on="1"/>
        <pt x="95" y="918" on="1"/>
        <pt x="105" y="1057" on="0"/>
        <pt x="160" y="1258" on="0"/>
        <pt x="230" y="1371" on="0"/>
        <pt x="331" y="1436" on="0"/>
        <pt x="422" y="1455" on="0"/>
        <pt x="482" y="1455" on="1"/>
        <pt x="534" y="1455" on="0"/>
        <pt x="632" y="1435" on="0"/>
        <pt x="641" y="1411" on="1"/>
        <pt x="641" y="1315" on="1"/>
        <pt x="641" y="1303" on="0"/>
        <pt x="634" y="1303" on="1"/>
        <pt x="633" y="1303" on="0"/>
        <pt x="619" y="1307" on="0"/>
        <pt x="596" y="1313" on="0"/>
        <pt x="566" y="1319" on="0"/>
        <pt x="527" y="1323" on="0"/>
        <pt x="509" y="1323" on="1"/>
        <pt x="476" y="1323" on="0"/>
        <pt x="424" y="1312" on="0"/>
        <pt x="368" y="1282" on="0"/>
        <pt x="326" y="1224" on="0"/>
        <pt x="288" y="1138" on="0"/>
        <pt x="263" y="1005" on="0"/>
        <pt x="256" y="918" on="1"/>
        <pt x="426" y="918" on="1"/>
        <pt x="439" y="918" on="0"/>
        <pt x="449" y="903" on="0"/>
        <pt x="449" y="873" on="1"/>
        <pt x="449" y="844" on="1"/>
        <pt x="449" y="814" on="0"/>
        <pt x="439" y="799" on="0"/>
        <pt x="426" y="799" on="1"/>
        <pt x="250" y="799" on="1"/>
        <pt x="249" y="774" on="0"/>
        <pt x="249" y="720" on="1"/>
        <pt x="249" y="668" on="0"/>
        <pt x="250" y="643" on="1"/>
        <pt x="426" y="643" on="1"/>
        <pt x="439" y="643" on="0"/>
        <pt x="449" y="628" on="0"/>
        <pt x="449" y="598" on="1"/>
        <pt x="449" y="569" on="1"/>
        <pt x="449" y="539" on="0"/>
        <pt x="439" y="524" on="0"/>
        <pt x="426" y="524" on="1"/>
        <pt x="255" y="524" on="1"/>
        <pt x="261" y="418" on="0"/>
        <pt x="292" y="268" on="0"/>
        <pt x="332" y="180" on="0"/>
        <pt x="393" y="130" on="0"/>
        <pt x="452" y="115" on="0"/>
        <pt x="493" y="115" on="1"/>
        <pt x="561" y="115" on="0"/>
        <pt x="620" y="134" on="1"/>
        <pt x="628" y="134" on="0"/>
        <pt x="628" y="117" on="1"/>
        <pt x="628" y="23" on="1"/>
        <pt x="628" y="-16" on="0"/>
      </contour>
    </TTGlyph>
    <TTGlyph name="F" xMin="112" yMin="0" xMax="631" yMax="1438">
      <contour>
        <pt x="136" y="0" on="1"/>
        <pt x="128" y="0" on="0"/>
        <pt x="119" y="4" on="0"/>
        <pt x="112" y="21" on="0"/>
        <pt x="112" y="39" on="1"/>
        <pt x="112" y="1399" on="1"/>
        <pt x="112" y="1423" on="0"/>
        <pt x="124" y="1438" on="0"/>
        <pt x="136" y="1438" on="1"/>
        <pt x="607" y="1438" on="1"/>
        <pt x="615" y="1438" on="0"/>
        <pt x="624" y="1435" on="0"/>
        <pt x="631" y="1418" on="0"/>
        <pt x="631" y="1402" on="1"/>
        <pt x="631" y="1346" on="1"/>
        <pt x="631" y="1329" on="0"/>
        <pt x="624" y="1313" on="0"/>
        <pt x="616" y="1310" on="0"/>
        <pt x="607" y="1310" on="1"/>
        <pt x="284" y="1310" on="1"/>
        <pt x="273" y="1310" on="0"/>
        <pt x="273" y="1284" on="1"/>
        <pt x="273" y="803" on="1"/>
        <pt x="273" y="787" on="0"/>
        <pt x="281" y="787" on="1"/>
        <pt x="552" y="787" on="1"/>
        <pt x="565" y="787" on="0"/>
        <pt x="576" y="775" on="0"/>
        <pt x="576" y="752" on="1"/>
        <pt x="576" y="688" on="1"/>
        <pt x="576" y="671" on="0"/>
        <pt x="569" y="655" on="0"/>
        <pt x="561" y="652" on="0"/>
        <pt x="552" y="652" on="1"/>
        <pt x="282" y="652" on="1"/>
        <pt x="279" y="652" on="0"/>
        <pt x="273" y="636" on="0"/>
        <pt x="273" y="629" on="1"/>
        <pt x="273" y="39" on="1"/>
        <pt x="273" y="14" on="0"/>
        <pt x="262" y="0" on="0"/>
        <pt x="249" y="0" on="1"/>
      </contour>
    </TTGlyph>
    <TTGlyph name="G" xMin="91" yMin="-16" xMax="802" yMax="1453">
      <contour>
        <pt x="773" y="-16" on="1"/>
        <pt x="740" y="-16" on="0"/>
        <pt x="729" y="43" on="1"/>
        <pt x="729" y="47" on="0"/>
        <pt x="708" y="202" on="0"/>
        <pt x="708" y="219" on="1"/>
        <pt x="708" y="228" on="0"/>
        <pt x="705" y="228" on="1"/>
        <pt x="701" y="228" on="0"/>
        <pt x="699" y="220" on="1"/>
        <pt x="682" y="108" on="0"/>
        <pt x="565" y="-14" on="0"/>
        <pt x="475" y="-14" on="1"/>
        <pt x="431" y="-14" on="0"/>
        <pt x="359" y="-2" on="0"/>
        <pt x="277" y="36" on="0"/>
        <pt x="214" y="100" on="0"/>
        <pt x="154" y="212" on="0"/>
        <pt x="115" y="363" on="0"/>
        <pt x="91" y="583" on="0"/>
        <pt x="91" y="720" on="1"/>
        <pt x="91" y="863" on="0"/>
        <pt x="119" y="1088" on="0"/>
        <pt x="164" y="1240" on="0"/>
        <pt x="237" y="1350" on="0"/>
        <pt x="308" y="1410" on="0"/>
        <pt x="409" y="1444" on="0"/>
        <pt x="489" y="1453" on="0"/>
        <pt x="544" y="1453" on="1"/>
        <pt x="633" y="1453" on="0"/>
        <pt x="709" y="1422" on="1"/>
        <pt x="710" y="1421" on="0"/>
        <pt x="717" y="1416" on="0"/>
        <pt x="721" y="1410" on="0"/>
        <pt x="721" y="1404" on="1"/>
        <pt x="721" y="1306" on="1"/>
        <pt x="721" y="1294" on="0"/>
        <pt x="714" y="1294" on="1"/>
        <pt x="704" y="1297" on="1"/>
        <pt x="693" y="1300" on="0"/>
        <pt x="660" y="1308" on="0"/>
        <pt x="621" y="1315" on="0"/>
        <pt x="574" y="1321" on="0"/>
        <pt x="554" y="1321" on="1"/>
        <pt x="499" y="1321" on="0"/>
        <pt x="422" y="1302" on="0"/>
        <pt x="338" y="1230" on="0"/>
        <pt x="286" y="1104" on="0"/>
        <pt x="252" y="878" on="0"/>
        <pt x="252" y="720" on="1"/>
        <pt x="252" y="570" on="0"/>
        <pt x="278" y="349" on="0"/>
        <pt x="320" y="219" on="0"/>
        <pt x="384" y="141" on="0"/>
        <pt x="449" y="115" on="0"/>
        <pt x="490" y="115" on="1"/>
        <pt x="542" y="115" on="0"/>
        <pt x="610" y="177" on="0"/>
        <pt x="646" y="302" on="0"/>
        <pt x="659" y="447" on="0"/>
        <pt x="659" y="550" on="1"/>
        <pt x="659" y="605" on="0"/>
        <pt x="650" y="605" on="1"/>
        <pt x="510" y="605" on="1"/>
        <pt x="500" y="605" on="0"/>
        <pt x="489" y="609" on="0"/>
        <pt x="480" y="628" on="0"/>
        <pt x="480" y="645" on="1"/>
        <pt x="480" y="705" on="1"/>
        <pt x="480" y="730" on="0"/>
        <pt x="494" y="745" on="0"/>
        <pt x="508" y="745" on="1"/>
        <pt x="776" y="745" on="1"/>
        <pt x="802" y="745" on="0"/>
        <pt x="802" y="692" on="1"/>
        <pt x="802" y="46" on="1"/>
        <pt x="802" y="16" on="0"/>
        <pt x="785" y="-16" on="0"/>
      </contour>
    </TTGlyph>
    <TTGlyph name="Gbreve" xMin="91" yMin="-16" xMax="802" yMax="1761">
      <component glyphName="breve" x="-164" y="283" flags="0x1004"/>
      <component glyphName="G" x="0" y="0" flags="0x1204"/>
    </TTGlyph>
    <TTGlyph name="Gcircumflex" xMin="91" yMin="-16" xMax="802" yMax="1880">
      <component glyphName="circumflex" x="294" y="345" flags="0x1004"/>
      <component glyphName="G" x="0" y="0" flags="0x1204"/>
    </TTGlyph>
    <TTGlyph name="Gcommaaccent" xMin="91" yMin="-683" xMax="802" yMax="1453">
      <component glyphName="comma" x="288" y="-380" flags="0x1004"/>
      <component glyphName="G" x="0" y="0" flags="0x1204"/>
    </TTGlyph>
    <TTGlyph name="Gdotaccent" xMin="91" yMin="-16" xMax="802" yMax="1791">
      <component glyphName="dotaccent" x="346" y="1508" flags="0x1004"/>
      <component glyphName="G" x="0" y="0" flags="0x1204"/>
    </TTGlyph>
    <TTGlyph name="H" xMin="112" yMin="0" xMax="806" yMax="1438">
      <contour>
        <pt x="137" y="0" on="1"/>
        <pt x="124" y="0" on="0"/>
        <pt x="112" y="17" on="0"/>
        <pt x="112" y="47" on="1"/>
        <pt x="112" y="1391" on="1"/>
        <pt x="112" y="1421" on="0"/>
        <pt x="124" y="1438" on="0"/>
        <pt x="137" y="1438" on="1"/>
        <pt x="247" y="1438" on="1"/>
        <pt x="256" y="1438" on="0"/>
        <pt x="266" y="1433" on="0"/>
        <pt x="273" y="1411" on="0"/>
        <pt x="273" y="1391" on="1"/>
        <pt x="273" y="834" on="1"/>
        <pt x="273" y="827" on="0"/>
        <pt x="279" y="814" on="0"/>
        <pt x="281" y="814" on="1"/>
        <pt x="634" y="814" on="1"/>
        <pt x="637" y="814" on="0"/>
        <pt x="645" y="829" on="0"/>
        <pt x="645" y="836" on="1"/>
        <pt x="645" y="1391" on="1"/>
        <pt x="645" y="1421" on="0"/>
        <pt x="657" y="1438" on="0"/>
        <pt x="671" y="1438" on="1"/>
        <pt x="782" y="1438" on="1"/>
        <pt x="795" y="1438" on="0"/>
        <pt x="806" y="1421" on="0"/>
        <pt x="806" y="1391" on="1"/>
        <pt x="806" y="47" on="1"/>
        <pt x="806" y="17" on="0"/>
        <pt x="795" y="0" on="0"/>
        <pt x="782" y="0" on="1"/>
        <pt x="671" y="0" on="1"/>
        <pt x="657" y="0" on="0"/>
        <pt x="644" y="17" on="0"/>
        <pt x="644" y="47" on="1"/>
        <pt x="644" y="664" on="1"/>
        <pt x="644" y="670" on="0"/>
        <pt x="637" y="684" on="0"/>
        <pt x="635" y="684" on="1"/>
        <pt x="282" y="684" on="1"/>
        <pt x="280" y="684" on="0"/>
        <pt x="274" y="671" on="0"/>
        <pt x="274" y="665" on="1"/>
        <pt x="274" y="47" on="1"/>
        <pt x="274" y="18" on="0"/>
        <pt x="261" y="0" on="0"/>
        <pt x="248" y="0" on="1"/>
      </contour>
    </TTGlyph>
    <TTGlyph name="Hbar" xMin="19" yMin="0" xMax="899" yMax="1438">
      <contour>
        <pt x="281" y="814" on="1"/>
        <pt x="634" y="814" on="1"/>
        <pt x="637" y="814" on="0"/>
        <pt x="645" y="829" on="0"/>
        <pt x="645" y="836" on="1"/>
        <pt x="645" y="1179" on="1"/>
        <pt x="273" y="1179" on="1"/>
        <pt x="273" y="834" on="1"/>
        <pt x="273" y="827" on="0"/>
        <pt x="279" y="814" on="0"/>
      </contour>
      <contour>
        <pt x="137" y="0" on="1"/>
        <pt x="124" y="0" on="0"/>
        <pt x="112" y="17" on="0"/>
        <pt x="112" y="47" on="1"/>
        <pt x="112" y="1179" on="1"/>
        <pt x="50" y="1179" on="1"/>
        <pt x="19" y="1179" on="0"/>
        <pt x="19" y="1213" on="1"/>
        <pt x="19" y="1235" on="1"/>
        <pt x="19" y="1271" on="0"/>
        <pt x="50" y="1271" on="1"/>
        <pt x="112" y="1271" on="1"/>
        <pt x="112" y="1391" on="1"/>
        <pt x="112" y="1421" on="0"/>
        <pt x="124" y="1438" on="0"/>
        <pt x="137" y="1438" on="1"/>
        <pt x="247" y="1438" on="1"/>
        <pt x="256" y="1438" on="0"/>
        <pt x="266" y="1433" on="0"/>
        <pt x="273" y="1411" on="0"/>
        <pt x="273" y="1391" on="1"/>
        <pt x="273" y="1271" on="1"/>
        <pt x="645" y="1271" on="1"/>
        <pt x="645" y="1391" on="1"/>
        <pt x="645" y="1421" on="0"/>
        <pt x="657" y="1438" on="0"/>
        <pt x="671" y="1438" on="1"/>
        <pt x="782" y="1438" on="1"/>
        <pt x="795" y="1438" on="0"/>
        <pt x="806" y="1421" on="0"/>
        <pt x="806" y="1391" on="1"/>
        <pt x="806" y="1271" on="1"/>
        <pt x="867" y="1271" on="1"/>
        <pt x="899" y="1271" on="0"/>
        <pt x="899" y="1237" on="1"/>
        <pt x="899" y="1214" on="1"/>
        <pt x="899" y="1179" on="0"/>
        <pt x="867" y="1179" on="1"/>
        <pt x="806" y="1179" on="1"/>
        <pt x="806" y="47" on="1"/>
        <pt x="806" y="17" on="0"/>
        <pt x="795" y="0" on="0"/>
        <pt x="782" y="0" on="1"/>
        <pt x="671" y="0" on="1"/>
        <pt x="657" y="0" on="0"/>
        <pt x="644" y="17" on="0"/>
        <pt x="644" y="47" on="1"/>
        <pt x="644" y="664" on="1"/>
        <pt x="644" y="670" on="0"/>
        <pt x="637" y="684" on="0"/>
        <pt x="635" y="684" on="1"/>
        <pt x="282" y="684" on="1"/>
        <pt x="280" y="684" on="0"/>
        <pt x="274" y="671" on="0"/>
        <pt x="274" y="665" on="1"/>
        <pt x="274" y="47" on="1"/>
        <pt x="274" y="18" on="0"/>
        <pt x="261" y="0" on="0"/>
        <pt x="248" y="0" on="1"/>
      </contour>
    </TTGlyph>
    <TTGlyph name="Hcircumflex" xMin="112" yMin="0" xMax="806" yMax="1880">
      <component glyphName="circumflex" x="306" y="345" flags="0x1004"/>
      <component glyphName="H" x="0" y="0" flags="0x1204"/>
    </TTGlyph>
    <TTGlyph name="I" xMin="115" yMin="0" xMax="276" yMax="1438">
      <contour>
        <pt x="139" y="0" on="1"/>
        <pt x="131" y="0" on="0"/>
        <pt x="122" y="5" on="0"/>
        <pt x="115" y="27" on="0"/>
        <pt x="115" y="47" on="1"/>
        <pt x="115" y="1391" on="1"/>
        <pt x="115" y="1420" on="0"/>
        <pt x="127" y="1438" on="0"/>
        <pt x="139" y="1438" on="1"/>
        <pt x="251" y="1438" on="1"/>
        <pt x="264" y="1438" on="0"/>
        <pt x="276" y="1421" on="0"/>
        <pt x="276" y="1391" on="1"/>
        <pt x="276" y="47" on="1"/>
        <pt x="276" y="17" on="0"/>
        <pt x="264" y="0" on="0"/>
        <pt x="251" y="0" on="1"/>
      </contour>
    </TTGlyph>
    <TTGlyph name="IJ" xMin="115" yMin="-150" xMax="777" yMax="1438">
      <component glyphName="J" x="387" y="0" flags="0x1004"/>
      <component glyphName="I" x="0" y="0" flags="0x1004"/>
    </TTGlyph>
    <TTGlyph name="Iacute" xMin="115" yMin="0" xMax="297" yMax="2016">
      <component glyphName="acute" x="-188" y="407" flags="0x1004"/>
      <component glyphName="I" x="0" y="0" flags="0x1204"/>
    </TTGlyph>
    <TTGlyph name="Ibreve" xMin="10" yMin="0" xMax="381" yMax="1761">
      <component glyphName="breve" x="-415" y="283" flags="0x1004"/>
      <component glyphName="I" x="0" y="0" flags="0x1204"/>
    </TTGlyph>
    <TTGlyph name="Icircumflex" xMin="61" yMin="0" xMax="329" yMax="1880">
      <component glyphName="circumflex" x="42" y="345" flags="0x1004"/>
      <component glyphName="I" x="0" y="0" flags="0x1204"/>
    </TTGlyph>
    <TTGlyph name="Idieresis" xMin="30" yMin="0" xMax="362" yMax="1746">
      <component glyphName="dieresis" x="-10" y="1575" flags="0x1004"/>
      <component glyphName="I" x="0" y="0" flags="0x1204"/>
    </TTGlyph>
    <TTGlyph name="Idotaccent" xMin="108" yMin="0" xMax="284" yMax="1791">
      <component glyphName="dotaccent" x="96" y="1508" flags="0x1004"/>
      <component glyphName="I" x="0" y="0" flags="0x1204"/>
    </TTGlyph>
    <TTGlyph name="Igrave" xMin="94" yMin="0" xMax="276" yMax="2016">
      <component glyphName="grave" x="-260" y="407" flags="0x1004"/>
      <component glyphName="I" x="0" y="0" flags="0x1204"/>
    </TTGlyph>
    <TTGlyph name="Imacron" xMin="-16" yMin="0" xMax="408" yMax="1672">
      <component glyphName="macron" x="-204" y="1086" flags="0x1004"/>
      <component glyphName="I" x="0" y="0" flags="0x1204"/>
    </TTGlyph>
    <TTGlyph name="Iogonek" xMin="41" yMin="-335" xMax="316" yMax="1438">
      <component glyphName="ogonek" x="-179" y="7" flags="0x1004"/>
      <component glyphName="I" x="0" y="0" flags="0x1204"/>
    </TTGlyph>
    <TTGlyph name="Itilde" xMin="-26" yMin="0" xMax="417" yMax="1738">
      <component glyphName="tilde" x="-118" y="764" flags="0x1004"/>
      <component glyphName="I" x="0" y="0" flags="0x1204"/>
    </TTGlyph>
    <TTGlyph name="J" xMin="37" yMin="-150" xMax="390" yMax="1438">
      <contour>
        <pt x="49" y="-150" on="1"/>
        <pt x="37" y="-150" on="0"/>
        <pt x="37" y="-122" on="1"/>
        <pt x="37" y="-47" on="1"/>
        <pt x="37" y="-18" on="0"/>
        <pt x="49" y="-16" on="1"/>
        <pt x="86" y="-15" on="0"/>
        <pt x="130" y="-6" on="0"/>
        <pt x="176" y="25" on="0"/>
        <pt x="200" y="82" on="0"/>
        <pt x="221" y="182" on="0"/>
        <pt x="229" y="330" on="0"/>
        <pt x="229" y="435" on="1"/>
        <pt x="229" y="1391" on="1"/>
        <pt x="229" y="1438" on="0"/>
        <pt x="247" y="1438" on="1"/>
        <pt x="371" y="1438" on="1"/>
        <pt x="390" y="1438" on="0"/>
        <pt x="390" y="1391" on="1"/>
        <pt x="390" y="399" on="1"/>
        <pt x="390" y="242" on="0"/>
        <pt x="353" y="30" on="0"/>
        <pt x="303" y="-83" on="0"/>
        <pt x="201" y="-140" on="0"/>
        <pt x="122" y="-150" on="0"/>
      </contour>
    </TTGlyph>
    <TTGlyph name="Jcircumflex" xMin="37" yMin="-150" xMax="426" yMax="1880">
      <component glyphName="circumflex" x="139" y="345" flags="0x1004"/>
      <component glyphName="J" x="0" y="0" flags="0x1204"/>
    </TTGlyph>
    <TTGlyph name="K" xMin="112" yMin="0" xMax="745" yMax="1438">
      <contour>
        <pt x="136" y="0" on="1"/>
        <pt x="112" y="0" on="0"/>
        <pt x="112" y="58" on="1"/>
        <pt x="112" y="1380" on="1"/>
        <pt x="112" y="1438" on="0"/>
        <pt x="136" y="1438" on="1"/>
        <pt x="247" y="1438" on="1"/>
        <pt x="273" y="1438" on="0"/>
        <pt x="273" y="1380" on="1"/>
        <pt x="273" y="733" on="1"/>
        <pt x="545" y="1384" on="1"/>
        <pt x="567" y="1438" on="0"/>
        <pt x="588" y="1438" on="1"/>
        <pt x="708" y="1438" on="1"/>
        <pt x="725" y="1438" on="0"/>
        <pt x="725" y="1418" on="1"/>
        <pt x="725" y="1400" on="0"/>
        <pt x="717" y="1383" on="1"/>
        <pt x="438" y="743" on="1"/>
        <pt x="433" y="718" on="0"/>
        <pt x="433" y="714" on="1"/>
        <pt x="433" y="700" on="0"/>
        <pt x="437" y="691" on="1"/>
        <pt x="733" y="60" on="1"/>
        <pt x="745" y="35" on="0"/>
        <pt x="745" y="19" on="1"/>
        <pt x="745" y="0" on="0"/>
        <pt x="732" y="0" on="1"/>
        <pt x="620" y="0" on="1"/>
        <pt x="607" y="0" on="0"/>
        <pt x="586" y="23" on="0"/>
        <pt x="572" y="54" on="1"/>
        <pt x="273" y="691" on="1"/>
        <pt x="273" y="55" on="1"/>
        <pt x="273" y="0" on="0"/>
        <pt x="247" y="0" on="1"/>
      </contour>
    </TTGlyph>
    <TTGlyph name="Kcommaaccent" xMin="112" yMin="-667" xMax="745" yMax="1438">
      <component glyphName="comma" x="270" y="-364" flags="0x1004"/>
      <component glyphName="K" x="0" y="0" flags="0x1204"/>
    </TTGlyph>
    <TTGlyph name="L" xMin="112" yMin="0" xMax="573" yMax="1438">
      <contour>
        <pt x="136" y="0" on="1"/>
        <pt x="128" y="0" on="0"/>
        <pt x="119" y="5" on="0"/>
        <pt x="112" y="27" on="0"/>
        <pt x="112" y="47" on="1"/>
        <pt x="112" y="1391" on="1"/>
        <pt x="112" y="1420" on="0"/>
        <pt x="124" y="1438" on="0"/>
        <pt x="136" y="1438" on="1"/>
        <pt x="249" y="1438" on="1"/>
        <pt x="257" y="1438" on="0"/>
        <pt x="266" y="1433" on="0"/>
        <pt x="273" y="1411" on="0"/>
        <pt x="273" y="1391" on="1"/>
        <pt x="273" y="149" on="1"/>
        <pt x="273" y="128" on="0"/>
        <pt x="286" y="128" on="1"/>
        <pt x="548" y="128" on="1"/>
        <pt x="557" y="128" on="0"/>
        <pt x="565" y="125" on="0"/>
        <pt x="573" y="110" on="0"/>
        <pt x="573" y="94" on="1"/>
        <pt x="573" y="36" on="1"/>
        <pt x="573" y="13" on="0"/>
        <pt x="561" y="0" on="0"/>
        <pt x="548" y="0" on="1"/>
      </contour>
    </TTGlyph>
    <TTGlyph name="Lacute" xMin="112" yMin="0" xMax="573" yMax="2016">
      <component glyphName="acute" x="-42" y="407" flags="0x1004"/>
      <component glyphName="L" x="0" y="0" flags="0x1204"/>
    </TTGlyph>
    <TTGlyph name="Lcaron" xMin="112" yMin="0" xMax="911" yMax="1453">
      <component glyphName="comma" x="675" y="1211" flags="0x1004"/>
      <component glyphName="L" x="0" y="0" flags="0x1004"/>
    </TTGlyph>
    <TTGlyph name="Lcommaaccent" xMin="112" yMin="-667" xMax="573" yMax="1438">
      <component glyphName="comma" x="184" y="-364" flags="0x1004"/>
      <component glyphName="L" x="0" y="0" flags="0x1204"/>
    </TTGlyph>
    <TTGlyph name="Ldot" xMin="112" yMin="0" xMax="619" yMax="1438">
      <component glyphName="dotaccent" x="431" y="609" flags="0x1004"/>
      <component glyphName="L" x="0" y="0" flags="0x1004"/>
    </TTGlyph>
    <TTGlyph name="Lslash" xMin="8" yMin="0" xMax="573" yMax="1438">
      <contour>
        <pt x="548" y="0" on="1"/>
        <pt x="136" y="0" on="1"/>
        <pt x="128" y="0" on="0"/>
        <pt x="119" y="5" on="0"/>
        <pt x="112" y="27" on="0"/>
        <pt x="112" y="47" on="1"/>
        <pt x="112" y="679" on="1"/>
        <pt x="33" y="657" on="1"/>
        <pt x="21" y="654" on="0"/>
        <pt x="8" y="669" on="0"/>
        <pt x="8" y="692" on="1"/>
        <pt x="8" y="756" on="1"/>
        <pt x="8" y="763" on="0"/>
        <pt x="9" y="773" on="0"/>
        <pt x="12" y="781" on="0"/>
        <pt x="14" y="785" on="0"/>
        <pt x="21" y="788" on="0"/>
        <pt x="23" y="789" on="0"/>
        <pt x="32" y="792" on="0"/>
        <pt x="33" y="792" on="1"/>
        <pt x="112" y="814" on="1"/>
        <pt x="112" y="1391" on="1"/>
        <pt x="112" y="1420" on="0"/>
        <pt x="124" y="1438" on="0"/>
        <pt x="136" y="1438" on="1"/>
        <pt x="249" y="1438" on="1"/>
        <pt x="257" y="1438" on="0"/>
        <pt x="266" y="1433" on="0"/>
        <pt x="273" y="1411" on="0"/>
        <pt x="273" y="1391" on="1"/>
        <pt x="273" y="856" on="1"/>
        <pt x="439" y="903" on="1"/>
        <pt x="451" y="906" on="0"/>
        <pt x="464" y="891" on="0"/>
        <pt x="464" y="868" on="1"/>
        <pt x="464" y="803" on="1"/>
        <pt x="464" y="788" on="0"/>
        <pt x="456" y="773" on="0"/>
        <pt x="449" y="770" on="0"/>
        <pt x="439" y="768" on="1"/>
        <pt x="273" y="721" on="1"/>
        <pt x="273" y="149" on="1"/>
        <pt x="273" y="128" on="0"/>
        <pt x="286" y="128" on="1"/>
        <pt x="548" y="128" on="1"/>
        <pt x="557" y="128" on="0"/>
        <pt x="565" y="125" on="0"/>
        <pt x="573" y="110" on="0"/>
        <pt x="573" y="94" on="1"/>
        <pt x="573" y="36" on="1"/>
        <pt x="573" y="13" on="0"/>
        <pt x="561" y="0" on="0"/>
      </contour>
    </TTGlyph>
    <TTGlyph name="M" xMin="110" yMin="0" xMax="970" yMax="1438">
      <contour>
        <pt x="133" y="0" on="1"/>
        <pt x="110" y="0" on="0"/>
        <pt x="110" y="52" on="1"/>
        <pt x="110" y="52" on="0"/>
        <pt x="110" y="58" on="1"/>
        <pt x="154" y="1378" on="1"/>
        <pt x="154" y="1438" on="0"/>
        <pt x="177" y="1438" on="1"/>
        <pt x="301" y="1438" on="1"/>
        <pt x="332" y="1438" on="0"/>
        <pt x="342" y="1388" on="1"/>
        <pt x="533" y="375" on="1"/>
        <pt x="534" y="370" on="0"/>
        <pt x="542" y="370" on="0"/>
        <pt x="543" y="375" on="1"/>
        <pt x="733" y="1383" on="1"/>
        <pt x="745" y="1438" on="0"/>
        <pt x="772" y="1438" on="1"/>
        <pt x="901" y="1438" on="1"/>
        <pt x="924" y="1438" on="0"/>
        <pt x="924" y="1378" on="1"/>
        <pt x="970" y="58" on="1"/>
        <pt x="970" y="52" on="1"/>
        <pt x="970" y="0" on="0"/>
        <pt x="946" y="0" on="1"/>
        <pt x="862" y="0" on="1"/>
        <pt x="838" y="0" on="0"/>
        <pt x="837" y="58" on="1"/>
        <pt x="805" y="1153" on="1"/>
        <pt x="803" y="1156" on="0"/>
        <pt x="799" y="1156" on="1"/>
        <pt x="599" y="54" on="1"/>
        <pt x="589" y="1" on="0"/>
        <pt x="563" y="1" on="1"/>
        <pt x="562" y="1" on="0"/>
        <pt x="511" y="0" on="0"/>
        <pt x="510" y="0" on="1"/>
        <pt x="485" y="0" on="0"/>
        <pt x="475" y="54" on="1"/>
        <pt x="279" y="1149" on="1"/>
        <pt x="278" y="1153" on="0"/>
        <pt x="276" y="1149" on="1"/>
        <pt x="275" y="1147" on="0"/>
        <pt x="275" y="1144" on="1"/>
        <pt x="241" y="58" on="1"/>
        <pt x="241" y="0" on="0"/>
        <pt x="219" y="0" on="1"/>
      </contour>
    </TTGlyph>
    <TTGlyph name="N" xMin="112" yMin="0" xMax="818" yMax="1438">
      <contour>
        <pt x="137" y="0" on="1"/>
        <pt x="112" y="0" on="0"/>
        <pt x="112" y="52" on="1"/>
        <pt x="112" y="1387" on="1"/>
        <pt x="112" y="1417" on="0"/>
        <pt x="124" y="1438" on="0"/>
        <pt x="137" y="1438" on="1"/>
        <pt x="248" y="1438" on="1"/>
        <pt x="266" y="1438" on="0"/>
        <pt x="279" y="1405" on="1"/>
        <pt x="670" y="402" on="1"/>
        <pt x="672" y="398" on="0"/>
        <pt x="675" y="407" on="1"/>
        <pt x="677" y="411" on="0"/>
        <pt x="677" y="415" on="1"/>
        <pt x="677" y="1387" on="1"/>
        <pt x="677" y="1417" on="0"/>
        <pt x="690" y="1438" on="0"/>
        <pt x="703" y="1438" on="1"/>
        <pt x="794" y="1438" on="1"/>
        <pt x="818" y="1438" on="0"/>
        <pt x="818" y="1387" on="1"/>
        <pt x="818" y="46" on="1"/>
        <pt x="818" y="26" on="0"/>
        <pt x="811" y="5" on="0"/>
        <pt x="802" y="0" on="0"/>
        <pt x="794" y="0" on="1"/>
        <pt x="713" y="0" on="1"/>
        <pt x="705" y="0" on="0"/>
        <pt x="681" y="26" on="0"/>
        <pt x="675" y="42" on="1"/>
        <pt x="262" y="1078" on="1"/>
        <pt x="260" y="1084" on="0"/>
        <pt x="256" y="1074" on="1"/>
        <pt x="255" y="1071" on="0"/>
        <pt x="255" y="1068" on="1"/>
        <pt x="255" y="52" on="1"/>
        <pt x="255" y="22" on="0"/>
        <pt x="242" y="0" on="0"/>
        <pt x="229" y="0" on="1"/>
      </contour>
    </TTGlyph>
    <TTGlyph name="Nacute" xMin="112" yMin="0" xMax="818" yMax="2016">
      <component glyphName="acute" x="81" y="407" flags="0x1004"/>
      <component glyphName="N" x="0" y="0" flags="0x1204"/>
    </TTGlyph>
    <TTGlyph name="Ncaron" xMin="112" yMin="0" xMax="818" yMax="1880">
      <component glyphName="caron" x="313" y="345" flags="0x1004"/>
      <component glyphName="N" x="0" y="0" flags="0x1204"/>
    </TTGlyph>
    <TTGlyph name="Ncommaaccent" xMin="112" yMin="-667" xMax="818" yMax="1438">
      <component glyphName="comma" x="306" y="-364" flags="0x1004"/>
      <component glyphName="N" x="0" y="0" flags="0x1204"/>
    </TTGlyph>
    <TTGlyph name="Ntilde" xMin="112" yMin="0" xMax="818" yMax="1738">
      <component glyphName="tilde" x="152" y="764" flags="0x1004"/>
      <component glyphName="N" x="0" y="0" flags="0x1204"/>
    </TTGlyph>
    <TTGlyph name="O" xMin="88" yMin="-14" xMax="812" yMax="1453">
      <contour>
        <pt x="449" y="-14" on="1"/>
        <pt x="368" y="-14" on="0"/>
        <pt x="256" y="24" on="0"/>
        <pt x="166" y="118" on="0"/>
        <pt x="115" y="287" on="0"/>
        <pt x="88" y="542" on="0"/>
        <pt x="88" y="725" on="1"/>
        <pt x="88" y="942" on="0"/>
        <pt x="128" y="1224" on="0"/>
        <pt x="220" y="1388" on="0"/>
        <pt x="350" y="1453" on="0"/>
        <pt x="449" y="1453" on="1"/>
        <pt x="550" y="1453" on="0"/>
        <pt x="680" y="1390" on="0"/>
        <pt x="772" y="1226" on="0"/>
        <pt x="812" y="944" on="0"/>
        <pt x="812" y="725" on="1"/>
        <pt x="812" y="541" on="0"/>
        <pt x="786" y="285" on="0"/>
        <pt x="734" y="116" on="0"/>
        <pt x="644" y="23" on="0"/>
        <pt x="531" y="-14" on="0"/>
      </contour>
      <contour>
        <pt x="449" y="115" on="1"/>
        <pt x="528" y="115" on="0"/>
        <pt x="611" y="211" on="0"/>
        <pt x="651" y="473" on="0"/>
        <pt x="651" y="725" on="1"/>
        <pt x="651" y="965" on="0"/>
        <pt x="614" y="1217" on="0"/>
        <pt x="530" y="1321" on="0"/>
        <pt x="450" y="1321" on="1"/>
        <pt x="371" y="1321" on="0"/>
        <pt x="286" y="1212" on="0"/>
        <pt x="249" y="959" on="0"/>
        <pt x="249" y="725" on="1"/>
        <pt x="249" y="476" on="0"/>
        <pt x="289" y="214" on="0"/>
        <pt x="371" y="115" on="0"/>
      </contour>
    </TTGlyph>
    <TTGlyph name="OE" xMin="88" yMin="0" xMax="1042" yMax="1438">
      <contour>
        <pt x="558" y="128" on="1"/>
        <pt x="560" y="128" on="0"/>
        <pt x="560" y="1310" on="0"/>
        <pt x="558" y="1310" on="1"/>
        <pt x="468" y="1310" on="1"/>
        <pt x="356" y="1309" on="0"/>
        <pt x="249" y="1039" on="0"/>
        <pt x="249" y="723" on="1"/>
        <pt x="249" y="549" on="0"/>
        <pt x="277" y="314" on="0"/>
        <pt x="335" y="182" on="0"/>
        <pt x="413" y="128" on="0"/>
        <pt x="468" y="128" on="1"/>
      </contour>
      <contour>
        <pt x="475" y="0" on="1"/>
        <pt x="403" y="0" on="0"/>
        <pt x="297" y="31" on="0"/>
        <pt x="193" y="123" on="0"/>
        <pt x="128" y="280" on="0"/>
        <pt x="88" y="543" on="0"/>
        <pt x="88" y="723" on="1"/>
        <pt x="88" y="886" on="0"/>
        <pt x="125" y="1134" on="0"/>
        <pt x="189" y="1295" on="0"/>
        <pt x="284" y="1396" on="0"/>
        <pt x="394" y="1438" on="0"/>
        <pt x="462" y="1438" on="1"/>
        <pt x="1005" y="1438" on="1"/>
        <pt x="1030" y="1438" on="0"/>
        <pt x="1030" y="1389" on="1"/>
        <pt x="1030" y="1359" on="1"/>
        <pt x="1030" y="1310" on="0"/>
        <pt x="1005" y="1310" on="1"/>
        <pt x="735" y="1310" on="1"/>
        <pt x="724" y="1310" on="0"/>
        <pt x="724" y="1279" on="1"/>
        <pt x="724" y="821" on="1"/>
        <pt x="724" y="814" on="0"/>
        <pt x="730" y="800" on="0"/>
        <pt x="732" y="800" on="1"/>
        <pt x="971" y="800" on="1"/>
        <pt x="996" y="800" on="0"/>
        <pt x="996" y="752" on="1"/>
        <pt x="996" y="722" on="1"/>
        <pt x="996" y="672" on="0"/>
        <pt x="971" y="672" on="1"/>
        <pt x="733" y="672" on="1"/>
        <pt x="731" y="672" on="0"/>
        <pt x="724" y="653" on="0"/>
        <pt x="724" y="646" on="1"/>
        <pt x="724" y="153" on="1"/>
        <pt x="724" y="128" on="0"/>
        <pt x="730" y="128" on="1"/>
        <pt x="1018" y="128" on="1"/>
        <pt x="1042" y="128" on="0"/>
        <pt x="1042" y="79" on="1"/>
        <pt x="1042" y="50" on="1"/>
        <pt x="1042" y="0" on="0"/>
        <pt x="1018" y="0" on="1"/>
      </contour>
    </TTGlyph>
    <TTGlyph name="Oacute" xMin="88" yMin="-14" xMax="812" yMax="2016">
      <component glyphName="acute" x="66" y="407" flags="0x1004"/>
      <component glyphName="O" x="0" y="0" flags="0x1204"/>
    </TTGlyph>
    <TTGlyph name="Obreve" xMin="88" yMin="-14" xMax="812" yMax="1761">
      <component glyphName="breve" x="-160" y="283" flags="0x1004"/>
      <component glyphName="O" x="0" y="0" flags="0x1204"/>
    </TTGlyph>
    <TTGlyph name="Ocircumflex" xMin="88" yMin="-14" xMax="812" yMax="1880">
      <component glyphName="circumflex" x="297" y="345" flags="0x1004"/>
      <component glyphName="O" x="0" y="0" flags="0x1204"/>
    </TTGlyph>
    <TTGlyph name="Odieresis" xMin="88" yMin="-14" xMax="812" yMax="1746">
      <component glyphName="dieresis" x="244" y="1575" flags="0x1004"/>
      <component glyphName="O" x="0" y="0" flags="0x1204"/>
    </TTGlyph>
    <TTGlyph name="Ograve" xMin="88" yMin="-14" xMax="812" yMax="2016">
      <component glyphName="grave" x="-5" y="407" flags="0x1004"/>
      <component glyphName="O" x="0" y="0" flags="0x1204"/>
    </TTGlyph>
    <TTGlyph name="Ohungarumlaut" xMin="88" yMin="-14" xMax="812" yMax="2016">
      <component glyphName="hungarumlaut" x="145" y="407" flags="0x1004"/>
      <component glyphName="O" x="0" y="0" flags="0x1204"/>
    </TTGlyph>
    <TTGlyph name="Omacron" xMin="88" yMin="-14" xMax="812" yMax="1672">
      <component glyphName="macron" x="50" y="1086" flags="0x1004"/>
      <component glyphName="O" x="0" y="0" flags="0x1204"/>
    </TTGlyph>
    <TTGlyph name="Oslash" xMin="88" yMin="-206" xMax="812" yMax="1647">
      <contour>
        <pt x="449" y="116" on="1"/>
        <pt x="528" y="116" on="0"/>
        <pt x="611" y="212" on="0"/>
        <pt x="651" y="474" on="0"/>
        <pt x="651" y="727" on="1"/>
        <pt x="651" y="939" on="0"/>
        <pt x="617" y="1178" on="0"/>
        <pt x="576" y="1234" on="1"/>
        <pt x="419" y="118" on="1"/>
        <pt x="439" y="116" on="0"/>
      </contour>
      <contour>
        <pt x="342" y="178" on="1"/>
        <pt x="504" y="1318" on="1"/>
        <pt x="474" y="1325" on="0"/>
        <pt x="450" y="1325" on="1"/>
        <pt x="372" y="1325" on="0"/>
        <pt x="286" y="1215" on="0"/>
        <pt x="249" y="960" on="0"/>
        <pt x="249" y="727" on="1"/>
        <pt x="249" y="479" on="0"/>
        <pt x="292" y="227" on="0"/>
      </contour>
      <contour>
        <pt x="299" y="-205" on="1"/>
        <pt x="296" y="-205" on="0"/>
        <pt x="291" y="-178" on="0"/>
        <pt x="293" y="-172" on="1"/>
        <pt x="318" y="2" on="1"/>
        <pt x="235" y="28" on="0"/>
        <pt x="136" y="181" on="0"/>
        <pt x="88" y="481" on="0"/>
        <pt x="88" y="727" on="1"/>
        <pt x="88" y="944" on="0"/>
        <pt x="128" y="1226" on="0"/>
        <pt x="220" y="1391" on="0"/>
        <pt x="350" y="1456" on="0"/>
        <pt x="449" y="1456" on="1"/>
        <pt x="485" y="1456" on="0"/>
        <pt x="523" y="1451" on="1"/>
        <pt x="546" y="1614" on="1"/>
        <pt x="549" y="1647" on="0"/>
        <pt x="561" y="1647" on="1"/>
        <pt x="624" y="1647" on="1"/>
        <pt x="628" y="1647" on="0"/>
        <pt x="632" y="1625" on="0"/>
        <pt x="630" y="1614" on="1"/>
        <pt x="604" y="1430" on="1"/>
        <pt x="715" y="1381" on="0"/>
        <pt x="812" y="1059" on="0"/>
        <pt x="812" y="727" on="1"/>
        <pt x="812" y="542" on="0"/>
        <pt x="786" y="286" on="0"/>
        <pt x="734" y="116" on="0"/>
        <pt x="644" y="22" on="0"/>
        <pt x="531" y="-15" on="0"/>
        <pt x="449" y="-15" on="1"/>
        <pt x="432" y="-15" on="0"/>
        <pt x="400" y="-13" on="1"/>
        <pt x="377" y="-173" on="1"/>
        <pt x="374" y="-206" on="0"/>
        <pt x="363" y="-206" on="1"/>
      </contour>
    </TTGlyph>
    <TTGlyph name="Otilde" xMin="88" yMin="-14" xMax="812" yMax="1738">
      <component glyphName="tilde" x="136" y="764" flags="0x1004"/>
      <component glyphName="O" x="0" y="0" flags="0x1204"/>
    </TTGlyph>
    <TTGlyph name="P" xMin="112" yMin="0" xMax="776" yMax="1438">
      <contour>
        <pt x="281" y="647" on="1"/>
        <pt x="418" y="647" on="1"/>
        <pt x="465" y="647" on="0"/>
        <pt x="523" y="660" on="0"/>
        <pt x="574" y="697" on="0"/>
        <pt x="600" y="770" on="0"/>
        <pt x="615" y="886" on="0"/>
        <pt x="615" y="973" on="1"/>
        <pt x="615" y="1067" on="0"/>
        <pt x="592" y="1195" on="0"/>
        <pt x="559" y="1265" on="0"/>
        <pt x="496" y="1302" on="0"/>
        <pt x="442" y="1310" on="0"/>
        <pt x="396" y="1310" on="1"/>
        <pt x="282" y="1310" on="1"/>
        <pt x="273" y="1310" on="0"/>
        <pt x="273" y="1293" on="1"/>
        <pt x="273" y="663" on="1"/>
        <pt x="273" y="647" on="0"/>
      </contour>
      <contour>
        <pt x="136" y="0" on="1"/>
        <pt x="112" y="0" on="0"/>
        <pt x="112" y="49" on="1"/>
        <pt x="112" y="1392" on="1"/>
        <pt x="112" y="1421" on="0"/>
        <pt x="124" y="1438" on="0"/>
        <pt x="136" y="1438" on="1"/>
        <pt x="403" y="1438" on="1"/>
        <pt x="439" y="1438" on="0"/>
        <pt x="492" y="1435" on="0"/>
        <pt x="559" y="1424" on="0"/>
        <pt x="608" y="1405" on="0"/>
        <pt x="663" y="1371" on="0"/>
        <pt x="702" y="1324" on="0"/>
        <pt x="739" y="1253" on="0"/>
        <pt x="762" y="1164" on="0"/>
        <pt x="776" y="1045" on="0"/>
        <pt x="776" y="974" on="1"/>
        <pt x="776" y="887" on="0"/>
        <pt x="756" y="750" on="0"/>
        <pt x="723" y="655" on="0"/>
        <pt x="671" y="587" on="0"/>
        <pt x="616" y="547" on="0"/>
        <pt x="542" y="525" on="0"/>
        <pt x="477" y="518" on="0"/>
        <pt x="435" y="518" on="1"/>
        <pt x="282" y="518" on="1"/>
        <pt x="273" y="518" on="0"/>
        <pt x="273" y="501" on="1"/>
        <pt x="273" y="49" on="1"/>
        <pt x="273" y="0" on="0"/>
        <pt x="248" y="0" on="1"/>
      </contour>
    </TTGlyph>
    <TTGlyph name="Q" xMin="88" yMin="-411" xMax="856" yMax="1453">
      <contour>
        <pt x="471" y="115" on="1"/>
        <pt x="520" y="115" on="0"/>
        <pt x="586" y="141" on="0"/>
        <pt x="644" y="214" on="0"/>
        <pt x="676" y="349" on="0"/>
        <pt x="695" y="566" on="0"/>
        <pt x="695" y="723" on="1"/>
        <pt x="695" y="966" on="0"/>
        <pt x="646" y="1229" on="0"/>
        <pt x="554" y="1321" on="0"/>
        <pt x="472" y="1321" on="1"/>
        <pt x="391" y="1321" on="0"/>
        <pt x="298" y="1223" on="0"/>
        <pt x="249" y="960" on="0"/>
        <pt x="249" y="723" on="1"/>
        <pt x="249" y="569" on="0"/>
        <pt x="267" y="353" on="0"/>
        <pt x="300" y="218" on="0"/>
        <pt x="358" y="142" on="0"/>
        <pt x="423" y="115" on="0"/>
      </contour>
      <contour>
        <pt x="563" y="-363" on="1"/>
        <pt x="486" y="-12" on="1"/>
        <pt x="458" y="-15" on="0"/>
        <pt x="440" y="-14" on="1"/>
        <pt x="364" y="-10" on="0"/>
        <pt x="259" y="29" on="0"/>
        <pt x="169" y="124" on="0"/>
        <pt x="117" y="288" on="0"/>
        <pt x="88" y="543" on="0"/>
        <pt x="88" y="723" on="1"/>
        <pt x="88" y="901" on="0"/>
        <pt x="120" y="1157" on="0"/>
        <pt x="179" y="1321" on="0"/>
        <pt x="276" y="1416" on="0"/>
        <pt x="391" y="1453" on="0"/>
        <pt x="471" y="1453" on="1"/>
        <pt x="553" y="1453" on="0"/>
        <pt x="668" y="1417" on="0"/>
        <pt x="766" y="1323" on="0"/>
        <pt x="824" y="1159" on="0"/>
        <pt x="856" y="903" on="0"/>
        <pt x="856" y="723" on="1"/>
        <pt x="856" y="472" on="0"/>
        <pt x="802" y="169" on="0"/>
        <pt x="699" y="26" on="0"/>
        <pt x="612" y="0" on="1"/>
        <pt x="615" y="-18" on="0"/>
        <pt x="653" y="-188" on="0"/>
        <pt x="685" y="-339" on="0"/>
        <pt x="685" y="-347" on="1"/>
        <pt x="690" y="-367" on="0"/>
        <pt x="686" y="-390" on="0"/>
        <pt x="670" y="-395" on="1"/>
        <pt x="622" y="-411" on="0"/>
        <pt x="574" y="-411" on="0"/>
      </contour>
    </TTGlyph>
    <TTGlyph name="R" xMin="112" yMin="-1" xMax="799" yMax="1438">
      <contour>
        <pt x="282" y="799" on="1"/>
        <pt x="431" y="799" on="1"/>
        <pt x="539" y="799" on="0"/>
        <pt x="637" y="926" on="0"/>
        <pt x="637" y="1061" on="1"/>
        <pt x="637" y="1136" on="0"/>
        <pt x="608" y="1235" on="0"/>
        <pt x="545" y="1289" on="0"/>
        <pt x="463" y="1310" on="0"/>
        <pt x="401" y="1310" on="1"/>
        <pt x="282" y="1310" on="1"/>
        <pt x="273" y="1310" on="0"/>
        <pt x="273" y="1293" on="1"/>
        <pt x="273" y="821" on="1"/>
        <pt x="273" y="799" on="0"/>
      </contour>
      <contour>
        <pt x="136" y="0" on="1"/>
        <pt x="124" y="0" on="0"/>
        <pt x="112" y="17" on="0"/>
        <pt x="112" y="44" on="1"/>
        <pt x="112" y="1392" on="1"/>
        <pt x="112" y="1412" on="0"/>
        <pt x="119" y="1433" on="0"/>
        <pt x="128" y="1438" on="0"/>
        <pt x="136" y="1438" on="1"/>
        <pt x="440" y="1438" on="1"/>
        <pt x="487" y="1438" on="0"/>
        <pt x="556" y="1433" on="0"/>
        <pt x="635" y="1414" on="0"/>
        <pt x="691" y="1382" on="0"/>
        <pt x="745" y="1327" on="0"/>
        <pt x="778" y="1249" on="0"/>
        <pt x="798" y="1137" on="0"/>
        <pt x="798" y="1066" on="1"/>
        <pt x="798" y="968" on="0"/>
        <pt x="754" y="836" on="0"/>
        <pt x="688" y="773" on="0"/>
        <pt x="637" y="752" on="1"/>
        <pt x="633" y="748" on="0"/>
        <pt x="633" y="745" on="1"/>
        <pt x="633" y="741" on="0"/>
        <pt x="636" y="741" on="1"/>
        <pt x="666" y="727" on="0"/>
        <pt x="701" y="706" on="0"/>
        <pt x="748" y="658" on="0"/>
        <pt x="774" y="599" on="0"/>
        <pt x="795" y="499" on="0"/>
        <pt x="797" y="433" on="1"/>
        <pt x="799" y="379" on="0"/>
        <pt x="799" y="52" on="1"/>
        <pt x="799" y="0" on="0"/>
        <pt x="779" y="0" on="1"/>
        <pt x="663" y="-1" on="0"/>
        <pt x="661" y="-1" on="1"/>
        <pt x="642" y="-1" on="0"/>
        <pt x="642" y="48" on="1"/>
        <pt x="641" y="57" on="0"/>
        <pt x="634" y="487" on="0"/>
        <pt x="629" y="509" on="1"/>
        <pt x="622" y="673" on="0"/>
        <pt x="464" y="673" on="1"/>
        <pt x="283" y="673" on="1"/>
        <pt x="273" y="673" on="0"/>
        <pt x="273" y="654" on="1"/>
        <pt x="273" y="44" on="1"/>
        <pt x="273" y="17" on="0"/>
        <pt x="261" y="0" on="0"/>
        <pt x="248" y="0" on="1"/>
      </contour>
    </TTGlyph>
    <TTGlyph name="Racute" xMin="112" yMin="-1" xMax="799" yMax="2016">
      <component glyphName="acute" x="72" y="407" flags="0x1004"/>
      <component glyphName="R" x="0" y="0" flags="0x1204"/>
    </TTGlyph>
    <TTGlyph name="Rcaron" xMin="112" yMin="-1" xMax="799" yMax="1880">
      <component glyphName="caron" x="303" y="345" flags="0x1004"/>
      <component glyphName="R" x="0" y="0" flags="0x1204"/>
    </TTGlyph>
    <TTGlyph name="Rcommaaccent" xMin="112" yMin="-668" xMax="799" yMax="1438">
      <component glyphName="comma" x="297" y="-365" flags="0x1004"/>
      <component glyphName="R" x="0" y="0" flags="0x1204"/>
    </TTGlyph>
    <TTGlyph name="S" xMin="43" yMin="-14" xMax="710" yMax="1453">
      <contour>
        <pt x="710" y="385" on="1"/>
        <pt x="710" y="209" on="0"/>
        <pt x="527" y="-14" on="0"/>
        <pt x="375" y="-14" on="1"/>
        <pt x="166" y="-14" on="0"/>
        <pt x="48" y="169" on="1"/>
        <pt x="43" y="176" on="0"/>
        <pt x="43" y="189" on="1"/>
        <pt x="43" y="217" on="0"/>
        <pt x="92" y="281" on="0"/>
        <pt x="114" y="281" on="1"/>
        <pt x="123" y="281" on="0"/>
        <pt x="130" y="273" on="1"/>
        <pt x="237" y="124" on="0"/>
        <pt x="374" y="124" on="1"/>
        <pt x="460" y="124" on="0"/>
        <pt x="558" y="259" on="0"/>
        <pt x="558" y="367" on="1"/>
        <pt x="558" y="462" on="0"/>
        <pt x="486" y="574" on="0"/>
        <pt x="412" y="624" on="1"/>
        <pt x="280" y="712" on="1"/>
        <pt x="239" y="739" on="0"/>
        <pt x="178" y="796" on="0"/>
        <pt x="117" y="881" on="0"/>
        <pt x="84" y="998" on="0"/>
        <pt x="84" y="1069" on="1"/>
        <pt x="84" y="1240" on="0"/>
        <pt x="256" y="1453" on="0"/>
        <pt x="398" y="1453" on="1"/>
        <pt x="578" y="1453" on="0"/>
        <pt x="681" y="1322" on="1"/>
        <pt x="690" y="1310" on="0"/>
        <pt x="690" y="1294" on="1"/>
        <pt x="690" y="1264" on="0"/>
        <pt x="641" y="1204" on="0"/>
        <pt x="623" y="1204" on="1"/>
        <pt x="617" y="1204" on="0"/>
        <pt x="614" y="1208" on="1"/>
        <pt x="529" y="1313" on="0"/>
        <pt x="418" y="1313" on="1"/>
        <pt x="337" y="1313" on="0"/>
        <pt x="236" y="1185" on="0"/>
        <pt x="236" y="1090" on="1"/>
        <pt x="236" y="1029" on="0"/>
        <pt x="277" y="934" on="0"/>
        <pt x="331" y="880" on="0"/>
        <pt x="374" y="852" on="1"/>
        <pt x="505" y="767" on="1"/>
        <pt x="710" y="634" on="0"/>
      </contour>
    </TTGlyph>
    <TTGlyph name="Sacute" xMin="43" yMin="-14" xMax="710" yMax="2016">
      <component glyphName="acute" x="-8" y="407" flags="0x1004"/>
      <component glyphName="S" x="0" y="0" flags="0x1204"/>
    </TTGlyph>
    <TTGlyph name="Scaron" xMin="43" yMin="-14" xMax="710" yMax="1880">
      <component glyphName="caron" x="224" y="345" flags="0x1004"/>
      <component glyphName="S" x="0" y="0" flags="0x1204"/>
    </TTGlyph>
    <TTGlyph name="Scedilla" xMin="43" yMin="-558" xMax="710" yMax="1453">
      <component glyphName="cedilla" x="114" y="40" flags="0x1004"/>
      <component glyphName="S" x="0" y="0" flags="0x1204"/>
    </TTGlyph>
    <TTGlyph name="Scircumflex" xMin="43" yMin="-14" xMax="710" yMax="1880">
      <component glyphName="circumflex" x="224" y="345" flags="0x1004"/>
      <component glyphName="S" x="0" y="0" flags="0x1204"/>
    </TTGlyph>
    <TTGlyph name="Scommaaccent" xMin="43" yMin="-681" xMax="710" yMax="1453">
      <component glyphName="comma" x="218" y="-378" flags="0x1004"/>
      <component glyphName="S" x="0" y="0" flags="0x1204"/>
    </TTGlyph>
    <TTGlyph name="T" xMin="28" yMin="0" xMax="609" yMax="1438">
      <contour>
        <pt x="263" y="0" on="1"/>
        <pt x="250" y="0" on="0"/>
        <pt x="239" y="17" on="0"/>
        <pt x="239" y="47" on="1"/>
        <pt x="239" y="1281" on="1"/>
        <pt x="239" y="1306" on="0"/>
        <pt x="228" y="1306" on="1"/>
        <pt x="53" y="1306" on="1"/>
        <pt x="43" y="1306" on="0"/>
        <pt x="35" y="1309" on="0"/>
        <pt x="28" y="1325" on="0"/>
        <pt x="28" y="1341" on="1"/>
        <pt x="28" y="1397" on="1"/>
        <pt x="28" y="1423" on="0"/>
        <pt x="39" y="1438" on="0"/>
        <pt x="53" y="1438" on="1"/>
        <pt x="585" y="1438" on="1"/>
        <pt x="598" y="1438" on="0"/>
        <pt x="609" y="1423" on="0"/>
        <pt x="609" y="1397" on="1"/>
        <pt x="609" y="1341" on="1"/>
        <pt x="609" y="1325" on="0"/>
        <pt x="602" y="1309" on="0"/>
        <pt x="594" y="1306" on="0"/>
        <pt x="585" y="1306" on="1"/>
        <pt x="411" y="1306" on="1"/>
        <pt x="400" y="1306" on="0"/>
        <pt x="400" y="1281" on="1"/>
        <pt x="400" y="47" on="1"/>
        <pt x="400" y="17" on="0"/>
        <pt x="389" y="0" on="0"/>
        <pt x="376" y="0" on="1"/>
      </contour>
    </TTGlyph>
    <TTGlyph name="Tcaron" xMin="28" yMin="0" xMax="609" yMax="1880">
      <component glyphName="caron" x="166" y="345" flags="0x1004"/>
      <component glyphName="T" x="0" y="0" flags="0x1204"/>
    </TTGlyph>
    <TTGlyph name="Thorn" xMin="112" yMin="0" xMax="776" yMax="1423">
      <contour>
        <pt x="281" y="487" on="1"/>
        <pt x="418" y="487" on="1"/>
        <pt x="457" y="487" on="0"/>
        <pt x="508" y="493" on="0"/>
        <pt x="557" y="514" on="0"/>
        <pt x="584" y="551" on="0"/>
        <pt x="606" y="615" on="0"/>
        <pt x="615" y="707" on="0"/>
        <pt x="615" y="772" on="1"/>
        <pt x="615" y="826" on="0"/>
        <pt x="607" y="912" on="0"/>
        <pt x="589" y="973" on="0"/>
        <pt x="570" y="1018" on="0"/>
        <pt x="536" y="1046" on="0"/>
        <pt x="508" y="1063" on="0"/>
        <pt x="460" y="1070" on="0"/>
        <pt x="425" y="1072" on="0"/>
        <pt x="396" y="1072" on="1"/>
        <pt x="282" y="1072" on="1"/>
        <pt x="273" y="1072" on="0"/>
        <pt x="273" y="1055" on="1"/>
        <pt x="273" y="503" on="1"/>
        <pt x="273" y="487" on="0"/>
      </contour>
      <contour>
        <pt x="136" y="0" on="1"/>
        <pt x="112" y="0" on="0"/>
        <pt x="112" y="49" on="1"/>
        <pt x="112" y="1374" on="1"/>
        <pt x="112" y="1423" on="0"/>
        <pt x="137" y="1423" on="1"/>
        <pt x="249" y="1423" on="1"/>
        <pt x="273" y="1423" on="0"/>
        <pt x="273" y="1374" on="1"/>
        <pt x="273" y="1200" on="1"/>
        <pt x="403" y="1200" on="1"/>
        <pt x="440" y="1200" on="0"/>
        <pt x="491" y="1198" on="0"/>
        <pt x="559" y="1189" on="0"/>
        <pt x="607" y="1172" on="0"/>
        <pt x="663" y="1141" on="0"/>
        <pt x="701" y="1098" on="0"/>
        <pt x="740" y="1033" on="0"/>
        <pt x="762" y="951" on="0"/>
        <pt x="776" y="840" on="0"/>
        <pt x="776" y="773" on="1"/>
        <pt x="776" y="693" on="0"/>
        <pt x="756" y="566" on="0"/>
        <pt x="723" y="480" on="0"/>
        <pt x="670" y="418" on="0"/>
        <pt x="617" y="383" on="0"/>
        <pt x="541" y="364" on="0"/>
        <pt x="478" y="358" on="0"/>
        <pt x="435" y="358" on="1"/>
        <pt x="282" y="358" on="1"/>
        <pt x="273" y="358" on="0"/>
        <pt x="273" y="342" on="1"/>
        <pt x="273" y="49" on="1"/>
        <pt x="273" y="0" on="0"/>
        <pt x="248" y="0" on="1"/>
      </contour>
    </TTGlyph>
    <TTGlyph name="U" xMin="100" yMin="-14" xMax="837" yMax="1438">
      <contour>
        <pt x="474" y="-14" on="1"/>
        <pt x="421" y="-14" on="0"/>
        <pt x="344" y="-5" on="0"/>
        <pt x="261" y="24" on="0"/>
        <pt x="204" y="77" on="0"/>
        <pt x="150" y="167" on="0"/>
        <pt x="119" y="293" on="0"/>
        <pt x="100" y="474" on="0"/>
        <pt x="100" y="590" on="1"/>
        <pt x="100" y="1391" on="1"/>
        <pt x="100" y="1421" on="0"/>
        <pt x="112" y="1438" on="0"/>
        <pt x="125" y="1438" on="1"/>
        <pt x="236" y="1438" on="1"/>
        <pt x="244" y="1438" on="0"/>
        <pt x="254" y="1433" on="0"/>
        <pt x="261" y="1411" on="0"/>
        <pt x="261" y="1391" on="1"/>
        <pt x="261" y="595" on="1"/>
        <pt x="261" y="467" on="0"/>
        <pt x="279" y="293" on="0"/>
        <pt x="309" y="189" on="0"/>
        <pt x="365" y="133" on="0"/>
        <pt x="426" y="116" on="0"/>
        <pt x="473" y="116" on="1"/>
        <pt x="521" y="116" on="0"/>
        <pt x="579" y="132" on="0"/>
        <pt x="633" y="184" on="0"/>
        <pt x="660" y="289" on="0"/>
        <pt x="676" y="463" on="0"/>
        <pt x="676" y="595" on="1"/>
        <pt x="676" y="1391" on="1"/>
        <pt x="676" y="1421" on="0"/>
        <pt x="688" y="1438" on="0"/>
        <pt x="701" y="1438" on="1"/>
        <pt x="813" y="1438" on="1"/>
        <pt x="826" y="1438" on="0"/>
        <pt x="837" y="1421" on="0"/>
        <pt x="837" y="1391" on="1"/>
        <pt x="837" y="590" on="1"/>
        <pt x="837" y="473" on="0"/>
        <pt x="819" y="292" on="0"/>
        <pt x="788" y="165" on="0"/>
        <pt x="736" y="75" on="0"/>
        <pt x="681" y="24" on="0"/>
        <pt x="600" y="-5" on="0"/>
        <pt x="526" y="-14" on="0"/>
      </contour>
    </TTGlyph>
    <TTGlyph name="Uacute" xMin="100" yMin="-14" xMax="837" yMax="2016">
      <component glyphName="acute" x="84" y="407" flags="0x1004"/>
      <component glyphName="U" x="0" y="0" flags="0x1204"/>
    </TTGlyph>
    <TTGlyph name="Ubreve" xMin="100" yMin="-14" xMax="837" yMax="1761">
      <component glyphName="breve" x="-142" y="283" flags="0x1004"/>
      <component glyphName="U" x="0" y="0" flags="0x1204"/>
    </TTGlyph>
    <TTGlyph name="Ucircumflex" xMin="100" yMin="-14" xMax="837" yMax="1880">
      <component glyphName="circumflex" x="316" y="345" flags="0x1004"/>
      <component glyphName="U" x="0" y="0" flags="0x1204"/>
    </TTGlyph>
    <TTGlyph name="Udieresis" xMin="100" yMin="-14" xMax="837" yMax="1746">
      <component glyphName="dieresis" x="262" y="1575" flags="0x1004"/>
      <component glyphName="U" x="0" y="0" flags="0x1204"/>
    </TTGlyph>
    <TTGlyph name="Ugrave" xMin="100" yMin="-14" xMax="837" yMax="2016">
      <component glyphName="grave" x="14" y="407" flags="0x1004"/>
      <component glyphName="U" x="0" y="0" flags="0x1204"/>
    </TTGlyph>
    <TTGlyph name="Uhungarumlaut" xMin="100" yMin="-14" xMax="837" yMax="2016">
      <component glyphName="hungarumlaut" x="164" y="407" flags="0x1004"/>
      <component glyphName="U" x="0" y="0" flags="0x1204"/>
    </TTGlyph>
    <TTGlyph name="Umacron" xMin="100" yMin="-14" xMax="837" yMax="1672">
      <component glyphName="macron" x="68" y="1086" flags="0x1004"/>
      <component glyphName="U" x="0" y="0" flags="0x1204"/>
    </TTGlyph>
    <TTGlyph name="Uogonek" xMin="100" yMin="-351" xMax="837" yMax="1438">
      <component glyphName="ogonek" x="84" y="-9" flags="0x1004"/>
      <component glyphName="U" x="0" y="0" flags="0x1204"/>
    </TTGlyph>
    <TTGlyph name="Uring" xMin="100" yMin="-14" xMax="837" yMax="1938">
      <component glyphName="ring" x="-70" y="735" flags="0x1004"/>
      <component glyphName="U" x="0" y="0" flags="0x1204"/>
    </TTGlyph>
    <TTGlyph name="Utilde" xMin="100" yMin="-14" xMax="837" yMax="1738">
      <component glyphName="tilde" x="155" y="764" flags="0x1004"/>
      <component glyphName="U" x="0" y="0" flags="0x1204"/>
    </TTGlyph>
    <TTGlyph name="V" xMin="48" yMin="0" xMax="727" yMax="1438">
      <contour>
        <pt x="338" y="0" on="1"/>
        <pt x="312" y="3" on="0"/>
        <pt x="301" y="62" on="1"/>
        <pt x="51" y="1371" on="1"/>
        <pt x="48" y="1388" on="0"/>
        <pt x="48" y="1401" on="1"/>
        <pt x="48" y="1438" on="0"/>
        <pt x="63" y="1438" on="1"/>
        <pt x="176" y="1438" on="1"/>
        <pt x="200" y="1438" on="0"/>
        <pt x="212" y="1374" on="1"/>
        <pt x="405" y="324" on="1"/>
        <pt x="582" y="1374" on="1"/>
        <pt x="593" y="1438" on="0"/>
        <pt x="617" y="1438" on="1"/>
        <pt x="712" y="1438" on="1"/>
        <pt x="727" y="1438" on="0"/>
        <pt x="727" y="1400" on="1"/>
        <pt x="727" y="1381" on="0"/>
        <pt x="725" y="1371" on="1"/>
        <pt x="486" y="62" on="1"/>
        <pt x="476" y="3" on="0"/>
        <pt x="451" y="0" on="1"/>
      </contour>
    </TTGlyph>
    <TTGlyph name="W" xMin="55" yMin="0" xMax="1088" yMax="1438">
      <contour>
        <pt x="278" y="0" on="1"/>
        <pt x="253" y="4" on="0"/>
        <pt x="244" y="68" on="1"/>
        <pt x="58" y="1370" on="1"/>
        <pt x="55" y="1386" on="0"/>
        <pt x="55" y="1400" on="1"/>
        <pt x="55" y="1438" on="0"/>
        <pt x="71" y="1438" on="1"/>
        <pt x="172" y="1438" on="1"/>
        <pt x="198" y="1438" on="0"/>
        <pt x="208" y="1369" on="1"/>
        <pt x="337" y="412" on="1"/>
        <pt x="492" y="1364" on="1"/>
        <pt x="502" y="1424" on="0"/>
        <pt x="529" y="1424" on="1"/>
        <pt x="619" y="1424" on="1"/>
        <pt x="645" y="1422" on="0"/>
        <pt x="656" y="1363" on="1"/>
        <pt x="824" y="387" on="1"/>
        <pt x="950" y="1370" on="1"/>
        <pt x="960" y="1438" on="0"/>
        <pt x="984" y="1438" on="1"/>
        <pt x="1073" y="1438" on="1"/>
        <pt x="1088" y="1438" on="0"/>
        <pt x="1088" y="1400" on="1"/>
        <pt x="1088" y="1386" on="0"/>
        <pt x="1085" y="1370" on="1"/>
        <pt x="907" y="68" on="1"/>
        <pt x="898" y="3" on="0"/>
        <pt x="873" y="0" on="1"/>
        <pt x="777" y="0" on="1"/>
        <pt x="751" y="3" on="0"/>
        <pt x="740" y="69" on="1"/>
        <pt x="564" y="1102" on="1"/>
        <pt x="396" y="68" on="1"/>
        <pt x="386" y="4" on="0"/>
        <pt x="365" y="0" on="1"/>
      </contour>
    </TTGlyph>
    <TTGlyph name="Wacute" xMin="55" yMin="0" xMax="1088" yMax="2016">
      <component glyphName="acute" x="187" y="407" flags="0x1004"/>
      <component glyphName="W" x="0" y="0" flags="0x1204"/>
    </TTGlyph>
    <TTGlyph name="Wcircumflex" xMin="55" yMin="0" xMax="1088" yMax="1880">
      <component glyphName="circumflex" x="418" y="345" flags="0x1004"/>
      <component glyphName="W" x="0" y="0" flags="0x1204"/>
    </TTGlyph>
    <TTGlyph name="Wdieresis" xMin="55" yMin="0" xMax="1088" yMax="1746">
      <component glyphName="dieresis" x="365" y="1575" flags="0x1004"/>
      <component glyphName="W" x="0" y="0" flags="0x1204"/>
    </TTGlyph>
    <TTGlyph name="Wgrave" xMin="55" yMin="0" xMax="1088" yMax="2016">
      <component glyphName="grave" x="116" y="407" flags="0x1004"/>
      <component glyphName="W" x="0" y="0" flags="0x1204"/>
    </TTGlyph>
    <TTGlyph name="X" xMin="54" yMin="0" xMax="752" yMax="1438">
      <contour>
        <pt x="64" y="0" on="1"/>
        <pt x="54" y="0" on="0"/>
        <pt x="54" y="25" on="1"/>
        <pt x="54" y="44" on="0"/>
        <pt x="61" y="60" on="1"/>
        <pt x="316" y="713" on="1"/>
        <pt x="77" y="1376" on="1"/>
        <pt x="69" y="1406" on="0"/>
        <pt x="69" y="1414" on="1"/>
        <pt x="69" y="1438" on="0"/>
        <pt x="80" y="1438" on="1"/>
        <pt x="202" y="1438" on="1"/>
        <pt x="231" y="1438" on="0"/>
        <pt x="248" y="1387" on="1"/>
        <pt x="417" y="893" on="1"/>
        <pt x="597" y="1389" on="1"/>
        <pt x="617" y="1438" on="0"/>
        <pt x="645" y="1438" on="1"/>
        <pt x="726" y="1438" on="1"/>
        <pt x="740" y="1438" on="0"/>
        <pt x="740" y="1412" on="1"/>
        <pt x="740" y="1398" on="0"/>
        <pt x="735" y="1385" on="1"/>
        <pt x="497" y="778" on="1"/>
        <pt x="746" y="62" on="1"/>
        <pt x="752" y="43" on="0"/>
        <pt x="752" y="28" on="1"/>
        <pt x="752" y="0" on="0"/>
        <pt x="738" y="0" on="1"/>
        <pt x="632" y="0" on="1"/>
        <pt x="604" y="0" on="0"/>
        <pt x="587" y="51" on="1"/>
        <pt x="410" y="581" on="1"/>
        <pt x="198" y="49" on="1"/>
        <pt x="178" y="0" on="0"/>
        <pt x="153" y="0" on="1"/>
      </contour>
    </TTGlyph>
    <TTGlyph name="Y" xMin="37" yMin="0" xMax="658" yMax="1438">
      <contour>
        <pt x="293" y="0" on="1"/>
        <pt x="281" y="0" on="0"/>
        <pt x="269" y="22" on="0"/>
        <pt x="269" y="52" on="1"/>
        <pt x="269" y="505" on="1"/>
        <pt x="42" y="1379" on="1"/>
        <pt x="37" y="1396" on="0"/>
        <pt x="37" y="1411" on="1"/>
        <pt x="37" y="1438" on="0"/>
        <pt x="55" y="1438" on="1"/>
        <pt x="158" y="1438" on="1"/>
        <pt x="188" y="1438" on="0"/>
        <pt x="200" y="1390" on="1"/>
        <pt x="358" y="729" on="1"/>
        <pt x="514" y="1389" on="1"/>
        <pt x="519" y="1411" on="0"/>
        <pt x="541" y="1438" on="0"/>
        <pt x="553" y="1438" on="1"/>
        <pt x="640" y="1438" on="1"/>
        <pt x="658" y="1438" on="0"/>
        <pt x="658" y="1409" on="1"/>
        <pt x="658" y="1395" on="0"/>
        <pt x="653" y="1379" on="1"/>
        <pt x="429" y="509" on="1"/>
        <pt x="429" y="52" on="1"/>
        <pt x="429" y="22" on="0"/>
        <pt x="417" y="0" on="0"/>
        <pt x="405" y="0" on="1"/>
      </contour>
    </TTGlyph>
    <TTGlyph name="Yacute" xMin="37" yMin="0" xMax="658" yMax="2016">
      <component glyphName="acute" x="-36" y="407" flags="0x1004"/>
      <component glyphName="Y" x="0" y="0" flags="0x1204"/>
    </TTGlyph>
    <TTGlyph name="Ycircumflex" xMin="37" yMin="0" xMax="658" yMax="1880">
      <component glyphName="circumflex" x="195" y="345" flags="0x1004"/>
      <component glyphName="Y" x="0" y="0" flags="0x1204"/>
    </TTGlyph>
    <TTGlyph name="Ydieresis" xMin="37" yMin="0" xMax="658" yMax="1746">
      <component glyphName="dieresis" x="142" y="1575" flags="0x1004"/>
      <component glyphName="Y" x="0" y="0" flags="0x1204"/>
    </TTGlyph>
    <TTGlyph name="Ygrave" xMin="37" yMin="0" xMax="658" yMax="2016">
      <component glyphName="grave" x="-108" y="407" flags="0x1004"/>
      <component glyphName="Y" x="0" y="0" flags="0x1204"/>
    </TTGlyph>
    <TTGlyph name="Z" xMin="82" yMin="0" xMax="629" yMax="1438">
      <contour>
        <pt x="106" y="0" on="1"/>
        <pt x="98" y="0" on="0"/>
        <pt x="89" y="3" on="0"/>
        <pt x="82" y="20" on="0"/>
        <pt x="82" y="36" on="1"/>
        <pt x="82" y="79" on="1"/>
        <pt x="82" y="100" on="0"/>
        <pt x="95" y="150" on="1"/>
        <pt x="426" y="1270" on="1"/>
        <pt x="430" y="1286" on="0"/>
        <pt x="430" y="1292" on="1"/>
        <pt x="430" y="1310" on="0"/>
        <pt x="421" y="1310" on="1"/>
        <pt x="114" y="1310" on="1"/>
        <pt x="105" y="1310" on="0"/>
        <pt x="96" y="1313" on="0"/>
        <pt x="89" y="1329" on="0"/>
        <pt x="89" y="1346" on="1"/>
        <pt x="89" y="1402" on="1"/>
        <pt x="89" y="1425" on="0"/>
        <pt x="101" y="1438" on="0"/>
        <pt x="114" y="1438" on="1"/>
        <pt x="594" y="1438" on="1"/>
        <pt x="602" y="1438" on="0"/>
        <pt x="611" y="1435" on="0"/>
        <pt x="618" y="1418" on="0"/>
        <pt x="618" y="1402" on="1"/>
        <pt x="618" y="1369" on="1"/>
        <pt x="618" y="1329" on="0"/>
        <pt x="603" y="1274" on="1"/>
        <pt x="274" y="162" on="1"/>
        <pt x="271" y="151" on="0"/>
        <pt x="271" y="142" on="1"/>
        <pt x="271" y="128" on="0"/>
        <pt x="277" y="128" on="1"/>
        <pt x="605" y="128" on="1"/>
        <pt x="606" y="128" on="0"/>
        <pt x="608" y="128" on="1"/>
        <pt x="615" y="128" on="0"/>
        <pt x="622" y="126" on="0"/>
        <pt x="629" y="112" on="0"/>
        <pt x="629" y="97" on="1"/>
        <pt x="629" y="36" on="1"/>
        <pt x="629" y="13" on="0"/>
        <pt x="617" y="0" on="0"/>
        <pt x="605" y="0" on="1"/>
      </contour>
    </TTGlyph>
    <TTGlyph name="Zacute" xMin="82" yMin="0" xMax="629" yMax="2016">
      <component glyphName="acute" x="-28" y="407" flags="0x1004"/>
      <component glyphName="Z" x="0" y="0" flags="0x1204"/>
    </TTGlyph>
    <TTGlyph name="Zcaron" xMin="82" yMin="0" xMax="629" yMax="1880">
      <component glyphName="caron" x="203" y="345" flags="0x1004"/>
      <component glyphName="Z" x="0" y="0" flags="0x1204"/>
    </TTGlyph>
    <TTGlyph name="Zdotaccent" xMin="82" yMin="0" xMax="629" yMax="1791">
      <component glyphName="dotaccent" x="256" y="1508" flags="0x1004"/>
      <component glyphName="Z" x="0" y="0" flags="0x1204"/>
    </TTGlyph>
    <TTGlyph name="a" xMin="76" yMin="-12" xMax="611" yMax="1018">
      <contour>
        <pt x="309" y="95" on="1"/>
        <pt x="388" y="95" on="0"/>
        <pt x="478" y="299" on="0"/>
        <pt x="478" y="448" on="1"/>
        <pt x="478" y="518" on="0"/>
        <pt x="471" y="518" on="1"/>
        <pt x="470" y="518" on="0"/>
        <pt x="429" y="512" on="0"/>
        <pt x="427" y="511" on="1"/>
        <pt x="306" y="484" on="0"/>
        <pt x="201" y="352" on="0"/>
        <pt x="201" y="249" on="1"/>
        <pt x="201" y="95" on="0"/>
      </contour>
      <contour>
        <pt x="282" y="-12" on="1"/>
        <pt x="181" y="-12" on="0"/>
        <pt x="76" y="118" on="0"/>
        <pt x="76" y="238" on="1"/>
        <pt x="76" y="326" on="0"/>
        <pt x="130" y="460" on="0"/>
        <pt x="212" y="531" on="0"/>
        <pt x="312" y="579" on="0"/>
        <pt x="398" y="594" on="0"/>
        <pt x="468" y="608" on="0"/>
        <pt x="475" y="613" on="1"/>
        <pt x="475" y="668" on="1"/>
        <pt x="475" y="784" on="0"/>
        <pt x="424" y="905" on="0"/>
        <pt x="354" y="905" on="1"/>
        <pt x="292" y="905" on="0"/>
        <pt x="233" y="836" on="0"/>
        <pt x="211" y="762" on="1"/>
        <pt x="205" y="745" on="0"/>
        <pt x="193" y="733" on="0"/>
        <pt x="184" y="735" on="1"/>
        <pt x="170" y="738" on="0"/>
        <pt x="101" y="760" on="0"/>
        <pt x="100" y="765" on="1"/>
        <pt x="90" y="775" on="0"/>
        <pt x="101" y="819" on="1"/>
        <pt x="119" y="883" on="0"/>
        <pt x="177" y="967" on="0"/>
        <pt x="284" y="1018" on="0"/>
        <pt x="361" y="1018" on="1"/>
        <pt x="488" y="1018" on="0"/>
        <pt x="611" y="835" on="0"/>
        <pt x="611" y="621" on="1"/>
        <pt x="611" y="49" on="1"/>
        <pt x="611" y="0" on="0"/>
        <pt x="590" y="0" on="1"/>
        <pt x="566" y="0" on="1"/>
        <pt x="550" y="0" on="0"/>
        <pt x="539" y="41" on="1"/>
        <pt x="510" y="163" on="0"/>
        <pt x="508" y="188" on="1"/>
        <pt x="508" y="191" on="0"/>
        <pt x="504" y="194" on="0"/>
        <pt x="501" y="191" on="0"/>
        <pt x="500" y="188" on="1"/>
        <pt x="475" y="91" on="0"/>
        <pt x="372" y="-12" on="0"/>
      </contour>
    </TTGlyph>
    <TTGlyph name="aacute" xMin="76" yMin="-12" xMax="611" yMax="1581">
      <component glyphName="acute" x="-40" y="-28" flags="0x1004"/>
      <component glyphName="a" x="0" y="0" flags="0x1204"/>
    </TTGlyph>
    <TTGlyph name="abreve" xMin="76" yMin="-12" xMax="611" yMax="1326">
      <component glyphName="breve" x="-267" y="-152" flags="0x1004"/>
      <component glyphName="a" x="0" y="0" flags="0x1204"/>
    </TTGlyph>
    <TTGlyph name="acircumflex" xMin="76" yMin="-12" xMax="611" yMax="1445">
      <component glyphName="circumflex" x="190" y="-90" flags="0x1004"/>
      <component glyphName="a" x="0" y="0" flags="0x1204"/>
    </TTGlyph>
    <TTGlyph name="acute" xMin="354" yMin="1168" xMax="485" yMax="1609">
      <contour>
        <pt x="369" y="1168" on="1"/>
        <pt x="354" y="1168" on="0"/>
        <pt x="354" y="1200" on="1"/>
        <pt x="354" y="1221" on="0"/>
        <pt x="355" y="1235" on="1"/>
        <pt x="376" y="1554" on="1"/>
        <pt x="378" y="1586" on="0"/>
        <pt x="390" y="1609" on="0"/>
        <pt x="402" y="1609" on="1"/>
        <pt x="475" y="1609" on="1"/>
        <pt x="485" y="1609" on="0"/>
        <pt x="485" y="1581" on="1"/>
        <pt x="485" y="1568" on="0"/>
        <pt x="481" y="1544" on="1"/>
        <pt x="418" y="1207" on="1"/>
        <pt x="411" y="1168" on="0"/>
        <pt x="399" y="1168" on="1"/>
      </contour>
    </TTGlyph>
    <TTGlyph name="adieresis" xMin="76" yMin="-12" xMax="611" yMax="1311">
      <component glyphName="dieresis" x="138" y="1140" flags="0x1004"/>
      <component glyphName="a" x="0" y="0" flags="0x1204"/>
    </TTGlyph>
    <TTGlyph name="ae" xMin="76" yMin="-12" xMax="961" yMax="1019">
      <contour>
        <pt x="601" y="562" on="1"/>
        <pt x="847" y="562" on="1"/>
        <pt x="849" y="562" on="0"/>
        <pt x="849" y="580" on="1"/>
        <pt x="847" y="660" on="0"/>
        <pt x="832" y="775" on="0"/>
        <pt x="804" y="862" on="0"/>
        <pt x="758" y="906" on="0"/>
        <pt x="725" y="906" on="1"/>
        <pt x="672" y="906" on="0"/>
        <pt x="603" y="762" on="0"/>
        <pt x="598" y="616" on="1"/>
        <pt x="598" y="562" on="0"/>
      </contour>
      <contour>
        <pt x="303" y="92" on="1"/>
        <pt x="356" y="92" on="0"/>
        <pt x="429" y="194" on="0"/>
        <pt x="461" y="350" on="0"/>
        <pt x="461" y="448" on="1"/>
        <pt x="461" y="518" on="0"/>
        <pt x="454" y="518" on="1"/>
        <pt x="453" y="518" on="0"/>
        <pt x="412" y="512" on="0"/>
        <pt x="410" y="511" on="1"/>
        <pt x="199" y="455" on="0"/>
        <pt x="199" y="246" on="1"/>
        <pt x="200" y="171" on="0"/>
        <pt x="248" y="92" on="0"/>
      </contour>
      <contour>
        <pt x="279" y="-12" on="1"/>
        <pt x="179" y="-12" on="0"/>
        <pt x="76" y="117" on="0"/>
        <pt x="76" y="238" on="1"/>
        <pt x="76" y="305" on="0"/>
        <pt x="106" y="415" on="0"/>
        <pt x="155" y="486" on="0"/>
        <pt x="219" y="541" on="0"/>
        <pt x="287" y="569" on="0"/>
        <pt x="355" y="591" on="0"/>
        <pt x="410" y="599" on="0"/>
        <pt x="452" y="608" on="0"/>
        <pt x="458" y="613" on="1"/>
        <pt x="458" y="658" on="1"/>
        <pt x="458" y="716" on="0"/>
        <pt x="450" y="796" on="0"/>
        <pt x="427" y="869" on="0"/>
        <pt x="379" y="905" on="0"/>
        <pt x="343" y="905" on="1"/>
        <pt x="244" y="905" on="0"/>
        <pt x="211" y="762" on="1"/>
        <pt x="206" y="745" on="0"/>
        <pt x="193" y="733" on="0"/>
        <pt x="184" y="735" on="1"/>
        <pt x="172" y="737" on="0"/>
        <pt x="103" y="760" on="0"/>
        <pt x="102" y="764" on="1"/>
        <pt x="89" y="775" on="0"/>
        <pt x="101" y="819" on="1"/>
        <pt x="121" y="899" on="0"/>
        <pt x="244" y="1018" on="0"/>
        <pt x="342" y="1018" on="1"/>
        <pt x="500" y="1018" on="0"/>
        <pt x="542" y="843" on="1"/>
        <pt x="565" y="931" on="0"/>
        <pt x="668" y="1019" on="0"/>
        <pt x="727" y="1019" on="1"/>
        <pt x="839" y="1019" on="0"/>
        <pt x="956" y="806" on="0"/>
        <pt x="961" y="568" on="1"/>
        <pt x="961" y="557" on="0"/>
        <pt x="958" y="520" on="0"/>
        <pt x="943" y="473" on="0"/>
        <pt x="930" y="473" on="1"/>
        <pt x="604" y="473" on="1"/>
        <pt x="597" y="473" on="0"/>
        <pt x="597" y="452" on="1"/>
        <pt x="597" y="102" on="0"/>
        <pt x="743" y="102" on="1"/>
        <pt x="772" y="102" on="0"/>
        <pt x="815" y="127" on="0"/>
        <pt x="837" y="159" on="0"/>
        <pt x="853" y="215" on="0"/>
        <pt x="857" y="249" on="0"/>
        <pt x="859" y="278" on="1"/>
        <pt x="860" y="284" on="0"/>
        <pt x="860" y="287" on="1"/>
        <pt x="863" y="307" on="0"/>
        <pt x="873" y="307" on="1"/>
        <pt x="933" y="307" on="1"/>
        <pt x="949" y="307" on="0"/>
        <pt x="949" y="293" on="1"/>
        <pt x="952" y="278" on="0"/>
        <pt x="952" y="246" on="1"/>
        <pt x="952" y="132" on="0"/>
        <pt x="850" y="-11" on="0"/>
        <pt x="738" y="-11" on="1"/>
        <pt x="662" y="-11" on="0"/>
        <pt x="549" y="111" on="0"/>
        <pt x="522" y="225" on="1"/>
        <pt x="460" y="-12" on="0"/>
      </contour>
    </TTGlyph>
    <TTGlyph name="agrave" xMin="76" yMin="-12" xMax="611" yMax="1581">
      <component glyphName="grave" x="-112" y="-28" flags="0x1004"/>
      <component glyphName="a" x="0" y="0" flags="0x1204"/>
    </TTGlyph>
    <TTGlyph name="amacron" xMin="76" yMin="-12" xMax="611" yMax="1237">
      <component glyphName="uni02C9" x="-56" y="651" flags="0x1004"/>
      <component glyphName="a" x="0" y="0" flags="0x1204"/>
    </TTGlyph>
    <TTGlyph name="ampersand" xMin="117" yMin="-17" xMax="1099" yMax="1459">
      <contour>
        <pt x="492" y="115" on="1"/>
        <pt x="669" y="115" on="0"/>
        <pt x="714" y="264" on="1"/>
        <pt x="715" y="268" on="0"/>
        <pt x="715" y="269" on="1"/>
        <pt x="711" y="660" on="1"/>
        <pt x="711" y="688" on="0"/>
        <pt x="696" y="688" on="1"/>
        <pt x="458" y="688" on="1"/>
        <pt x="385" y="687" on="0"/>
        <pt x="280" y="535" on="0"/>
        <pt x="280" y="407" on="1"/>
        <pt x="280" y="323" on="0"/>
        <pt x="322" y="202" on="0"/>
        <pt x="390" y="142" on="0"/>
        <pt x="458" y="115" on="0"/>
      </contour>
      <contour>
        <pt x="472" y="-16" on="1"/>
        <pt x="395" y="-16" on="0"/>
        <pt x="273" y="28" on="0"/>
        <pt x="173" y="124" on="0"/>
        <pt x="119" y="294" on="0"/>
        <pt x="119" y="411" on="1"/>
        <pt x="119" y="541" on="0"/>
        <pt x="235" y="728" on="0"/>
        <pt x="306" y="750" on="1"/>
        <pt x="233" y="769" on="0"/>
        <pt x="117" y="931" on="0"/>
        <pt x="117" y="1071" on="1"/>
        <pt x="117" y="1268" on="0"/>
        <pt x="283" y="1459" on="0"/>
        <pt x="422" y="1459" on="1"/>
        <pt x="514" y="1459" on="0"/>
        <pt x="564" y="1433" on="1"/>
        <pt x="594" y="1418" on="0"/>
        <pt x="589" y="1386" on="1"/>
        <pt x="585" y="1325" on="1"/>
        <pt x="584" y="1305" on="0"/>
        <pt x="570" y="1292" on="0"/>
        <pt x="558" y="1298" on="1"/>
        <pt x="557" y="1298" on="0"/>
        <pt x="538" y="1306" on="0"/>
        <pt x="519" y="1313" on="0"/>
        <pt x="479" y="1319" on="0"/>
        <pt x="456" y="1319" on="1"/>
        <pt x="383" y="1319" on="0"/>
        <pt x="279" y="1208" on="0"/>
        <pt x="278" y="1079" on="1"/>
        <pt x="278" y="970" on="0"/>
        <pt x="367" y="826" on="0"/>
        <pt x="448" y="826" on="1"/>
        <pt x="696" y="826" on="1"/>
        <pt x="711" y="826" on="0"/>
        <pt x="711" y="856" on="1"/>
        <pt x="716" y="1354" on="1"/>
        <pt x="717" y="1408" on="0"/>
        <pt x="747" y="1408" on="1"/>
        <pt x="843" y="1408" on="1"/>
        <pt x="872" y="1408" on="0"/>
        <pt x="872" y="1354" on="1"/>
        <pt x="872" y="856" on="1"/>
        <pt x="872" y="826" on="0"/>
        <pt x="886" y="826" on="1"/>
        <pt x="1035" y="826" on="1"/>
        <pt x="1066" y="826" on="0"/>
        <pt x="1066" y="775" on="1"/>
        <pt x="1066" y="741" on="1"/>
        <pt x="1066" y="688" on="0"/>
        <pt x="1035" y="688" on="1"/>
        <pt x="886" y="688" on="1"/>
        <pt x="872" y="688" on="0"/>
        <pt x="872" y="659" on="1"/>
        <pt x="872" y="349" on="1"/>
        <pt x="872" y="124" on="0"/>
        <pt x="979" y="124" on="1"/>
        <pt x="1021" y="124" on="0"/>
        <pt x="1065" y="156" on="1"/>
        <pt x="1076" y="164" on="0"/>
        <pt x="1094" y="147" on="0"/>
        <pt x="1096" y="125" on="1"/>
        <pt x="1099" y="81" on="1"/>
        <pt x="1099" y="72" on="1"/>
        <pt x="1099" y="36" on="0"/>
        <pt x="1078" y="21" on="1"/>
        <pt x="1015" y="-17" on="0"/>
        <pt x="954" y="-17" on="1"/>
        <pt x="889" y="-17" on="0"/>
        <pt x="772" y="57" on="0"/>
        <pt x="751" y="127" on="1"/>
        <pt x="735" y="106" on="0"/>
        <pt x="717" y="83" on="0"/>
        <pt x="664" y="34" on="0"/>
        <pt x="611" y="7" on="0"/>
        <pt x="523" y="-16" on="0"/>
      </contour>
    </TTGlyph>
    <TTGlyph name="aogonek" xMin="76" yMin="-338" xMax="651" yMax="1018">
      <component glyphName="ogonek" x="156" y="4" flags="0x1004"/>
      <component glyphName="a" x="0" y="0" flags="0x1004"/>
    </TTGlyph>
    <TTGlyph name="approxequal" xMin="48" yMin="418" xMax="768" yMax="962">
      <contour>
        <pt x="723" y="962" on="1"/>
        <pt x="736" y="962" on="0"/>
        <pt x="768" y="937" on="0"/>
        <pt x="768" y="924" on="1"/>
        <pt x="768" y="916" on="1"/>
        <pt x="768" y="899" on="0"/>
        <pt x="757" y="882" on="1"/>
        <pt x="716" y="802" on="0"/>
        <pt x="690" y="774" on="1"/>
        <pt x="642" y="724" on="0"/>
        <pt x="563" y="724" on="1"/>
        <pt x="510" y="724" on="0"/>
        <pt x="377" y="782" on="0"/>
        <pt x="257" y="840" on="0"/>
        <pt x="219" y="840" on="1"/>
        <pt x="204" y="840" on="0"/>
        <pt x="181" y="834" on="0"/>
        <pt x="159" y="814" on="0"/>
        <pt x="149" y="804" on="0"/>
        <pt x="124" y="769" on="0"/>
        <pt x="120" y="764" on="1"/>
        <pt x="107" y="741" on="0"/>
        <pt x="89" y="744" on="1"/>
        <pt x="63" y="746" on="0"/>
        <pt x="48" y="764" on="0"/>
        <pt x="48" y="790" on="1"/>
        <pt x="48" y="807" on="0"/>
        <pt x="55" y="818" on="1"/>
        <pt x="80" y="862" on="0"/>
        <pt x="106" y="901" on="0"/>
        <pt x="150" y="946" on="0"/>
        <pt x="199" y="962" on="0"/>
        <pt x="233" y="962" on="1"/>
        <pt x="278" y="962" on="0"/>
        <pt x="529" y="848" on="0"/>
        <pt x="567" y="848" on="1"/>
        <pt x="610" y="848" on="0"/>
        <pt x="660" y="882" on="0"/>
        <pt x="698" y="942" on="1"/>
        <pt x="698" y="943" on="0"/>
        <pt x="702" y="949" on="0"/>
        <pt x="703" y="952" on="0"/>
        <pt x="708" y="957" on="0"/>
        <pt x="712" y="960" on="0"/>
        <pt x="719" y="962" on="0"/>
      </contour>
      <contour>
        <pt x="723" y="656" on="1"/>
        <pt x="737" y="656" on="0"/>
        <pt x="768" y="632" on="0"/>
        <pt x="768" y="619" on="1"/>
        <pt x="768" y="610" on="1"/>
        <pt x="768" y="594" on="0"/>
        <pt x="757" y="577" on="1"/>
        <pt x="741" y="546" on="0"/>
        <pt x="731" y="527" on="0"/>
        <pt x="700" y="476" on="0"/>
        <pt x="677" y="457" on="0"/>
        <pt x="638" y="428" on="0"/>
        <pt x="592" y="418" on="0"/>
        <pt x="563" y="418" on="1"/>
        <pt x="510" y="418" on="0"/>
        <pt x="377" y="476" on="0"/>
        <pt x="257" y="534" on="0"/>
        <pt x="219" y="534" on="1"/>
        <pt x="204" y="534" on="0"/>
        <pt x="181" y="528" on="0"/>
        <pt x="159" y="508" on="0"/>
        <pt x="149" y="498" on="0"/>
        <pt x="124" y="463" on="0"/>
        <pt x="120" y="458" on="1"/>
        <pt x="107" y="435" on="0"/>
        <pt x="89" y="438" on="1"/>
        <pt x="63" y="440" on="0"/>
        <pt x="48" y="459" on="0"/>
        <pt x="48" y="485" on="1"/>
        <pt x="48" y="501" on="0"/>
        <pt x="55" y="512" on="1"/>
        <pt x="81" y="556" on="0"/>
        <pt x="106" y="595" on="0"/>
        <pt x="150" y="641" on="0"/>
        <pt x="199" y="657" on="0"/>
        <pt x="233" y="657" on="1"/>
        <pt x="278" y="657" on="0"/>
        <pt x="529" y="542" on="0"/>
        <pt x="567" y="542" on="1"/>
        <pt x="610" y="542" on="0"/>
        <pt x="660" y="576" on="0"/>
        <pt x="698" y="636" on="1"/>
        <pt x="698" y="637" on="0"/>
        <pt x="702" y="643" on="0"/>
        <pt x="703" y="646" on="0"/>
        <pt x="708" y="651" on="0"/>
        <pt x="712" y="654" on="0"/>
        <pt x="719" y="656" on="0"/>
      </contour>
    </TTGlyph>
    <TTGlyph name="aring" xMin="76" yMin="-12" xMax="611" yMax="1503">
      <component glyphName="ring" x="-194" y="300" flags="0x1004"/>
      <component glyphName="a" x="0" y="0" flags="0x1204"/>
    </TTGlyph>
    <TTGlyph name="asciicircum" xMin="94" yMin="305" xMax="937" yMax="1311">
      <contour>
        <pt x="122" y="305" on="1"/>
        <pt x="94" y="305" on="0"/>
        <pt x="94" y="334" on="1"/>
        <pt x="94" y="351" on="0"/>
        <pt x="102" y="372" on="1"/>
        <pt x="413" y="1244" on="1"/>
        <pt x="427" y="1280" on="0"/>
        <pt x="459" y="1311" on="0"/>
        <pt x="492" y="1311" on="1"/>
        <pt x="535" y="1311" on="1"/>
        <pt x="567" y="1311" on="0"/>
        <pt x="596" y="1281" on="0"/>
        <pt x="612" y="1243" on="1"/>
        <pt x="929" y="373" on="1"/>
        <pt x="937" y="349" on="0"/>
        <pt x="937" y="336" on="1"/>
        <pt x="937" y="305" on="0"/>
        <pt x="908" y="305" on="1"/>
        <pt x="850" y="305" on="1"/>
        <pt x="830" y="305" on="0"/>
        <pt x="803" y="334" on="0"/>
        <pt x="790" y="374" on="1"/>
        <pt x="534" y="1098" on="1"/>
        <pt x="528" y="1117" on="0"/>
        <pt x="520" y="1129" on="0"/>
        <pt x="506" y="1129" on="0"/>
        <pt x="498" y="1117" on="0"/>
        <pt x="492" y="1098" on="1"/>
        <pt x="245" y="374" on="1"/>
        <pt x="231" y="332" on="0"/>
        <pt x="206" y="305" on="0"/>
        <pt x="179" y="305" on="1"/>
      </contour>
    </TTGlyph>
    <TTGlyph name="asciitilde" xMin="48" yMin="418" xMax="768" yMax="657">
      <contour>
        <pt x="48" y="619" on="1"/>
        <pt x="48" y="632" on="0"/>
        <pt x="79" y="656" on="0"/>
        <pt x="93" y="656" on="1"/>
        <pt x="98" y="656" on="0"/>
        <pt x="105" y="654" on="0"/>
        <pt x="111" y="648" on="0"/>
        <pt x="113" y="645" on="0"/>
        <pt x="116" y="640" on="1"/>
        <pt x="118" y="636" on="1"/>
        <pt x="156" y="576" on="0"/>
        <pt x="206" y="542" on="0"/>
        <pt x="249" y="542" on="1"/>
        <pt x="287" y="542" on="0"/>
        <pt x="538" y="657" on="0"/>
        <pt x="583" y="657" on="1"/>
        <pt x="617" y="657" on="0"/>
        <pt x="666" y="641" on="0"/>
        <pt x="710" y="595" on="0"/>
        <pt x="735" y="556" on="0"/>
        <pt x="761" y="512" on="1"/>
        <pt x="768" y="501" on="0"/>
        <pt x="768" y="485" on="1"/>
        <pt x="768" y="459" on="0"/>
        <pt x="753" y="440" on="0"/>
        <pt x="727" y="438" on="1"/>
        <pt x="709" y="435" on="0"/>
        <pt x="696" y="458" on="1"/>
        <pt x="692" y="463" on="0"/>
        <pt x="667" y="498" on="0"/>
        <pt x="657" y="508" on="0"/>
        <pt x="635" y="528" on="0"/>
        <pt x="612" y="534" on="0"/>
        <pt x="597" y="534" on="1"/>
        <pt x="559" y="534" on="0"/>
        <pt x="439" y="476" on="0"/>
        <pt x="306" y="418" on="0"/>
        <pt x="253" y="418" on="1"/>
        <pt x="224" y="418" on="0"/>
        <pt x="178" y="428" on="0"/>
        <pt x="139" y="457" on="0"/>
        <pt x="116" y="476" on="0"/>
        <pt x="85" y="527" on="0"/>
        <pt x="75" y="546" on="0"/>
        <pt x="59" y="577" on="1"/>
        <pt x="48" y="594" on="0"/>
        <pt x="48" y="610" on="1"/>
      </contour>
    </TTGlyph>
    <TTGlyph name="asterisk" xMin="99" yMin="422" xMax="604" yMax="1046">
      <contour>
        <pt x="247" y="422" on="1"/>
        <pt x="225" y="422" on="0"/>
        <pt x="184" y="443" on="0"/>
        <pt x="184" y="460" on="1"/>
        <pt x="184" y="478" on="0"/>
        <pt x="222" y="553" on="0"/>
        <pt x="262" y="614" on="0"/>
        <pt x="318" y="694" on="0"/>
        <pt x="321" y="698" on="1"/>
        <pt x="135" y="753" on="1"/>
        <pt x="119" y="758" on="0"/>
        <pt x="99" y="791" on="0"/>
        <pt x="99" y="813" on="1"/>
        <pt x="99" y="839" on="0"/>
        <pt x="122" y="878" on="0"/>
        <pt x="141" y="878" on="1"/>
        <pt x="154" y="878" on="0"/>
        <pt x="234" y="822" on="0"/>
        <pt x="326" y="750" on="0"/>
        <pt x="336" y="743" on="1"/>
        <pt x="333" y="768" on="0"/>
        <pt x="317" y="877" on="0"/>
        <pt x="309" y="958" on="0"/>
        <pt x="309" y="997" on="1"/>
        <pt x="309" y="1021" on="0"/>
        <pt x="335" y="1046" on="0"/>
        <pt x="355" y="1046" on="1"/>
        <pt x="400" y="1046" on="0"/>
        <pt x="400" y="1001" on="1"/>
        <pt x="379" y="743" on="1"/>
        <pt x="537" y="843" on="1"/>
        <pt x="547" y="848" on="0"/>
        <pt x="555" y="848" on="1"/>
        <pt x="575" y="848" on="0"/>
        <pt x="604" y="812" on="0"/>
        <pt x="604" y="790" on="1"/>
        <pt x="604" y="753" on="0"/>
        <pt x="564" y="743" on="1"/>
        <pt x="388" y="698" on="1"/>
        <pt x="524" y="548" on="0"/>
        <pt x="549" y="517" on="1"/>
        <pt x="558" y="506" on="0"/>
        <pt x="558" y="494" on="1"/>
        <pt x="558" y="476" on="0"/>
        <pt x="525" y="447" on="0"/>
        <pt x="506" y="447" on="1"/>
        <pt x="485" y="447" on="0"/>
        <pt x="472" y="467" on="1"/>
        <pt x="353" y="667" on="1"/>
        <pt x="269" y="431" on="1"/>
        <pt x="266" y="422" on="0"/>
      </contour>
    </TTGlyph>
    <TTGlyph name="at" xMin="80" yMin="-141" xMax="1251" yMax="1495">
      <contour>
        <pt x="659" y="319" on="1"/>
        <pt x="744" y="319" on="0"/>
        <pt x="851" y="491" on="0"/>
        <pt x="851" y="652" on="1"/>
        <pt x="851" y="811" on="0"/>
        <pt x="745" y="988" on="0"/>
        <pt x="661" y="988" on="1"/>
        <pt x="571" y="988" on="0"/>
        <pt x="476" y="815" on="0"/>
        <pt x="476" y="654" on="1"/>
        <pt x="476" y="491" on="0"/>
        <pt x="570" y="319" on="0"/>
      </contour>
      <contour>
        <pt x="688" y="-141" on="1"/>
        <pt x="561" y="-141" on="0"/>
        <pt x="356" y="-56" on="0"/>
        <pt x="217" y="93" on="0"/>
        <pt x="123" y="301" on="0"/>
        <pt x="80" y="539" on="0"/>
        <pt x="80" y="674" on="1"/>
        <pt x="80" y="786" on="0"/>
        <pt x="109" y="988" on="0"/>
        <pt x="168" y="1174" on="0"/>
        <pt x="264" y="1324" on="0"/>
        <pt x="393" y="1435" on="0"/>
        <pt x="568" y="1495" on="0"/>
        <pt x="672" y="1495" on="1"/>
        <pt x="805" y="1495" on="0"/>
        <pt x="1008" y="1412" on="0"/>
        <pt x="1137" y="1270" on="0"/>
        <pt x="1218" y="1063" on="0"/>
        <pt x="1251" y="836" on="0"/>
        <pt x="1251" y="699" on="1"/>
        <pt x="1251" y="463" on="0"/>
        <pt x="1138" y="233" on="0"/>
        <pt x="1051" y="233" on="1"/>
        <pt x="922" y="233" on="0"/>
        <pt x="907" y="427" on="1"/>
        <pt x="903" y="464" on="0"/>
        <pt x="897" y="464" on="1"/>
        <pt x="893" y="464" on="0"/>
        <pt x="886" y="434" on="1"/>
        <pt x="854" y="327" on="0"/>
        <pt x="737" y="217" on="0"/>
        <pt x="643" y="217" on="1"/>
        <pt x="519" y="217" on="0"/>
        <pt x="363" y="442" on="0"/>
        <pt x="363" y="660" on="1"/>
        <pt x="363" y="873" on="0"/>
        <pt x="517" y="1097" on="0"/>
        <pt x="639" y="1097" on="1"/>
        <pt x="729" y="1097" on="0"/>
        <pt x="850" y="979" on="0"/>
        <pt x="876" y="874" on="1"/>
        <pt x="877" y="869" on="0"/>
        <pt x="882" y="857" on="0"/>
        <pt x="884" y="857" on="1"/>
        <pt x="887" y="857" on="0"/>
        <pt x="889" y="870" on="1"/>
        <pt x="901" y="1004" on="1"/>
        <pt x="905" y="1030" on="0"/>
        <pt x="922" y="1051" on="0"/>
        <pt x="938" y="1051" on="1"/>
        <pt x="946" y="1051" on="1"/>
        <pt x="959" y="1051" on="0"/>
        <pt x="975" y="1022" on="0"/>
        <pt x="975" y="998" on="1"/>
        <pt x="975" y="495" on="1"/>
        <pt x="975" y="394" on="0"/>
        <pt x="1012" y="322" on="0"/>
        <pt x="1050" y="322" on="1"/>
        <pt x="1142" y="322" on="0"/>
        <pt x="1142" y="699" on="1"/>
        <pt x="1142" y="822" on="0"/>
        <pt x="1116" y="1021" on="0"/>
        <pt x="1051" y="1200" on="0"/>
        <pt x="947" y="1321" on="0"/>
        <pt x="783" y="1391" on="0"/>
        <pt x="675" y="1391" on="1"/>
        <pt x="572" y="1391" on="0"/>
        <pt x="406" y="1309" on="0"/>
        <pt x="298" y="1173" on="0"/>
        <pt x="226" y="985" on="0"/>
        <pt x="195" y="782" on="0"/>
        <pt x="195" y="558" on="0"/>
        <pt x="223" y="361" on="0"/>
        <pt x="295" y="172" on="0"/>
        <pt x="406" y="38" on="0"/>
        <pt x="583" y="-44" on="0"/>
        <pt x="697" y="-44" on="1"/>
        <pt x="820" y="-44" on="0"/>
        <pt x="948" y="20" on="1"/>
        <pt x="950" y="20" on="1"/>
        <pt x="959" y="20" on="0"/>
        <pt x="983" y="-34" on="0"/>
        <pt x="983" y="-53" on="1"/>
        <pt x="983" y="-64" on="0"/>
        <pt x="978" y="-67" on="1"/>
        <pt x="923" y="-98" on="0"/>
        <pt x="763" y="-141" on="0"/>
      </contour>
    </TTGlyph>
    <TTGlyph name="atilde" xMin="76" yMin="-12" xMax="611" yMax="1303">
      <component glyphName="tilde" x="30" y="329" flags="0x1004"/>
      <component glyphName="a" x="0" y="0" flags="0x1204"/>
    </TTGlyph>
    <TTGlyph name="b" xMin="101" yMin="-11" xMax="662" yMax="1438">
      <contour>
        <pt x="321" y="102" on="0"/>
        <pt x="449" y="102" on="0"/>
        <pt x="522" y="300" on="0"/>
        <pt x="522" y="509" on="1"/>
        <pt x="522" y="706" on="0"/>
        <pt x="449" y="905" on="0"/>
        <pt x="387" y="905" on="1"/>
        <pt x="324" y="905" on="0"/>
        <pt x="237" y="685" on="0"/>
        <pt x="237" y="509" on="1"/>
        <pt x="237" y="335" on="0"/>
      </contour>
      <contour>
        <pt x="412" y="-11" on="1"/>
        <pt x="257" y="-11" on="0"/>
        <pt x="199" y="200" on="1"/>
        <pt x="197" y="205" on="0"/>
        <pt x="195" y="205" on="1"/>
        <pt x="191" y="205" on="0"/>
        <pt x="178" y="102" on="0"/>
        <pt x="156" y="0" on="0"/>
        <pt x="141" y="0" on="1"/>
        <pt x="121" y="0" on="1"/>
        <pt x="101" y="0" on="0"/>
        <pt x="101" y="59" on="1"/>
        <pt x="101" y="1367" on="1"/>
        <pt x="101" y="1438" on="0"/>
        <pt x="126" y="1438" on="1"/>
        <pt x="213" y="1438" on="1"/>
        <pt x="224" y="1438" on="0"/>
        <pt x="237" y="1399" on="0"/>
        <pt x="237" y="1367" on="1"/>
        <pt x="237" y="867" on="1"/>
        <pt x="237" y="854" on="0"/>
        <pt x="241" y="854" on="1"/>
        <pt x="246" y="859" on="1"/>
        <pt x="275" y="938" on="0"/>
        <pt x="370" y="1018" on="0"/>
        <pt x="425" y="1018" on="1"/>
        <pt x="473" y="1018" on="0"/>
        <pt x="553" y="967" on="0"/>
        <pt x="622" y="854" on="0"/>
        <pt x="662" y="645" on="0"/>
        <pt x="662" y="501" on="1"/>
        <pt x="662" y="390" on="0"/>
        <pt x="633" y="213" on="0"/>
        <pt x="584" y="98" on="0"/>
        <pt x="518" y="21" on="0"/>
        <pt x="449" y="-11" on="0"/>
      </contour>
    </TTGlyph>
    <TTGlyph name="backslash" xMin="98" yMin="-206" xMax="471" yMax="1647">
      <contour>
        <pt x="349" y="-206" on="1"/>
        <pt x="337" y="-206" on="0"/>
        <pt x="332" y="-171" on="1"/>
        <pt x="99" y="1612" on="1"/>
        <pt x="99" y="1614" on="0"/>
        <pt x="98" y="1622" on="0"/>
        <pt x="98" y="1623" on="1"/>
        <pt x="98" y="1647" on="0"/>
        <pt x="106" y="1647" on="1"/>
        <pt x="220" y="1647" on="1"/>
        <pt x="231" y="1647" on="0"/>
        <pt x="236" y="1612" on="1"/>
        <pt x="470" y="-170" on="1"/>
        <pt x="470" y="-172" on="0"/>
        <pt x="471" y="-178" on="0"/>
        <pt x="471" y="-179" on="1"/>
        <pt x="471" y="-205" on="0"/>
        <pt x="463" y="-205" on="1"/>
      </contour>
    </TTGlyph>
    <TTGlyph name="bar" xMin="112" yMin="-150" xMax="200" yMax="1555">
      <contour>
        <pt x="140" y="-150" on="1"/>
        <pt x="112" y="-150" on="0"/>
        <pt x="112" y="-84" on="1"/>
        <pt x="112" y="1489" on="1"/>
        <pt x="112" y="1555" on="0"/>
        <pt x="140" y="1555" on="1"/>
        <pt x="174" y="1555" on="1"/>
        <pt x="200" y="1555" on="0"/>
        <pt x="200" y="1489" on="1"/>
        <pt x="200" y="-84" on="1"/>
        <pt x="200" y="-150" on="0"/>
        <pt x="174" y="-150" on="1"/>
      </contour>
    </TTGlyph>
    <TTGlyph name="braceleft" xMin="95" yMin="-91" xMax="438" yMax="1543">
      <contour>
        <pt x="411" y="1543" on="1"/>
        <pt x="423" y="1543" on="0"/>
        <pt x="438" y="1515" on="0"/>
        <pt x="438" y="1492" on="1"/>
        <pt x="438" y="1468" on="1"/>
        <pt x="438" y="1440" on="0"/>
        <pt x="419" y="1416" on="0"/>
        <pt x="394" y="1416" on="1"/>
        <pt x="358" y="1416" on="0"/>
        <pt x="342" y="1335" on="0"/>
        <pt x="341" y="1158" on="1"/>
        <pt x="341" y="976" on="1"/>
        <pt x="341" y="861" on="0"/>
        <pt x="314" y="747" on="0"/>
        <pt x="273" y="734" on="1"/>
        <pt x="270" y="733" on="0"/>
        <pt x="269" y="722" on="0"/>
        <pt x="273" y="720" on="1"/>
        <pt x="314" y="707" on="0"/>
        <pt x="339" y="601" on="0"/>
        <pt x="339" y="491" on="1"/>
        <pt x="339" y="310" on="1"/>
        <pt x="340" y="124" on="0"/>
        <pt x="356" y="36" on="0"/>
        <pt x="394" y="36" on="1"/>
        <pt x="419" y="36" on="0"/>
        <pt x="438" y="12" on="0"/>
        <pt x="438" y="-16" on="1"/>
        <pt x="438" y="-40" on="1"/>
        <pt x="438" y="-63" on="0"/>
        <pt x="423" y="-91" on="0"/>
        <pt x="411" y="-91" on="1"/>
        <pt x="341" y="-91" on="1"/>
        <pt x="289" y="-91" on="0"/>
        <pt x="234" y="-31" on="0"/>
        <pt x="205" y="135" on="0"/>
        <pt x="204" y="291" on="1"/>
        <pt x="204" y="453" on="1"/>
        <pt x="203" y="565" on="0"/>
        <pt x="178" y="641" on="0"/>
        <pt x="143" y="642" on="1"/>
        <pt x="115" y="642" on="0"/>
        <pt x="95" y="668" on="0"/>
        <pt x="95" y="708" on="1"/>
        <pt x="95" y="748" on="1"/>
        <pt x="95" y="784" on="0"/>
        <pt x="115" y="806" on="0"/>
        <pt x="143" y="807" on="1"/>
        <pt x="167" y="808" on="0"/>
        <pt x="192" y="847" on="0"/>
        <pt x="203" y="928" on="0"/>
        <pt x="204" y="1004" on="1"/>
        <pt x="204" y="1173" on="1"/>
        <pt x="205" y="1329" on="0"/>
        <pt x="235" y="1490" on="0"/>
        <pt x="290" y="1543" on="0"/>
        <pt x="341" y="1543" on="1"/>
      </contour>
    </TTGlyph>
    <TTGlyph name="braceright" xMin="95" yMin="-91" xMax="438" yMax="1543">
      <contour>
        <pt x="121" y="-91" on="1"/>
        <pt x="110" y="-91" on="0"/>
        <pt x="95" y="-63" on="0"/>
        <pt x="95" y="-40" on="1"/>
        <pt x="95" y="-16" on="1"/>
        <pt x="95" y="12" on="0"/>
        <pt x="113" y="36" on="0"/>
        <pt x="138" y="36" on="1"/>
        <pt x="175" y="36" on="0"/>
        <pt x="190" y="115" on="0"/>
        <pt x="191" y="294" on="1"/>
        <pt x="191" y="476" on="1"/>
        <pt x="192" y="592" on="0"/>
        <pt x="218" y="705" on="0"/>
        <pt x="259" y="718" on="1"/>
        <pt x="263" y="719" on="0"/>
        <pt x="263" y="730" on="0"/>
        <pt x="259" y="732" on="1"/>
        <pt x="219" y="745" on="0"/>
        <pt x="194" y="851" on="0"/>
        <pt x="193" y="961" on="1"/>
        <pt x="193" y="1142" on="1"/>
        <pt x="193" y="1327" on="0"/>
        <pt x="176" y="1416" on="0"/>
        <pt x="138" y="1416" on="1"/>
        <pt x="113" y="1416" on="0"/>
        <pt x="95" y="1440" on="0"/>
        <pt x="95" y="1468" on="1"/>
        <pt x="95" y="1492" on="1"/>
        <pt x="95" y="1515" on="0"/>
        <pt x="110" y="1543" on="0"/>
        <pt x="121" y="1543" on="1"/>
        <pt x="191" y="1543" on="1"/>
        <pt x="243" y="1543" on="0"/>
        <pt x="299" y="1482" on="0"/>
        <pt x="327" y="1318" on="0"/>
        <pt x="328" y="1161" on="1"/>
        <pt x="328" y="999" on="1"/>
        <pt x="329" y="887" on="0"/>
        <pt x="355" y="811" on="0"/>
        <pt x="390" y="810" on="1"/>
        <pt x="418" y="810" on="0"/>
        <pt x="438" y="784" on="0"/>
        <pt x="438" y="744" on="1"/>
        <pt x="438" y="704" on="1"/>
        <pt x="438" y="668" on="0"/>
        <pt x="417" y="646" on="0"/>
        <pt x="390" y="645" on="1"/>
        <pt x="355" y="644" on="0"/>
        <pt x="331" y="560" on="0"/>
        <pt x="329" y="447" on="1"/>
        <pt x="328" y="440" on="0"/>
        <pt x="328" y="279" on="1"/>
        <pt x="327" y="124" on="0"/>
        <pt x="297" y="-38" on="0"/>
        <pt x="242" y="-91" on="0"/>
        <pt x="191" y="-91" on="1"/>
      </contour>
    </TTGlyph>
    <TTGlyph name="bracketleft" xMin="112" yMin="-104" xMax="440" yMax="1481">
      <contour>
        <pt x="139" y="-104" on="1"/>
        <pt x="112" y="-104" on="0"/>
        <pt x="112" y="-41" on="1"/>
        <pt x="112" y="1418" on="1"/>
        <pt x="112" y="1481" on="0"/>
        <pt x="139" y="1481" on="1"/>
        <pt x="415" y="1481" on="1"/>
        <pt x="440" y="1481" on="0"/>
        <pt x="440" y="1429" on="1"/>
        <pt x="440" y="1351" on="1"/>
        <pt x="440" y="1299" on="0"/>
        <pt x="415" y="1299" on="1"/>
        <pt x="284" y="1299" on="1"/>
        <pt x="273" y="1299" on="0"/>
        <pt x="273" y="1267" on="1"/>
        <pt x="273" y="103" on="1"/>
        <pt x="273" y="72" on="0"/>
        <pt x="284" y="72" on="1"/>
        <pt x="415" y="72" on="1"/>
        <pt x="440" y="72" on="0"/>
        <pt x="440" y="14" on="1"/>
        <pt x="440" y="-52" on="1"/>
        <pt x="440" y="-104" on="0"/>
        <pt x="415" y="-104" on="1"/>
      </contour>
    </TTGlyph>
    <TTGlyph name="bracketright" xMin="112" yMin="-104" xMax="440" yMax="1481">
      <contour>
        <pt x="413" y="1481" on="1"/>
        <pt x="440" y="1481" on="0"/>
        <pt x="440" y="1418" on="1"/>
        <pt x="440" y="-41" on="1"/>
        <pt x="440" y="-104" on="0"/>
        <pt x="413" y="-104" on="1"/>
        <pt x="137" y="-104" on="1"/>
        <pt x="112" y="-104" on="0"/>
        <pt x="112" y="-52" on="1"/>
        <pt x="112" y="26" on="1"/>
        <pt x="112" y="78" on="0"/>
        <pt x="137" y="78" on="1"/>
        <pt x="268" y="78" on="1"/>
        <pt x="279" y="78" on="0"/>
        <pt x="279" y="110" on="1"/>
        <pt x="279" y="1274" on="1"/>
        <pt x="279" y="1305" on="0"/>
        <pt x="268" y="1305" on="1"/>
        <pt x="137" y="1305" on="1"/>
        <pt x="112" y="1305" on="0"/>
        <pt x="112" y="1363" on="1"/>
        <pt x="112" y="1429" on="1"/>
        <pt x="112" y="1481" on="0"/>
        <pt x="137" y="1481" on="1"/>
      </contour>
    </TTGlyph>
    <TTGlyph name="breve" xMin="425" yMin="1292" xMax="796" yMax="1478">
      <contour>
        <pt x="609" y="1292" on="1"/>
        <pt x="533" y="1292" on="0"/>
        <pt x="425" y="1387" on="0"/>
        <pt x="425" y="1478" on="1"/>
        <pt x="503" y="1478" on="1"/>
        <pt x="503" y="1429" on="0"/>
        <pt x="566" y="1380" on="0"/>
        <pt x="656" y="1380" on="0"/>
        <pt x="719" y="1429" on="0"/>
        <pt x="719" y="1478" on="1"/>
        <pt x="796" y="1478" on="1"/>
        <pt x="795" y="1387" on="0"/>
        <pt x="686" y="1292" on="0"/>
      </contour>
    </TTGlyph>
    <TTGlyph name="brokenbar" xMin="157" yMin="-108" xMax="249" yMax="1535">
      <contour>
        <pt x="181" y="843" on="1"/>
        <pt x="157" y="843" on="0"/>
        <pt x="157" y="899" on="1"/>
        <pt x="157" y="1479" on="1"/>
        <pt x="157" y="1535" on="0"/>
        <pt x="181" y="1535" on="1"/>
        <pt x="224" y="1535" on="1"/>
        <pt x="249" y="1535" on="0"/>
        <pt x="249" y="1479" on="1"/>
        <pt x="249" y="899" on="1"/>
        <pt x="249" y="843" on="0"/>
        <pt x="224" y="843" on="1"/>
      </contour>
      <contour>
        <pt x="181" y="-108" on="1"/>
        <pt x="157" y="-108" on="0"/>
        <pt x="157" y="-52" on="1"/>
        <pt x="157" y="525" on="1"/>
        <pt x="157" y="581" on="0"/>
        <pt x="181" y="581" on="1"/>
        <pt x="224" y="581" on="1"/>
        <pt x="249" y="581" on="0"/>
        <pt x="249" y="525" on="1"/>
        <pt x="249" y="-52" on="1"/>
        <pt x="249" y="-108" on="0"/>
        <pt x="224" y="-108" on="1"/>
      </contour>
    </TTGlyph>
    <TTGlyph name="bullet" xMin="211" yMin="655" xMax="904" yMax="1352">
      <contour>
        <pt x="648" y="655" on="0"/>
        <pt x="468" y="655" on="0"/>
        <pt x="329" y="717" on="0"/>
        <pt x="250" y="820" on="0"/>
        <pt x="211" y="938" on="0"/>
        <pt x="211" y="1001" on="1"/>
        <pt x="211" y="1068" on="0"/>
        <pt x="250" y="1188" on="0"/>
        <pt x="329" y="1291" on="0"/>
        <pt x="467" y="1352" on="0"/>
        <pt x="649" y="1352" on="0"/>
        <pt x="787" y="1291" on="0"/>
        <pt x="865" y="1188" on="0"/>
        <pt x="904" y="1068" on="0"/>
        <pt x="904" y="1001" on="1"/>
        <pt x="904" y="938" on="0"/>
        <pt x="865" y="820" on="0"/>
        <pt x="787" y="717" on="0"/>
      </contour>
    </TTGlyph>
    <TTGlyph name="c" xMin="81" yMin="-11" xMax="502" yMax="1018">
      <contour>
        <pt x="376" y="-11" on="1"/>
        <pt x="372" y="-11" on="1"/>
        <pt x="339" y="-11" on="0"/>
        <pt x="285" y="-2" on="0"/>
        <pt x="223" y="25" on="0"/>
        <pt x="175" y="70" on="0"/>
        <pt x="129" y="149" on="0"/>
        <pt x="99" y="256" on="0"/>
        <pt x="81" y="411" on="0"/>
        <pt x="81" y="508" on="1"/>
        <pt x="81" y="637" on="0"/>
        <pt x="115" y="827" on="0"/>
        <pt x="167" y="935" on="0"/>
        <pt x="246" y="999" on="0"/>
        <pt x="318" y="1018" on="0"/>
        <pt x="364" y="1018" on="1"/>
        <pt x="431" y="1018" on="0"/>
        <pt x="490" y="996" on="1"/>
        <pt x="493" y="996" on="0"/>
        <pt x="501" y="986" on="0"/>
        <pt x="501" y="983" on="1"/>
        <pt x="501" y="897" on="1"/>
        <pt x="501" y="892" on="0"/>
        <pt x="493" y="882" on="0"/>
        <pt x="490" y="883" on="1"/>
        <pt x="432" y="901" on="0"/>
        <pt x="396" y="901" on="1"/>
        <pt x="366" y="901" on="0"/>
        <pt x="326" y="891" on="0"/>
        <pt x="276" y="847" on="0"/>
        <pt x="246" y="766" on="0"/>
        <pt x="225" y="615" on="0"/>
        <pt x="225" y="508" on="1"/>
        <pt x="225" y="400" on="0"/>
        <pt x="244" y="248" on="0"/>
        <pt x="273" y="164" on="0"/>
        <pt x="322" y="118" on="0"/>
        <pt x="365" y="107" on="0"/>
        <pt x="397" y="107" on="1"/>
        <pt x="437" y="107" on="0"/>
        <pt x="490" y="124" on="1"/>
        <pt x="493" y="123" on="0"/>
        <pt x="502" y="110" on="0"/>
        <pt x="502" y="106" on="1"/>
        <pt x="502" y="26" on="1"/>
        <pt x="502" y="22" on="0"/>
        <pt x="493" y="9" on="0"/>
        <pt x="490" y="8" on="1"/>
        <pt x="438" y="-11" on="0"/>
      </contour>
    </TTGlyph>
    <TTGlyph name="cacute" xMin="81" yMin="-11" xMax="502" yMax="1581">
      <component glyphName="acute" x="-92" y="-28" flags="0x1004"/>
      <component glyphName="c" x="0" y="0" flags="0x1204"/>
    </TTGlyph>
    <TTGlyph name="caron" xMin="18" yMin="1230" xMax="286" yMax="1535">
      <contour>
        <pt x="141" y="1230" on="1"/>
        <pt x="114" y="1230" on="0"/>
        <pt x="89" y="1303" on="1"/>
        <pt x="22" y="1483" on="1"/>
        <pt x="18" y="1497" on="0"/>
        <pt x="18" y="1506" on="1"/>
        <pt x="18" y="1521" on="0"/>
        <pt x="29" y="1522" on="1"/>
        <pt x="29" y="1527" on="0"/>
        <pt x="52" y="1535" on="0"/>
        <pt x="61" y="1535" on="1"/>
        <pt x="79" y="1535" on="0"/>
        <pt x="93" y="1504" on="1"/>
        <pt x="142" y="1390" on="1"/>
        <pt x="148" y="1376" on="0"/>
        <pt x="153" y="1376" on="1"/>
        <pt x="157" y="1376" on="0"/>
        <pt x="163" y="1390" on="1"/>
        <pt x="212" y="1504" on="1"/>
        <pt x="226" y="1535" on="0"/>
        <pt x="243" y="1535" on="1"/>
        <pt x="252" y="1535" on="0"/>
        <pt x="276" y="1527" on="0"/>
        <pt x="276" y="1522" on="1"/>
        <pt x="286" y="1521" on="0"/>
        <pt x="286" y="1504" on="1"/>
        <pt x="286" y="1492" on="0"/>
        <pt x="283" y="1483" on="1"/>
        <pt x="216" y="1303" on="1"/>
        <pt x="191" y="1230" on="0"/>
        <pt x="164" y="1230" on="1"/>
      </contour>
    </TTGlyph>
    <TTGlyph name="ccaron" xMin="81" yMin="-11" xMax="502" yMax="1445">
      <component glyphName="caron" x="139" y="-90" flags="0x1004"/>
      <component glyphName="c" x="0" y="0" flags="0x1204"/>
    </TTGlyph>
    <TTGlyph name="ccedilla" xMin="81" yMin="-535" xMax="502" yMax="1018">
      <component glyphName="cedilla" x="79" y="63" flags="0x1004"/>
      <component glyphName="c" x="0" y="0" flags="0x1204"/>
    </TTGlyph>
    <TTGlyph name="ccircumflex" xMin="81" yMin="-11" xMax="502" yMax="1445">
      <component glyphName="circumflex" x="139" y="-90" flags="0x1004"/>
      <component glyphName="c" x="0" y="0" flags="0x1204"/>
    </TTGlyph>
    <TTGlyph name="cdotaccent" xMin="81" yMin="-11" xMax="502" yMax="1356">
      <component glyphName="dotaccent" x="192" y="1073" flags="0x1004"/>
      <component glyphName="c" x="0" y="0" flags="0x1204"/>
    </TTGlyph>
    <TTGlyph name="cedilla" xMin="115" yMin="-598" xMax="408" yMax="-128">
      <contour>
        <pt x="257" y="-598" on="1"/>
        <pt x="195" y="-598" on="0"/>
        <pt x="115" y="-514" on="0"/>
        <pt x="115" y="-436" on="1"/>
        <pt x="115" y="-345" on="0"/>
        <pt x="141" y="-345" on="1"/>
        <pt x="183" y="-345" on="1"/>
        <pt x="202" y="-345" on="0"/>
        <pt x="202" y="-378" on="1"/>
        <pt x="202" y="-388" on="0"/>
        <pt x="198" y="-425" on="0"/>
        <pt x="198" y="-431" on="1"/>
        <pt x="198" y="-472" on="0"/>
        <pt x="231" y="-525" on="0"/>
        <pt x="262" y="-525" on="1"/>
        <pt x="325" y="-525" on="0"/>
        <pt x="325" y="-379" on="1"/>
        <pt x="325" y="-321" on="0"/>
        <pt x="280" y="-210" on="0"/>
        <pt x="256" y="-210" on="1"/>
        <pt x="232" y="-210" on="1"/>
        <pt x="231" y="-210" on="0"/>
        <pt x="228" y="-210" on="0"/>
        <pt x="222" y="-205" on="0"/>
        <pt x="222" y="-200" on="1"/>
        <pt x="222" y="-145" on="1"/>
        <pt x="222" y="-128" on="0"/>
        <pt x="232" y="-128" on="1"/>
        <pt x="283" y="-128" on="1"/>
        <pt x="333" y="-128" on="0"/>
        <pt x="408" y="-276" on="0"/>
        <pt x="408" y="-362" on="1"/>
        <pt x="408" y="-484" on="0"/>
        <pt x="337" y="-598" on="0"/>
      </contour>
    </TTGlyph>
    <TTGlyph name="cent" xMin="81" yMin="-187" xMax="502" yMax="1232">
      <contour>
        <pt x="354" y="110" on="1"/>
        <pt x="354" y="897" on="1"/>
        <pt x="326" y="891" on="0"/>
        <pt x="285" y="854" on="0"/>
        <pt x="246" y="773" on="0"/>
        <pt x="225" y="619" on="0"/>
        <pt x="225" y="508" on="1"/>
        <pt x="225" y="359" on="0"/>
        <pt x="262" y="181" on="0"/>
        <pt x="314" y="118" on="0"/>
      </contour>
      <contour>
        <pt x="501" y="983" on="1"/>
        <pt x="501" y="897" on="1"/>
        <pt x="501" y="893" on="0"/>
        <pt x="494" y="883" on="0"/>
        <pt x="491" y="883" on="1"/>
        <pt x="486" y="884" on="0"/>
        <pt x="432" y="898" on="0"/>
        <pt x="419" y="899" on="1"/>
        <pt x="419" y="108" on="1"/>
        <pt x="447" y="110" on="0"/>
        <pt x="490" y="124" on="1"/>
        <pt x="493" y="123" on="0"/>
        <pt x="502" y="110" on="0"/>
        <pt x="502" y="106" on="1"/>
        <pt x="502" y="26" on="1"/>
        <pt x="502" y="20" on="0"/>
        <pt x="496" y="11" on="0"/>
        <pt x="483" y="4" on="0"/>
        <pt x="472" y="0" on="0"/>
        <pt x="451" y="-4" on="0"/>
        <pt x="442" y="-6" on="0"/>
        <pt x="420" y="-8" on="0"/>
        <pt x="419" y="-8" on="1"/>
        <pt x="419" y="-134" on="1"/>
        <pt x="419" y="-187" on="0"/>
        <pt x="397" y="-187" on="1"/>
        <pt x="376" y="-187" on="1"/>
        <pt x="354" y="-187" on="0"/>
        <pt x="354" y="-134" on="1"/>
        <pt x="354" y="-11" on="1"/>
        <pt x="309" y="-9" on="0"/>
        <pt x="239" y="14" on="0"/>
        <pt x="163" y="81" on="0"/>
        <pt x="113" y="190" on="0"/>
        <pt x="81" y="380" on="0"/>
        <pt x="81" y="508" on="1"/>
        <pt x="81" y="633" on="0"/>
        <pt x="113" y="819" on="0"/>
        <pt x="164" y="928" on="0"/>
        <pt x="238" y="994" on="0"/>
        <pt x="310" y="1017" on="0"/>
        <pt x="354" y="1018" on="1"/>
        <pt x="354" y="1182" on="1"/>
        <pt x="354" y="1232" on="0"/>
        <pt x="376" y="1232" on="1"/>
        <pt x="397" y="1232" on="1"/>
        <pt x="419" y="1232" on="0"/>
        <pt x="419" y="1182" on="1"/>
        <pt x="419" y="1013" on="1"/>
        <pt x="501" y="1003" on="0"/>
      </contour>
    </TTGlyph>
    <TTGlyph name="circumflex" xMin="19" yMin="1230" xMax="287" yMax="1535">
      <contour>
        <pt x="62" y="1230" on="1"/>
        <pt x="53" y="1230" on="0"/>
        <pt x="29" y="1237" on="0"/>
        <pt x="29" y="1242" on="1"/>
        <pt x="19" y="1243" on="0"/>
        <pt x="19" y="1261" on="1"/>
        <pt x="19" y="1273" on="0"/>
        <pt x="22" y="1282" on="1"/>
        <pt x="89" y="1462" on="1"/>
        <pt x="114" y="1535" on="0"/>
        <pt x="141" y="1535" on="1"/>
        <pt x="164" y="1535" on="1"/>
        <pt x="191" y="1535" on="0"/>
        <pt x="217" y="1462" on="1"/>
        <pt x="283" y="1282" on="1"/>
        <pt x="287" y="1268" on="0"/>
        <pt x="287" y="1258" on="1"/>
        <pt x="287" y="1243" on="0"/>
        <pt x="276" y="1242" on="1"/>
        <pt x="276" y="1237" on="0"/>
        <pt x="252" y="1230" on="0"/>
        <pt x="244" y="1230" on="1"/>
        <pt x="226" y="1230" on="0"/>
        <pt x="212" y="1260" on="1"/>
        <pt x="163" y="1375" on="1"/>
        <pt x="157" y="1389" on="0"/>
        <pt x="152" y="1389" on="1"/>
        <pt x="148" y="1389" on="0"/>
        <pt x="142" y="1375" on="1"/>
        <pt x="93" y="1260" on="1"/>
        <pt x="79" y="1230" on="0"/>
      </contour>
    </TTGlyph>
    <TTGlyph name="colon" xMin="100" yMin="0" xMax="228" yMax="1031">
      <contour>
        <pt x="126" y="710" on="1"/>
        <pt x="115" y="710" on="0"/>
        <pt x="100" y="747" on="0"/>
        <pt x="100" y="778" on="1"/>
        <pt x="100" y="963" on="1"/>
        <pt x="100" y="994" on="0"/>
        <pt x="115" y="1031" on="0"/>
        <pt x="126" y="1031" on="1"/>
        <pt x="202" y="1031" on="1"/>
        <pt x="228" y="1031" on="0"/>
        <pt x="228" y="963" on="1"/>
        <pt x="228" y="778" on="1"/>
        <pt x="228" y="710" on="0"/>
        <pt x="202" y="710" on="1"/>
      </contour>
      <contour>
        <pt x="126" y="0" on="1"/>
        <pt x="115" y="0" on="0"/>
        <pt x="100" y="37" on="0"/>
        <pt x="100" y="68" on="1"/>
        <pt x="100" y="253" on="1"/>
        <pt x="100" y="284" on="0"/>
        <pt x="115" y="321" on="0"/>
        <pt x="126" y="321" on="1"/>
        <pt x="202" y="321" on="1"/>
        <pt x="228" y="321" on="0"/>
        <pt x="228" y="253" on="1"/>
        <pt x="228" y="68" on="1"/>
        <pt x="228" y="0" on="0"/>
        <pt x="202" y="0" on="1"/>
      </contour>
    </TTGlyph>
    <TTGlyph name="comma" xMin="81" yMin="-303" xMax="236" yMax="242">
      <contour>
        <pt x="108" y="-301" on="1"/>
        <pt x="104" y="-303" on="0"/>
        <pt x="101" y="-303" on="1"/>
        <pt x="85" y="-303" on="0"/>
        <pt x="85" y="-262" on="1"/>
        <pt x="85" y="-247" on="1"/>
        <pt x="85" y="-237" on="0"/>
        <pt x="86" y="-223" on="0"/>
        <pt x="87" y="-215" on="0"/>
        <pt x="92" y="-205" on="0"/>
        <pt x="94" y="-202" on="0"/>
        <pt x="105" y="-188" on="0"/>
        <pt x="107" y="-185" on="1"/>
        <pt x="127" y="-157" on="0"/>
        <pt x="150" y="-62" on="0"/>
        <pt x="150" y="-27" on="1"/>
        <pt x="150" y="0" on="0"/>
        <pt x="144" y="0" on="1"/>
        <pt x="102" y="0" on="1"/>
        <pt x="81" y="0" on="0"/>
        <pt x="81" y="55" on="1"/>
        <pt x="81" y="181" on="1"/>
        <pt x="81" y="211" on="0"/>
        <pt x="99" y="242" on="0"/>
        <pt x="111" y="242" on="1"/>
        <pt x="209" y="242" on="1"/>
        <pt x="221" y="242" on="0"/>
        <pt x="236" y="205" on="0"/>
        <pt x="236" y="174" on="1"/>
        <pt x="236" y="64" on="1"/>
        <pt x="236" y="-95" on="0"/>
        <pt x="155" y="-279" on="0"/>
      </contour>
    </TTGlyph>
    <TTGlyph name="copyright" xMin="93" yMin="-15" xMax="1308" yMax="1456">
      <contour>
        <pt x="700" y="-15" on="1"/>
        <pt x="578" y="-15" on="0"/>
        <pt x="376" y="64" on="0"/>
        <pt x="235" y="200" on="0"/>
        <pt x="138" y="387" on="0"/>
        <pt x="93" y="602" on="0"/>
        <pt x="93" y="838" on="0"/>
        <pt x="138" y="1053" on="0"/>
        <pt x="235" y="1240" on="0"/>
        <pt x="376" y="1377" on="0"/>
        <pt x="578" y="1456" on="0"/>
        <pt x="700" y="1456" on="1"/>
        <pt x="823" y="1456" on="0"/>
        <pt x="1026" y="1377" on="0"/>
        <pt x="1166" y="1240" on="0"/>
        <pt x="1263" y="1053" on="0"/>
        <pt x="1308" y="838" on="0"/>
        <pt x="1308" y="602" on="0"/>
        <pt x="1263" y="387" on="0"/>
        <pt x="1166" y="200" on="0"/>
        <pt x="1026" y="64" on="0"/>
        <pt x="823" y="-15" on="0"/>
      </contour>
      <contour>
        <pt x="596" y="80" on="0"/>
        <pt x="810" y="80" on="0"/>
        <pt x="984" y="154" on="0"/>
        <pt x="1097" y="278" on="0"/>
        <pt x="1173" y="445" on="0"/>
        <pt x="1206" y="621" on="0"/>
        <pt x="1206" y="716" on="1"/>
        <pt x="1206" y="814" on="0"/>
        <pt x="1173" y="994" on="0"/>
        <pt x="1097" y="1162" on="0"/>
        <pt x="984" y="1285" on="0"/>
        <pt x="810" y="1359" on="0"/>
        <pt x="703" y="1359" on="1"/>
        <pt x="595" y="1359" on="0"/>
        <pt x="422" y="1285" on="0"/>
        <pt x="308" y="1162" on="0"/>
        <pt x="232" y="994" on="0"/>
        <pt x="199" y="814" on="0"/>
        <pt x="199" y="716" on="1"/>
        <pt x="199" y="621" on="0"/>
        <pt x="232" y="445" on="0"/>
        <pt x="308" y="278" on="0"/>
        <pt x="422" y="154" on="0"/>
      </contour>
      <contour>
        <pt x="717" y="338" on="1"/>
        <pt x="587" y="338" on="0"/>
        <pt x="413" y="536" on="0"/>
        <pt x="413" y="728" on="1"/>
        <pt x="413" y="829" on="0"/>
        <pt x="465" y="983" on="0"/>
        <pt x="552" y="1071" on="0"/>
        <pt x="653" y="1114" on="0"/>
        <pt x="708" y="1114" on="1"/>
        <pt x="821" y="1114" on="0"/>
        <pt x="896" y="1051" on="1"/>
        <pt x="905" y="1044" on="0"/>
        <pt x="905" y="1023" on="1"/>
        <pt x="905" y="1004" on="0"/>
        <pt x="887" y="967" on="0"/>
        <pt x="876" y="967" on="1"/>
        <pt x="874" y="967" on="0"/>
        <pt x="870" y="969" on="1"/>
        <pt x="790" y="1022" on="0"/>
        <pt x="727" y="1022" on="1"/>
        <pt x="630" y="1022" on="0"/>
        <pt x="515" y="869" on="0"/>
        <pt x="515" y="727" on="1"/>
        <pt x="515" y="576" on="0"/>
        <pt x="634" y="431" on="0"/>
        <pt x="726" y="431" on="1"/>
        <pt x="746" y="431" on="0"/>
        <pt x="778" y="435" on="0"/>
        <pt x="808" y="445" on="0"/>
        <pt x="825" y="452" on="0"/>
        <pt x="857" y="469" on="0"/>
        <pt x="864" y="472" on="1"/>
        <pt x="866" y="473" on="0"/>
        <pt x="870" y="473" on="1"/>
        <pt x="882" y="473" on="0"/>
        <pt x="903" y="436" on="0"/>
        <pt x="903" y="416" on="1"/>
        <pt x="903" y="393" on="0"/>
        <pt x="889" y="386" on="1"/>
        <pt x="839" y="359" on="0"/>
        <pt x="770" y="338" on="0"/>
      </contour>
    </TTGlyph>
    <TTGlyph name="currency" xMin="107" yMin="565" xMax="1010" yMax="1446">
      <contour>
        <pt x="468" y="655" on="0"/>
        <pt x="648" y="655" on="0"/>
        <pt x="787" y="717" on="0"/>
        <pt x="865" y="820" on="0"/>
        <pt x="904" y="938" on="0"/>
        <pt x="904" y="1001" on="1"/>
        <pt x="904" y="1068" on="0"/>
        <pt x="865" y="1188" on="0"/>
        <pt x="787" y="1291" on="0"/>
        <pt x="649" y="1352" on="0"/>
        <pt x="467" y="1352" on="0"/>
        <pt x="329" y="1291" on="0"/>
        <pt x="250" y="1188" on="0"/>
        <pt x="211" y="1068" on="0"/>
        <pt x="211" y="1001" on="1"/>
        <pt x="211" y="938" on="0"/>
        <pt x="250" y="820" on="0"/>
        <pt x="329" y="717" on="0"/>
      </contour>
      <contour>
        <pt x="641" y="565" on="0"/>
        <pt x="475" y="565" on="0"/>
        <pt x="354" y="603" on="0"/>
        <pt x="294" y="643" on="1"/>
        <pt x="267" y="615" on="1"/>
        <pt x="233" y="581" on="0"/>
        <pt x="218" y="581" on="1"/>
        <pt x="206" y="581" on="0"/>
        <pt x="196" y="592" on="1"/>
        <pt x="168" y="620" on="1"/>
        <pt x="156" y="632" on="0"/>
        <pt x="156" y="645" on="1"/>
        <pt x="156" y="660" on="0"/>
        <pt x="188" y="694" on="1"/>
        <pt x="210" y="716" on="1"/>
        <pt x="107" y="833" on="0"/>
        <pt x="107" y="1004" on="1"/>
        <pt x="107" y="1177" on="0"/>
        <pt x="212" y="1297" on="1"/>
        <pt x="188" y="1320" on="1"/>
        <pt x="154" y="1354" on="0"/>
        <pt x="154" y="1370" on="1"/>
        <pt x="154" y="1381" on="0"/>
        <pt x="165" y="1391" on="1"/>
        <pt x="193" y="1419" on="1"/>
        <pt x="205" y="1431" on="0"/>
        <pt x="219" y="1431" on="1"/>
        <pt x="235" y="1431" on="0"/>
        <pt x="267" y="1399" on="1"/>
        <pt x="297" y="1370" on="1"/>
        <pt x="357" y="1408" on="0"/>
        <pt x="477" y="1446" on="0"/>
        <pt x="639" y="1446" on="0"/>
        <pt x="761" y="1408" on="0"/>
        <pt x="821" y="1370" on="1"/>
        <pt x="849" y="1398" on="1"/>
        <pt x="882" y="1431" on="0"/>
        <pt x="899" y="1431" on="1"/>
        <pt x="911" y="1431" on="0"/>
        <pt x="923" y="1419" on="1"/>
        <pt x="952" y="1391" on="1"/>
        <pt x="962" y="1380" on="0"/>
        <pt x="962" y="1370" on="1"/>
        <pt x="962" y="1353" on="0"/>
        <pt x="929" y="1320" on="1"/>
        <pt x="905" y="1297" on="1"/>
        <pt x="1010" y="1177" on="0"/>
        <pt x="1010" y="1004" on="1"/>
        <pt x="1010" y="834" on="0"/>
        <pt x="907" y="716" on="1"/>
        <pt x="929" y="694" on="1"/>
        <pt x="962" y="661" on="0"/>
        <pt x="962" y="645" on="1"/>
        <pt x="962" y="633" on="0"/>
        <pt x="949" y="621" on="1"/>
        <pt x="921" y="592" on="1"/>
        <pt x="910" y="581" on="0"/>
        <pt x="900" y="581" on="1"/>
        <pt x="882" y="581" on="0"/>
        <pt x="850" y="615" on="1"/>
        <pt x="823" y="643" on="1"/>
        <pt x="763" y="604" on="0"/>
      </contour>
    </TTGlyph>
    <TTGlyph name="d" xMin="79" yMin="-11" xMax="648" yMax="1438">
      <contour>
        <pt x="511" y="509" on="1"/>
        <pt x="511" y="703" on="0"/>
        <pt x="431" y="905" on="0"/>
        <pt x="365" y="905" on="1"/>
        <pt x="333" y="905" on="0"/>
        <pt x="286" y="872" on="0"/>
        <pt x="245" y="789" on="0"/>
        <pt x="224" y="628" on="0"/>
        <pt x="224" y="509" on="1"/>
        <pt x="224" y="388" on="0"/>
        <pt x="243" y="224" on="0"/>
        <pt x="283" y="137" on="0"/>
        <pt x="332" y="102" on="0"/>
        <pt x="366" y="102" on="1"/>
        <pt x="433" y="102" on="0"/>
        <pt x="511" y="312" on="0"/>
      </contour>
      <contour>
        <pt x="335" y="-11" on="1"/>
        <pt x="297" y="-11" on="0"/>
        <pt x="231" y="13" on="0"/>
        <pt x="160" y="82" on="0"/>
        <pt x="111" y="192" on="0"/>
        <pt x="79" y="379" on="0"/>
        <pt x="79" y="502" on="1"/>
        <pt x="79" y="628" on="0"/>
        <pt x="108" y="817" on="0"/>
        <pt x="154" y="928" on="0"/>
        <pt x="222" y="995" on="0"/>
        <pt x="289" y="1018" on="0"/>
        <pt x="331" y="1018" on="1"/>
        <pt x="446" y="1018" on="0"/>
        <pt x="502" y="862" on="1"/>
        <pt x="503" y="860" on="0"/>
        <pt x="509" y="851" on="1"/>
        <pt x="512" y="851" on="0"/>
        <pt x="512" y="864" on="1"/>
        <pt x="512" y="1376" on="1"/>
        <pt x="512" y="1438" on="0"/>
        <pt x="537" y="1438" on="1"/>
        <pt x="623" y="1438" on="1"/>
        <pt x="648" y="1438" on="0"/>
        <pt x="648" y="1376" on="1"/>
        <pt x="648" y="67" on="1"/>
        <pt x="648" y="0" on="0"/>
        <pt x="626" y="0" on="1"/>
        <pt x="604" y="0" on="1"/>
        <pt x="588" y="0" on="0"/>
        <pt x="576" y="58" on="1"/>
        <pt x="561" y="158" on="0"/>
        <pt x="556" y="204" on="1"/>
        <pt x="554" y="218" on="0"/>
        <pt x="552" y="220" on="1"/>
        <pt x="548" y="215" on="0"/>
        <pt x="546" y="206" on="1"/>
        <pt x="517" y="80" on="0"/>
        <pt x="419" y="-11" on="0"/>
      </contour>
    </TTGlyph>
    <TTGlyph name="dagger" xMin="-77" yMin="0" xMax="667" yMax="1455">
      <contour>
        <pt x="260" y="0" on="1"/>
        <pt x="236" y="0" on="0"/>
        <pt x="236" y="58" on="1"/>
        <pt x="236" y="925" on="1"/>
        <pt x="-24" y="925" on="1"/>
        <pt x="-77" y="925" on="0"/>
        <pt x="-77" y="949" on="1"/>
        <pt x="-77" y="1036" on="1"/>
        <pt x="-77" y="1062" on="0"/>
        <pt x="-24" y="1062" on="1"/>
        <pt x="236" y="1062" on="1"/>
        <pt x="236" y="1392" on="1"/>
        <pt x="236" y="1455" on="0"/>
        <pt x="260" y="1455" on="1"/>
        <pt x="347" y="1455" on="1"/>
        <pt x="372" y="1455" on="0"/>
        <pt x="372" y="1392" on="1"/>
        <pt x="372" y="1062" on="1"/>
        <pt x="610" y="1062" on="1"/>
        <pt x="667" y="1062" on="0"/>
        <pt x="667" y="1036" on="1"/>
        <pt x="667" y="949" on="1"/>
        <pt x="667" y="925" on="0"/>
        <pt x="610" y="925" on="1"/>
        <pt x="372" y="925" on="1"/>
        <pt x="372" y="58" on="1"/>
        <pt x="372" y="0" on="0"/>
        <pt x="347" y="0" on="1"/>
      </contour>
    </TTGlyph>
    <TTGlyph name="daggerdbl" xMin="-77" yMin="0" xMax="667" yMax="1455">
      <contour>
        <pt x="260" y="0" on="1"/>
        <pt x="236" y="0" on="0"/>
        <pt x="236" y="58" on="1"/>
        <pt x="236" y="388" on="1"/>
        <pt x="-24" y="388" on="1"/>
        <pt x="-77" y="388" on="0"/>
        <pt x="-77" y="412" on="1"/>
        <pt x="-77" y="499" on="1"/>
        <pt x="-77" y="524" on="0"/>
        <pt x="-24" y="524" on="1"/>
        <pt x="236" y="524" on="1"/>
        <pt x="236" y="951" on="1"/>
        <pt x="-24" y="951" on="1"/>
        <pt x="-77" y="951" on="0"/>
        <pt x="-77" y="974" on="1"/>
        <pt x="-77" y="1061" on="1"/>
        <pt x="-77" y="1087" on="0"/>
        <pt x="-24" y="1087" on="1"/>
        <pt x="236" y="1087" on="1"/>
        <pt x="236" y="1392" on="1"/>
        <pt x="236" y="1455" on="0"/>
        <pt x="260" y="1455" on="1"/>
        <pt x="347" y="1455" on="1"/>
        <pt x="372" y="1455" on="0"/>
        <pt x="372" y="1392" on="1"/>
        <pt x="372" y="1087" on="1"/>
        <pt x="610" y="1087" on="1"/>
        <pt x="667" y="1087" on="0"/>
        <pt x="667" y="1061" on="1"/>
        <pt x="667" y="974" on="1"/>
        <pt x="667" y="951" on="0"/>
        <pt x="610" y="951" on="1"/>
        <pt x="372" y="951" on="1"/>
        <pt x="372" y="524" on="1"/>
        <pt x="610" y="524" on="1"/>
        <pt x="667" y="524" on="0"/>
        <pt x="667" y="499" on="1"/>
        <pt x="667" y="412" on="1"/>
        <pt x="667" y="388" on="0"/>
        <pt x="610" y="388" on="1"/>
        <pt x="372" y="388" on="1"/>
        <pt x="372" y="58" on="1"/>
        <pt x="372" y="0" on="0"/>
        <pt x="347" y="0" on="1"/>
      </contour>
    </TTGlyph>
    <TTGlyph name="dcaron" xMin="79" yMin="-11" xMax="986" yMax="1438">
      <component glyphName="comma" x="750" y="1189" flags="0x1004"/>
      <component glyphName="d" x="0" y="0" flags="0x1004"/>
    </TTGlyph>
    <TTGlyph name="dcroat" xMin="79" yMin="-11" xMax="755" yMax="1431">
      <contour>
        <pt x="511" y="509" on="1"/>
        <pt x="511" y="703" on="0"/>
        <pt x="431" y="905" on="0"/>
        <pt x="365" y="905" on="1"/>
        <pt x="333" y="905" on="0"/>
        <pt x="286" y="872" on="0"/>
        <pt x="245" y="789" on="0"/>
        <pt x="224" y="628" on="0"/>
        <pt x="224" y="509" on="1"/>
        <pt x="224" y="388" on="0"/>
        <pt x="243" y="224" on="0"/>
        <pt x="283" y="137" on="0"/>
        <pt x="332" y="102" on="0"/>
        <pt x="366" y="102" on="1"/>
        <pt x="433" y="102" on="0"/>
        <pt x="511" y="312" on="0"/>
      </contour>
      <contour>
        <pt x="336" y="-11" on="1"/>
        <pt x="296" y="-11" on="0"/>
        <pt x="230" y="10" on="0"/>
        <pt x="159" y="76" on="0"/>
        <pt x="110" y="185" on="0"/>
        <pt x="79" y="375" on="0"/>
        <pt x="79" y="502" on="1"/>
        <pt x="79" y="628" on="0"/>
        <pt x="108" y="817" on="0"/>
        <pt x="154" y="928" on="0"/>
        <pt x="222" y="995" on="0"/>
        <pt x="289" y="1018" on="0"/>
        <pt x="331" y="1018" on="1"/>
        <pt x="446" y="1018" on="0"/>
        <pt x="502" y="862" on="1"/>
        <pt x="503" y="860" on="0"/>
        <pt x="509" y="851" on="1"/>
        <pt x="512" y="851" on="0"/>
        <pt x="512" y="870" on="1"/>
        <pt x="512" y="1179" on="1"/>
        <pt x="325" y="1179" on="1"/>
        <pt x="294" y="1179" on="0"/>
        <pt x="294" y="1213" on="1"/>
        <pt x="294" y="1235" on="1"/>
        <pt x="294" y="1271" on="0"/>
        <pt x="325" y="1271" on="1"/>
        <pt x="512" y="1271" on="1"/>
        <pt x="512" y="1369" on="1"/>
        <pt x="512" y="1431" on="0"/>
        <pt x="537" y="1431" on="1"/>
        <pt x="631" y="1431" on="1"/>
        <pt x="656" y="1431" on="0"/>
        <pt x="656" y="1369" on="1"/>
        <pt x="656" y="1271" on="1"/>
        <pt x="724" y="1271" on="1"/>
        <pt x="755" y="1271" on="0"/>
        <pt x="755" y="1237" on="1"/>
        <pt x="755" y="1214" on="1"/>
        <pt x="755" y="1179" on="0"/>
        <pt x="724" y="1179" on="1"/>
        <pt x="656" y="1179" on="1"/>
        <pt x="656" y="67" on="1"/>
        <pt x="656" y="0" on="0"/>
        <pt x="634" y="0" on="1"/>
        <pt x="608" y="2" on="0"/>
        <pt x="607" y="5" on="1"/>
        <pt x="589" y="15" on="0"/>
        <pt x="581" y="63" on="1"/>
        <pt x="580" y="69" on="0"/>
        <pt x="569" y="136" on="0"/>
        <pt x="560" y="191" on="0"/>
        <pt x="559" y="200" on="1"/>
        <pt x="558" y="217" on="0"/>
        <pt x="554" y="220" on="1"/>
        <pt x="550" y="215" on="0"/>
        <pt x="548" y="206" on="1"/>
        <pt x="520" y="84" on="0"/>
        <pt x="414" y="-11" on="0"/>
      </contour>
    </TTGlyph>
    <TTGlyph name="degree" xMin="355" yMin="1075" xMax="721" yMax="1438">
      <contour>
        <pt x="568" y="1075" on="0"/>
        <pt x="510" y="1075" on="0"/>
        <pt x="450" y="1093" on="0"/>
        <pt x="392" y="1131" on="0"/>
        <pt x="355" y="1206" on="0"/>
        <pt x="355" y="1256" on="1"/>
        <pt x="355" y="1308" on="0"/>
        <pt x="390" y="1383" on="0"/>
        <pt x="447" y="1421" on="0"/>
        <pt x="507" y="1438" on="0"/>
        <pt x="571" y="1438" on="0"/>
        <pt x="629" y="1421" on="0"/>
        <pt x="687" y="1383" on="0"/>
        <pt x="721" y="1308" on="0"/>
        <pt x="721" y="1256" on="1"/>
        <pt x="721" y="1206" on="0"/>
        <pt x="684" y="1132" on="0"/>
        <pt x="626" y="1093" on="0"/>
      </contour>
      <contour>
        <pt x="539" y="1137" on="1"/>
        <pt x="582" y="1137" on="0"/>
        <pt x="646" y="1195" on="0"/>
        <pt x="646" y="1256" on="1"/>
        <pt x="646" y="1321" on="0"/>
        <pt x="582" y="1375" on="0"/>
        <pt x="539" y="1375" on="1"/>
        <pt x="494" y="1375" on="0"/>
        <pt x="430" y="1322" on="0"/>
        <pt x="430" y="1256" on="1"/>
        <pt x="430" y="1195" on="0"/>
        <pt x="495" y="1137" on="0"/>
      </contour>
    </TTGlyph>
    <TTGlyph name="dieresis" xMin="40" yMin="0" xMax="372" yMax="171">
      <contour>
        <pt x="290" y="0" on="1"/>
        <pt x="279" y="0" on="0"/>
        <pt x="264" y="30" on="0"/>
        <pt x="264" y="57" on="1"/>
        <pt x="264" y="114" on="1"/>
        <pt x="264" y="141" on="0"/>
        <pt x="279" y="171" on="0"/>
        <pt x="290" y="171" on="1"/>
        <pt x="345" y="171" on="1"/>
        <pt x="357" y="171" on="0"/>
        <pt x="372" y="141" on="0"/>
        <pt x="372" y="114" on="1"/>
        <pt x="372" y="57" on="1"/>
        <pt x="372" y="30" on="0"/>
        <pt x="357" y="0" on="0"/>
        <pt x="345" y="0" on="1"/>
      </contour>
      <contour>
        <pt x="67" y="0" on="1"/>
        <pt x="55" y="0" on="0"/>
        <pt x="40" y="30" on="0"/>
        <pt x="40" y="57" on="1"/>
        <pt x="40" y="114" on="1"/>
        <pt x="40" y="141" on="0"/>
        <pt x="55" y="171" on="0"/>
        <pt x="67" y="171" on="1"/>
        <pt x="122" y="171" on="1"/>
        <pt x="134" y="171" on="0"/>
        <pt x="149" y="141" on="0"/>
        <pt x="149" y="114" on="1"/>
        <pt x="149" y="57" on="1"/>
        <pt x="149" y="30" on="0"/>
        <pt x="134" y="0" on="0"/>
        <pt x="122" y="0" on="1"/>
      </contour>
    </TTGlyph>
    <TTGlyph name="divide" xMin="70" yMin="75" xMax="726" yMax="930">
      <contour>
        <pt x="366" y="723" on="1"/>
        <pt x="354" y="723" on="0"/>
        <pt x="342" y="744" on="0"/>
        <pt x="342" y="774" on="1"/>
        <pt x="342" y="878" on="1"/>
        <pt x="342" y="908" on="0"/>
        <pt x="354" y="930" on="0"/>
        <pt x="366" y="930" on="1"/>
        <pt x="465" y="930" on="1"/>
        <pt x="488" y="930" on="0"/>
        <pt x="488" y="878" on="1"/>
        <pt x="488" y="774" on="1"/>
        <pt x="488" y="744" on="0"/>
        <pt x="477" y="723" on="0"/>
        <pt x="465" y="723" on="1"/>
      </contour>
      <contour>
        <pt x="726" y="460" on="1"/>
        <pt x="726" y="447" on="0"/>
        <pt x="705" y="435" on="0"/>
        <pt x="675" y="435" on="1"/>
        <pt x="120" y="435" on="1"/>
        <pt x="90" y="435" on="0"/>
        <pt x="70" y="447" on="0"/>
        <pt x="70" y="460" on="1"/>
        <pt x="70" y="547" on="1"/>
        <pt x="70" y="559" on="0"/>
        <pt x="90" y="571" on="0"/>
        <pt x="120" y="571" on="1"/>
        <pt x="675" y="571" on="1"/>
        <pt x="705" y="571" on="0"/>
        <pt x="726" y="559" on="0"/>
        <pt x="726" y="547" on="1"/>
      </contour>
      <contour>
        <pt x="366" y="75" on="1"/>
        <pt x="354" y="75" on="0"/>
        <pt x="342" y="96" on="0"/>
        <pt x="342" y="126" on="1"/>
        <pt x="342" y="230" on="1"/>
        <pt x="342" y="260" on="0"/>
        <pt x="354" y="282" on="0"/>
        <pt x="366" y="282" on="1"/>
        <pt x="465" y="282" on="1"/>
        <pt x="488" y="282" on="0"/>
        <pt x="488" y="230" on="1"/>
        <pt x="488" y="126" on="1"/>
        <pt x="488" y="96" on="0"/>
        <pt x="477" y="75" on="0"/>
        <pt x="465" y="75" on="1"/>
      </contour>
    </TTGlyph>
    <TTGlyph name="dollar" xMin="43" yMin="-199" xMax="710" yMax="1643">
      <component glyphName="bar" x="336" y="-37" scalex="0.579956054688" scaley="1.07995605469" flags="0x1004"/>
      <component glyphName="S" x="0" y="0" flags="0x1004"/>
    </TTGlyph>
    <TTGlyph name="dotaccent" xMin="12" yMin="67" xMax="188" yMax="283">
      <contour>
        <pt x="39" y="67" on="1"/>
        <pt x="12" y="67" on="0"/>
        <pt x="12" y="120" on="1"/>
        <pt x="12" y="231" on="1"/>
        <pt x="12" y="283" on="0"/>
        <pt x="39" y="283" on="1"/>
        <pt x="161" y="283" on="1"/>
        <pt x="188" y="283" on="0"/>
        <pt x="188" y="231" on="1"/>
        <pt x="188" y="120" on="1"/>
        <pt x="188" y="67" on="0"/>
        <pt x="161" y="67" on="1"/>
      </contour>
    </TTGlyph>
    <TTGlyph name="dotlessi" xMin="107" yMin="0" xMax="243" yMax="1006">
      <contour>
        <pt x="132" y="0" on="1"/>
        <pt x="107" y="0" on="0"/>
        <pt x="107" y="61" on="1"/>
        <pt x="107" y="946" on="1"/>
        <pt x="107" y="1006" on="0"/>
        <pt x="132" y="1006" on="1"/>
        <pt x="219" y="1006" on="1"/>
        <pt x="243" y="1006" on="0"/>
        <pt x="243" y="946" on="1"/>
        <pt x="243" y="61" on="1"/>
        <pt x="243" y="0" on="0"/>
        <pt x="219" y="0" on="1"/>
      </contour>
    </TTGlyph>
    <TTGlyph name="e" xMin="81" yMin="-11" xMax="614" yMax="1019">
      <contour>
        <pt x="227" y="562" on="1"/>
        <pt x="493" y="562" on="1"/>
        <pt x="495" y="562" on="0"/>
        <pt x="495" y="580" on="1"/>
        <pt x="489" y="749" on="0"/>
        <pt x="427" y="906" on="0"/>
        <pt x="362" y="906" on="1"/>
        <pt x="241" y="906" on="0"/>
        <pt x="224" y="616" on="1"/>
        <pt x="224" y="562" on="0"/>
      </contour>
      <contour>
        <pt x="606" y="246" on="1"/>
        <pt x="606" y="135" on="0"/>
        <pt x="489" y="-11" on="0"/>
        <pt x="374" y="-11" on="1"/>
        <pt x="81" y="-11" on="0"/>
        <pt x="81" y="504" on="1"/>
        <pt x="81" y="631" on="0"/>
        <pt x="116" y="822" on="0"/>
        <pt x="170" y="931" on="0"/>
        <pt x="248" y="998" on="0"/>
        <pt x="321" y="1019" on="0"/>
        <pt x="364" y="1019" on="1"/>
        <pt x="614" y="1019" on="0"/>
        <pt x="614" y="545" on="1"/>
        <pt x="614" y="473" on="0"/>
        <pt x="584" y="473" on="1"/>
        <pt x="230" y="473" on="1"/>
        <pt x="223" y="473" on="0"/>
        <pt x="223" y="452" on="1"/>
        <pt x="223" y="353" on="0"/>
        <pt x="253" y="201" on="0"/>
        <pt x="326" y="102" on="0"/>
        <pt x="380" y="102" on="1"/>
        <pt x="417" y="102" on="0"/>
        <pt x="468" y="137" on="0"/>
        <pt x="493" y="203" on="0"/>
        <pt x="502" y="250" on="0"/>
        <pt x="506" y="287" on="1"/>
        <pt x="508" y="307" on="0"/>
        <pt x="519" y="307" on="1"/>
        <pt x="587" y="307" on="1"/>
        <pt x="606" y="307" on="0"/>
        <pt x="606" y="266" on="1"/>
      </contour>
    </TTGlyph>
    <TTGlyph name="eacute" xMin="81" yMin="-11" xMax="614" yMax="1582">
      <component glyphName="acute" x="-36" y="-27" flags="0x1004"/>
      <component glyphName="e" x="0" y="0" flags="0x1204"/>
    </TTGlyph>
    <TTGlyph name="ebreve" xMin="81" yMin="-11" xMax="614" yMax="1327">
      <component glyphName="breve" x="-263" y="-151" flags="0x1004"/>
      <component glyphName="e" x="0" y="0" flags="0x1204"/>
    </TTGlyph>
    <TTGlyph name="ecaron" xMin="81" yMin="-11" xMax="614" yMax="1446">
      <component glyphName="caron" x="195" y="-89" flags="0x1004"/>
      <component glyphName="e" x="0" y="0" flags="0x1204"/>
    </TTGlyph>
    <TTGlyph name="ecircumflex" xMin="81" yMin="-11" xMax="614" yMax="1446">
      <component glyphName="circumflex" x="194" y="-89" flags="0x1004"/>
      <component glyphName="e" x="0" y="0" flags="0x1204"/>
    </TTGlyph>
    <TTGlyph name="edieresis" xMin="81" yMin="-11" xMax="614" yMax="1312">
      <component glyphName="dieresis" x="142" y="1141" flags="0x1004"/>
      <component glyphName="e" x="0" y="0" flags="0x1204"/>
    </TTGlyph>
    <TTGlyph name="edotaccent" xMin="81" yMin="-11" xMax="614" yMax="1357">
      <component glyphName="dotaccent" x="248" y="1074" flags="0x1004"/>
      <component glyphName="e" x="0" y="0" flags="0x1204"/>
    </TTGlyph>
    <TTGlyph name="egrave" xMin="81" yMin="-11" xMax="614" yMax="1582">
      <component glyphName="grave" x="-108" y="-27" flags="0x1004"/>
      <component glyphName="e" x="0" y="0" flags="0x1204"/>
    </TTGlyph>
    <TTGlyph name="eight" xMin="102" yMin="-14" xMax="731" yMax="1453">
      <contour>
        <pt x="331" y="137" on="0"/>
        <pt x="505" y="137" on="0"/>
        <pt x="591" y="266" on="0"/>
        <pt x="591" y="431" on="1"/>
        <pt x="591" y="503" on="0"/>
        <pt x="568" y="593" on="0"/>
        <pt x="495" y="654" on="0"/>
        <pt x="432" y="683" on="0"/>
        <pt x="356" y="710" on="1"/>
        <pt x="322" y="722" on="0"/>
        <pt x="303" y="729" on="1"/>
        <pt x="278" y="686" on="0"/>
        <pt x="240" y="508" on="0"/>
        <pt x="240" y="440" on="1"/>
        <pt x="240" y="275" on="0"/>
      </contour>
      <contour>
        <pt x="471" y="-14" on="0"/>
        <pt x="363" y="-14" on="0"/>
        <pt x="276" y="7" on="0"/>
        <pt x="192" y="66" on="0"/>
        <pt x="136" y="161" on="0"/>
        <pt x="102" y="318" on="0"/>
        <pt x="102" y="422" on="1"/>
        <pt x="102" y="542" on="0"/>
        <pt x="174" y="744" on="0"/>
        <pt x="218" y="788" on="1"/>
        <pt x="130" y="870" on="0"/>
        <pt x="130" y="1065" on="1"/>
        <pt x="130" y="1272" on="0"/>
        <pt x="287" y="1453" on="0"/>
        <pt x="417" y="1453" on="1"/>
        <pt x="699" y="1453" on="0"/>
        <pt x="699" y="1053" on="1"/>
        <pt x="699" y="957" on="0"/>
        <pt x="645" y="788" on="0"/>
        <pt x="611" y="745" on="1"/>
        <pt x="731" y="653" on="0"/>
        <pt x="731" y="414" on="1"/>
        <pt x="731" y="313" on="0"/>
        <pt x="697" y="160" on="0"/>
        <pt x="642" y="66" on="0"/>
        <pt x="559" y="8" on="0"/>
      </contour>
      <contour>
        <pt x="520" y="796" on="1"/>
        <pt x="536" y="822" on="0"/>
        <pt x="572" y="975" on="0"/>
        <pt x="572" y="1047" on="1"/>
        <pt x="572" y="1328" on="0"/>
        <pt x="418" y="1328" on="1"/>
        <pt x="341" y="1328" on="0"/>
        <pt x="262" y="1200" on="0"/>
        <pt x="262" y="1058" on="1"/>
        <pt x="262" y="989" on="0"/>
        <pt x="285" y="905" on="0"/>
        <pt x="350" y="847" on="0"/>
        <pt x="439" y="814" on="0"/>
      </contour>
    </TTGlyph>
    <TTGlyph name="ellipsis" xMin="88" yMin="0" xMax="946" yMax="238">
      <component glyphName="period" x="0" y="0" flags="0x1004"/>
      <component glyphName="period" x="344" y="0" flags="0x1004"/>
      <component glyphName="period" x="688" y="0" flags="0x1004"/>
    </TTGlyph>
    <TTGlyph name="emacron" xMin="81" yMin="-11" xMax="614" yMax="1238">
      <component glyphName="macron" x="-52" y="652" flags="0x1004"/>
      <component glyphName="e" x="0" y="0" flags="0x1204"/>
    </TTGlyph>
    <TTGlyph name="emdash" xMin="88" yMin="489" xMax="1954" yMax="586">
      <contour>
        <pt x="120" y="489" on="1"/>
        <pt x="88" y="489" on="0"/>
        <pt x="88" y="525" on="1"/>
        <pt x="88" y="549" on="1"/>
        <pt x="88" y="586" on="0"/>
        <pt x="120" y="586" on="1"/>
        <pt x="1921" y="586" on="1"/>
        <pt x="1954" y="586" on="0"/>
        <pt x="1954" y="550" on="1"/>
        <pt x="1954" y="526" on="1"/>
        <pt x="1954" y="489" on="0"/>
        <pt x="1921" y="489" on="1"/>
      </contour>
    </TTGlyph>
    <TTGlyph name="endash" xMin="88" yMin="489" xMax="931" yMax="586">
      <contour>
        <pt x="120" y="489" on="1"/>
        <pt x="88" y="489" on="0"/>
        <pt x="88" y="525" on="1"/>
        <pt x="88" y="549" on="1"/>
        <pt x="88" y="586" on="0"/>
        <pt x="120" y="586" on="1"/>
        <pt x="898" y="586" on="1"/>
        <pt x="931" y="586" on="0"/>
        <pt x="931" y="550" on="1"/>
        <pt x="931" y="526" on="1"/>
        <pt x="931" y="489" on="0"/>
        <pt x="898" y="489" on="1"/>
      </contour>
    </TTGlyph>
    <TTGlyph name="eogonek" xMin="81" yMin="-339" xMax="614" yMax="1019">
      <component glyphName="ogonek" x="15" y="3" flags="0x1004"/>
      <component glyphName="e" x="0" y="0" flags="0x1204"/>
    </TTGlyph>
    <TTGlyph name="equal" xMin="48" yMin="347" xMax="472" yMax="741">
      <contour>
        <pt x="71" y="622" on="1"/>
        <pt x="58" y="622" on="0"/>
        <pt x="48" y="636" on="0"/>
        <pt x="48" y="666" on="1"/>
        <pt x="48" y="696" on="1"/>
        <pt x="48" y="726" on="0"/>
        <pt x="58" y="741" on="0"/>
        <pt x="71" y="741" on="1"/>
        <pt x="449" y="741" on="1"/>
        <pt x="462" y="741" on="0"/>
        <pt x="472" y="726" on="0"/>
        <pt x="472" y="696" on="1"/>
        <pt x="472" y="666" on="1"/>
        <pt x="472" y="636" on="0"/>
        <pt x="462" y="622" on="0"/>
        <pt x="449" y="622" on="1"/>
      </contour>
      <contour>
        <pt x="71" y="347" on="1"/>
        <pt x="58" y="347" on="0"/>
        <pt x="48" y="361" on="0"/>
        <pt x="48" y="391" on="1"/>
        <pt x="48" y="421" on="1"/>
        <pt x="48" y="451" on="0"/>
        <pt x="58" y="466" on="0"/>
        <pt x="71" y="466" on="1"/>
        <pt x="449" y="466" on="1"/>
        <pt x="462" y="466" on="0"/>
        <pt x="472" y="451" on="0"/>
        <pt x="472" y="421" on="1"/>
        <pt x="472" y="391" on="1"/>
        <pt x="472" y="361" on="0"/>
        <pt x="462" y="347" on="0"/>
        <pt x="449" y="347" on="1"/>
      </contour>
    </TTGlyph>
    <TTGlyph name="eth" xMin="70" yMin="-16" xMax="701" yMax="1359">
      <contour>
        <pt x="386" y="94" on="1"/>
        <pt x="417" y="94" on="0"/>
        <pt x="466" y="111" on="0"/>
        <pt x="514" y="161" on="0"/>
        <pt x="546" y="244" on="0"/>
        <pt x="566" y="384" on="0"/>
        <pt x="566" y="479" on="1"/>
        <pt x="566" y="611" on="0"/>
        <pt x="472" y="769" on="0"/>
        <pt x="380" y="769" on="1"/>
        <pt x="330" y="769" on="0"/>
        <pt x="260" y="719" on="0"/>
        <pt x="224" y="627" on="0"/>
        <pt x="208" y="518" on="0"/>
        <pt x="208" y="448" on="1"/>
        <pt x="208" y="255" on="0"/>
        <pt x="295" y="94" on="0"/>
      </contour>
      <contour>
        <pt x="386" y="-16" on="1"/>
        <pt x="317" y="-16" on="0"/>
        <pt x="210" y="24" on="0"/>
        <pt x="119" y="121" on="0"/>
        <pt x="70" y="303" on="0"/>
        <pt x="70" y="434" on="1"/>
        <pt x="70" y="641" on="0"/>
        <pt x="220" y="879" on="0"/>
        <pt x="372" y="879" on="1"/>
        <pt x="467" y="879" on="0"/>
        <pt x="542" y="814" on="1"/>
        <pt x="523" y="951" on="0"/>
        <pt x="418" y="1097" on="1"/>
        <pt x="278" y="1014" on="1"/>
        <pt x="255" y="999" on="0"/>
        <pt x="233" y="1029" on="1"/>
        <pt x="216" y="1049" on="0"/>
        <pt x="216" y="1079" on="0"/>
        <pt x="231" y="1090" on="1"/>
        <pt x="349" y="1156" on="1"/>
        <pt x="268" y="1223" on="0"/>
        <pt x="161" y="1271" on="1"/>
        <pt x="147" y="1274" on="0"/>
        <pt x="147" y="1294" on="1"/>
        <pt x="147" y="1301" on="0"/>
        <pt x="165" y="1334" on="0"/>
        <pt x="172" y="1334" on="1"/>
        <pt x="176" y="1359" on="0"/>
        <pt x="191" y="1359" on="1"/>
        <pt x="194" y="1359" on="1"/>
        <pt x="344" y="1304" on="0"/>
        <pt x="437" y="1227" on="1"/>
        <pt x="581" y="1314" on="1"/>
        <pt x="606" y="1337" on="0"/>
        <pt x="626" y="1300" on="1"/>
        <pt x="640" y="1284" on="1"/>
        <pt x="659" y="1257" on="0"/>
        <pt x="630" y="1236" on="1"/>
        <pt x="504" y="1164" on="1"/>
        <pt x="701" y="918" on="0"/>
        <pt x="701" y="551" on="1"/>
        <pt x="701" y="246" on="0"/>
        <pt x="560" y="-16" on="0"/>
      </contour>
    </TTGlyph>
    <TTGlyph name="exclam" xMin="98" yMin="0" xMax="268" yMax="1482">
      <contour>
        <pt x="170" y="432" on="1"/>
        <pt x="153" y="432" on="0"/>
        <pt x="150" y="504" on="1"/>
        <pt x="108" y="1411" on="1"/>
        <pt x="108" y="1411" on="0"/>
        <pt x="108" y="1420" on="1"/>
        <pt x="108" y="1448" on="0"/>
        <pt x="123" y="1482" on="0"/>
        <pt x="135" y="1482" on="1"/>
        <pt x="232" y="1482" on="1"/>
        <pt x="242" y="1482" on="0"/>
        <pt x="259" y="1447" on="0"/>
        <pt x="259" y="1419" on="1"/>
        <pt x="259" y="1411" on="1"/>
        <pt x="218" y="504" on="1"/>
        <pt x="215" y="432" on="0"/>
        <pt x="197" y="432" on="1"/>
      </contour>
      <contour>
        <pt x="125" y="0" on="1"/>
        <pt x="98" y="0" on="0"/>
        <pt x="98" y="53" on="1"/>
        <pt x="98" y="186" on="1"/>
        <pt x="98" y="238" on="0"/>
        <pt x="125" y="238" on="1"/>
        <pt x="242" y="238" on="1"/>
        <pt x="268" y="238" on="0"/>
        <pt x="268" y="186" on="1"/>
        <pt x="268" y="53" on="1"/>
        <pt x="268" y="0" on="0"/>
        <pt x="242" y="0" on="1"/>
      </contour>
    </TTGlyph>
    <TTGlyph name="exclamdown" xMin="101" yMin="0" xMax="271" yMax="1482">
      <component glyphName="exclam" x="369" y="1482" scale="-1.0" flags="0x1004"/>
    </TTGlyph>
    <TTGlyph name="f" xMin="49" yMin="0" xMax="440" yMax="1450">
      <contour>
        <pt x="157" y="0" on="1"/>
        <pt x="146" y="0" on="0"/>
        <pt x="131" y="35" on="0"/>
        <pt x="131" y="66" on="1"/>
        <pt x="131" y="853" on="1"/>
        <pt x="131" y="881" on="0"/>
        <pt x="124" y="881" on="1"/>
        <pt x="73" y="881" on="1"/>
        <pt x="61" y="881" on="0"/>
        <pt x="49" y="895" on="0"/>
        <pt x="49" y="917" on="1"/>
        <pt x="49" y="967" on="1"/>
        <pt x="49" y="1006" on="0"/>
        <pt x="73" y="1006" on="1"/>
        <pt x="124" y="1006" on="1"/>
        <pt x="131" y="1006" on="0"/>
        <pt x="131" y="1039" on="1"/>
        <pt x="131" y="1208" on="0"/>
        <pt x="177" y="1389" on="0"/>
        <pt x="262" y="1450" on="0"/>
        <pt x="338" y="1450" on="1"/>
        <pt x="399" y="1450" on="0"/>
        <pt x="419" y="1446" on="1"/>
        <pt x="426" y="1445" on="0"/>
        <pt x="433" y="1442" on="0"/>
        <pt x="440" y="1427" on="0"/>
        <pt x="440" y="1414" on="1"/>
        <pt x="440" y="1364" on="1"/>
        <pt x="440" y="1324" on="0"/>
        <pt x="427" y="1324" on="1"/>
        <pt x="369" y="1324" on="1"/>
        <pt x="309" y="1324" on="0"/>
        <pt x="267" y="1231" on="0"/>
        <pt x="267" y="1097" on="1"/>
        <pt x="267" y="1012" on="1"/>
        <pt x="267" y="1006" on="0"/>
        <pt x="270" y="1006" on="1"/>
        <pt x="411" y="1006" on="1"/>
        <pt x="423" y="1006" on="0"/>
        <pt x="433" y="992" on="0"/>
        <pt x="433" y="971" on="1"/>
        <pt x="433" y="917" on="1"/>
        <pt x="433" y="896" on="0"/>
        <pt x="423" y="881" on="0"/>
        <pt x="411" y="881" on="1"/>
        <pt x="276" y="881" on="1"/>
        <pt x="267" y="881" on="0"/>
        <pt x="267" y="853" on="1"/>
        <pt x="267" y="66" on="1"/>
        <pt x="267" y="0" on="0"/>
        <pt x="242" y="0" on="1"/>
      </contour>
    </TTGlyph>
    <TTGlyph name="five" xMin="118" yMin="-14" xMax="779" yMax="1438">
      <contour>
        <pt x="409" y="-14" on="1"/>
        <pt x="333" y="-14" on="0"/>
        <pt x="175" y="23" on="0"/>
        <pt x="142" y="44" on="1"/>
        <pt x="123" y="56" on="0"/>
        <pt x="123" y="95" on="1"/>
        <pt x="123" y="119" on="0"/>
        <pt x="131" y="179" on="0"/>
        <pt x="141" y="179" on="1"/>
        <pt x="144" y="179" on="0"/>
        <pt x="150" y="176" on="1"/>
        <pt x="310" y="119" on="0"/>
        <pt x="408" y="119" on="1"/>
        <pt x="466" y="119" on="0"/>
        <pt x="548" y="153" on="0"/>
        <pt x="596" y="209" on="0"/>
        <pt x="624" y="304" on="0"/>
        <pt x="633" y="403" on="0"/>
        <pt x="633" y="473" on="1"/>
        <pt x="633" y="517" on="0"/>
        <pt x="628" y="588" on="0"/>
        <pt x="615" y="670" on="0"/>
        <pt x="587" y="731" on="0"/>
        <pt x="545" y="784" on="0"/>
        <pt x="480" y="811" on="0"/>
        <pt x="437" y="811" on="1"/>
        <pt x="384" y="811" on="0"/>
        <pt x="300" y="769" on="0"/>
        <pt x="260" y="719" on="0"/>
        <pt x="217" y="677" on="0"/>
        <pt x="200" y="677" on="1"/>
        <pt x="150" y="677" on="1"/>
        <pt x="135" y="677" on="0"/>
        <pt x="127" y="710" on="0"/>
        <pt x="126" y="745" on="1"/>
        <pt x="126" y="753" on="0"/>
        <pt x="126" y="757" on="1"/>
        <pt x="118" y="1370" on="1"/>
        <pt x="118" y="1383" on="1"/>
        <pt x="118" y="1415" on="0"/>
        <pt x="144" y="1438" on="0"/>
        <pt x="176" y="1438" on="1"/>
        <pt x="703" y="1438" on="1"/>
        <pt x="727" y="1438" on="0"/>
        <pt x="727" y="1400" on="1"/>
        <pt x="726" y="1337" on="1"/>
        <pt x="723" y="1294" on="0"/>
        <pt x="711" y="1294" on="1"/>
        <pt x="282" y="1294" on="1"/>
        <pt x="255" y="1294" on="0"/>
        <pt x="240" y="1279" on="0"/>
        <pt x="240" y="1252" on="1"/>
        <pt x="239" y="809" on="1"/>
        <pt x="252" y="828" on="0"/>
        <pt x="286" y="864" on="0"/>
        <pt x="346" y="908" on="0"/>
        <pt x="434" y="935" on="0"/>
        <pt x="486" y="935" on="1"/>
        <pt x="641" y="935" on="0"/>
        <pt x="779" y="691" on="0"/>
        <pt x="779" y="465" on="1"/>
        <pt x="779" y="325" on="0"/>
        <pt x="727" y="133" on="0"/>
        <pt x="624" y="29" on="0"/>
        <pt x="496" y="-14" on="0"/>
      </contour>
    </TTGlyph>
    <TTGlyph name="florin" xMin="-39" yMin="-124" xMax="497" yMax="1368">
      <contour>
        <pt x="12" y="-124" on="1"/>
        <pt x="-9" y="-124" on="1"/>
        <pt x="-36" y="-124" on="0"/>
        <pt x="-37" y="-105" on="1"/>
        <pt x="-39" y="-105" on="0"/>
        <pt x="-39" y="-82" on="1"/>
        <pt x="-39" y="-64" on="1"/>
        <pt x="-37" y="-11" on="0"/>
        <pt x="-22" y="-11" on="1"/>
        <pt x="-8" y="-11" on="1"/>
        <pt x="53" y="-11" on="0"/>
        <pt x="106" y="80" on="0"/>
        <pt x="118" y="215" on="1"/>
        <pt x="165" y="759" on="1"/>
        <pt x="168" y="788" on="0"/>
        <pt x="161" y="788" on="1"/>
        <pt x="83" y="788" on="1"/>
        <pt x="71" y="788" on="0"/>
        <pt x="62" y="802" on="0"/>
        <pt x="64" y="823" on="1"/>
        <pt x="69" y="874" on="1"/>
        <pt x="73" y="913" on="0"/>
        <pt x="97" y="913" on="1"/>
        <pt x="174" y="913" on="1"/>
        <pt x="181" y="913" on="0"/>
        <pt x="186" y="970" on="1"/>
        <pt x="202" y="1129" on="0"/>
        <pt x="267" y="1305" on="0"/>
        <pt x="360" y="1368" on="0"/>
        <pt x="436" y="1368" on="1"/>
        <pt x="451" y="1368" on="0"/>
        <pt x="477" y="1362" on="0"/>
        <pt x="492" y="1355" on="0"/>
        <pt x="491" y="1351" on="1"/>
        <pt x="497" y="1351" on="0"/>
        <pt x="497" y="1306" on="1"/>
        <pt x="495" y="1253" on="0"/>
        <pt x="479" y="1253" on="1"/>
        <pt x="455" y="1253" on="1"/>
        <pt x="395" y="1253" on="0"/>
        <pt x="343" y="1161" on="0"/>
        <pt x="330" y="1027" on="1"/>
        <pt x="318" y="919" on="1"/>
        <pt x="318" y="913" on="0"/>
        <pt x="321" y="913" on="1"/>
        <pt x="431" y="913" on="1"/>
        <pt x="453" y="913" on="0"/>
        <pt x="449" y="877" on="1"/>
        <pt x="443" y="823" on="1"/>
        <pt x="441" y="802" on="0"/>
        <pt x="429" y="788" on="0"/>
        <pt x="417" y="788" on="1"/>
        <pt x="317" y="788" on="1"/>
        <pt x="308" y="788" on="0"/>
        <pt x="305" y="759" on="1"/>
        <pt x="264" y="274" on="1"/>
        <pt x="251" y="125" on="0"/>
        <pt x="185" y="-53" on="0"/>
        <pt x="86" y="-124" on="0"/>
      </contour>
    </TTGlyph>
    <TTGlyph name="four" xMin="95" yMin="0" xMax="853" yMax="1438">
      <contour>
        <pt x="574" y="0" on="1"/>
        <pt x="555" y="0" on="0"/>
        <pt x="537" y="25" on="0"/>
        <pt x="537" y="56" on="1"/>
        <pt x="537" y="283" on="1"/>
        <pt x="150" y="283" on="1"/>
        <pt x="127" y="283" on="0"/>
        <pt x="95" y="312" on="0"/>
        <pt x="95" y="337" on="1"/>
        <pt x="95" y="345" on="0"/>
        <pt x="96" y="350" on="1"/>
        <pt x="236" y="1371" on="1"/>
        <pt x="242" y="1407" on="0"/>
        <pt x="257" y="1438" on="0"/>
        <pt x="274" y="1438" on="1"/>
        <pt x="336" y="1438" on="1"/>
        <pt x="368" y="1438" on="0"/>
        <pt x="368" y="1388" on="1"/>
        <pt x="368" y="1377" on="0"/>
        <pt x="367" y="1371" on="1"/>
        <pt x="249" y="432" on="1"/>
        <pt x="248" y="423" on="0"/>
        <pt x="257" y="406" on="0"/>
        <pt x="268" y="406" on="1"/>
        <pt x="537" y="406" on="1"/>
        <pt x="537" y="1380" on="1"/>
        <pt x="537" y="1438" on="0"/>
        <pt x="574" y="1438" on="1"/>
        <pt x="644" y="1438" on="1"/>
        <pt x="680" y="1438" on="0"/>
        <pt x="680" y="1380" on="1"/>
        <pt x="680" y="406" on="1"/>
        <pt x="805" y="406" on="1"/>
        <pt x="831" y="406" on="0"/>
        <pt x="853" y="382" on="0"/>
        <pt x="853" y="354" on="1"/>
        <pt x="853" y="332" on="1"/>
        <pt x="853" y="305" on="0"/>
        <pt x="831" y="283" on="0"/>
        <pt x="805" y="283" on="1"/>
        <pt x="680" y="283" on="1"/>
        <pt x="680" y="56" on="1"/>
        <pt x="680" y="25" on="0"/>
        <pt x="663" y="0" on="0"/>
        <pt x="644" y="0" on="1"/>
      </contour>
    </TTGlyph>
    <TTGlyph name="fraction" xMin="75" yMin="-206" xMax="478" yMax="1647">
      <contour>
        <pt x="83" y="-205" on="1"/>
        <pt x="75" y="-205" on="0"/>
        <pt x="75" y="-180" on="1"/>
        <pt x="75" y="-178" on="0"/>
        <pt x="76" y="-174" on="0"/>
        <pt x="76" y="-172" on="1"/>
        <pt x="377" y="1614" on="1"/>
        <pt x="382" y="1647" on="0"/>
        <pt x="396" y="1647" on="1"/>
        <pt x="470" y="1647" on="1"/>
        <pt x="478" y="1647" on="0"/>
        <pt x="478" y="1625" on="1"/>
        <pt x="478" y="1618" on="0"/>
        <pt x="477" y="1614" on="1"/>
        <pt x="177" y="-173" on="1"/>
        <pt x="172" y="-206" on="0"/>
        <pt x="159" y="-206" on="1"/>
      </contour>
    </TTGlyph>
    <TTGlyph name="g" xMin="68" yMin="-300" xMax="661" yMax="1319">
      <contour>
        <pt x="356" y="442" on="1"/>
        <pt x="427" y="442" on="0"/>
        <pt x="486" y="562" on="0"/>
        <pt x="486" y="780" on="0"/>
        <pt x="412" y="923" on="0"/>
        <pt x="342" y="923" on="1"/>
        <pt x="274" y="923" on="0"/>
        <pt x="210" y="788" on="0"/>
        <pt x="210" y="682" on="1"/>
        <pt x="210" y="567" on="0"/>
        <pt x="284" y="442" on="0"/>
      </contour>
      <contour>
        <pt x="342" y="-209" on="1"/>
        <pt x="544" y="-209" on="0"/>
        <pt x="544" y="-35" on="1"/>
        <pt x="544" y="92" on="0"/>
        <pt x="405" y="92" on="1"/>
        <pt x="290" y="92" on="1"/>
        <pt x="271" y="92" on="0"/>
        <pt x="215" y="-38" on="0"/>
        <pt x="215" y="-100" on="1"/>
        <pt x="215" y="-150" on="0"/>
        <pt x="270" y="-209" on="0"/>
      </contour>
      <contour>
        <pt x="336" y="-300" on="1"/>
        <pt x="214" y="-300" on="0"/>
        <pt x="86" y="-211" on="0"/>
        <pt x="86" y="-132" on="1"/>
        <pt x="86" y="-38" on="0"/>
        <pt x="168" y="90" on="1"/>
        <pt x="172" y="98" on="0"/>
        <pt x="172" y="104" on="1"/>
        <pt x="172" y="113" on="0"/>
        <pt x="165" y="117" on="1"/>
        <pt x="118" y="137" on="0"/>
        <pt x="75" y="181" on="0"/>
        <pt x="75" y="225" on="1"/>
        <pt x="75" y="240" on="0"/>
        <pt x="78" y="267" on="0"/>
        <pt x="80" y="288" on="0"/>
        <pt x="88" y="311" on="0"/>
        <pt x="91" y="325" on="0"/>
        <pt x="103" y="347" on="0"/>
        <pt x="107" y="355" on="0"/>
        <pt x="123" y="377" on="0"/>
        <pt x="125" y="381" on="0"/>
        <pt x="144" y="405" on="0"/>
        <pt x="145" y="406" on="1"/>
        <pt x="152" y="416" on="0"/>
        <pt x="152" y="424" on="1"/>
        <pt x="152" y="434" on="0"/>
        <pt x="146" y="440" on="1"/>
        <pt x="68" y="538" on="0"/>
        <pt x="68" y="675" on="1"/>
        <pt x="68" y="775" on="0"/>
        <pt x="121" y="925" on="0"/>
        <pt x="246" y="1018" on="0"/>
        <pt x="339" y="1018" on="1"/>
        <pt x="364" y="1018" on="0"/>
        <pt x="406" y="1008" on="1"/>
        <pt x="422" y="1004" on="0"/>
        <pt x="423" y="1023" on="1"/>
        <pt x="440" y="1276" on="1"/>
        <pt x="441" y="1304" on="0"/>
        <pt x="455" y="1319" on="0"/>
        <pt x="470" y="1319" on="1"/>
        <pt x="537" y="1319" on="1"/>
        <pt x="544" y="1319" on="0"/>
        <pt x="552" y="1291" on="0"/>
        <pt x="549" y="1278" on="1"/>
        <pt x="482" y="997" on="1"/>
        <pt x="477" y="973" on="0"/>
        <pt x="496" y="960" on="1"/>
        <pt x="546" y="923" on="0"/>
        <pt x="617" y="778" on="0"/>
        <pt x="617" y="676" on="1"/>
        <pt x="617" y="347" on="0"/>
        <pt x="360" y="347" on="1"/>
        <pt x="290" y="347" on="0"/>
        <pt x="237" y="379" on="1"/>
        <pt x="218" y="364" on="0"/>
        <pt x="189" y="303" on="0"/>
        <pt x="189" y="265" on="1"/>
        <pt x="189" y="226" on="0"/>
        <pt x="241" y="181" on="0"/>
        <pt x="291" y="181" on="1"/>
        <pt x="403" y="181" on="1"/>
        <pt x="540" y="181" on="0"/>
        <pt x="661" y="78" on="0"/>
        <pt x="661" y="-26" on="1"/>
        <pt x="661" y="-103" on="0"/>
        <pt x="606" y="-214" on="0"/>
        <pt x="509" y="-273" on="0"/>
        <pt x="400" y="-300" on="0"/>
      </contour>
    </TTGlyph>
    <TTGlyph name="gbreve" xMin="68" yMin="-300" xMax="661" yMax="1627">
      <component glyphName="breve" x="-246" y="149" flags="0x1004"/>
      <component glyphName="g" x="0" y="0" flags="0x1204"/>
    </TTGlyph>
    <TTGlyph name="gcircumflex" xMin="68" yMin="-300" xMax="661" yMax="1746">
      <component glyphName="circumflex" x="212" y="211" flags="0x1004"/>
      <component glyphName="g" x="0" y="0" flags="0x1204"/>
    </TTGlyph>
    <TTGlyph name="gcommaaccent" xMin="68" yMin="-300" xMax="661" yMax="1873">
      <component glyphName="g" x="0" y="0" flags="0x1004"/>
      <component glyphName="comma" x="475" y="1570" scale="-1.0" flags="0x1004"/>
    </TTGlyph>
    <TTGlyph name="gdotaccent" xMin="68" yMin="-300" xMax="661" yMax="1657">
      <component glyphName="dotaccent" x="264" y="1374" flags="0x1004"/>
      <component glyphName="g" x="0" y="0" flags="0x1204"/>
    </TTGlyph>
    <TTGlyph name="germandbls" xMin="101" yMin="0" xMax="769" yMax="1438">
      <contour>
        <pt x="200" y="0" on="1"/>
        <pt x="139" y="0" on="1"/>
        <pt x="129" y="0" on="0"/>
        <pt x="115" y="4" on="0"/>
        <pt x="101" y="24" on="0"/>
        <pt x="101" y="42" on="1"/>
        <pt x="101" y="1022" on="1"/>
        <pt x="101" y="1237" on="0"/>
        <pt x="272" y="1438" on="0"/>
        <pt x="438" y="1438" on="1"/>
        <pt x="568" y="1438" on="0"/>
        <pt x="733" y="1257" on="0"/>
        <pt x="733" y="1092" on="1"/>
        <pt x="733" y="983" on="0"/>
        <pt x="668" y="844" on="0"/>
        <pt x="582" y="810" on="1"/>
        <pt x="573" y="806" on="0"/>
        <pt x="573" y="793" on="0"/>
        <pt x="583" y="789" on="1"/>
        <pt x="678" y="756" on="0"/>
        <pt x="769" y="553" on="0"/>
        <pt x="769" y="431" on="1"/>
        <pt x="769" y="199" on="0"/>
        <pt x="582" y="0" on="0"/>
        <pt x="390" y="0" on="1"/>
        <pt x="390" y="123" on="1"/>
        <pt x="512" y="123" on="0"/>
        <pt x="625" y="272" on="0"/>
        <pt x="625" y="423" on="1"/>
        <pt x="625" y="576" on="0"/>
        <pt x="505" y="733" on="0"/>
        <pt x="392" y="733" on="1"/>
        <pt x="381" y="733" on="0"/>
        <pt x="369" y="770" on="0"/>
        <pt x="369" y="794" on="1"/>
        <pt x="369" y="853" on="0"/>
        <pt x="392" y="853" on="1"/>
        <pt x="500" y="853" on="0"/>
        <pt x="595" y="942" on="0"/>
        <pt x="595" y="1198" on="0"/>
        <pt x="515" y="1311" on="0"/>
        <pt x="427" y="1311" on="1"/>
        <pt x="337" y="1311" on="0"/>
        <pt x="237" y="1152" on="0"/>
        <pt x="237" y="1020" on="1"/>
        <pt x="237" y="43" on="1"/>
        <pt x="237" y="0" on="0"/>
      </contour>
    </TTGlyph>
    <TTGlyph name="grave" xMin="354" yMin="1168" xMax="485" yMax="1609">
      <contour>
        <pt x="440" y="1168" on="1"/>
        <pt x="427" y="1168" on="0"/>
        <pt x="420" y="1207" on="1"/>
        <pt x="358" y="1544" on="1"/>
        <pt x="354" y="1568" on="0"/>
        <pt x="354" y="1581" on="1"/>
        <pt x="354" y="1609" on="0"/>
        <pt x="364" y="1609" on="1"/>
        <pt x="438" y="1609" on="1"/>
        <pt x="449" y="1609" on="0"/>
        <pt x="460" y="1586" on="0"/>
        <pt x="463" y="1554" on="1"/>
        <pt x="484" y="1235" on="1"/>
        <pt x="485" y="1221" on="0"/>
        <pt x="485" y="1200" on="1"/>
        <pt x="485" y="1168" on="0"/>
        <pt x="470" y="1168" on="1"/>
      </contour>
    </TTGlyph>
    <TTGlyph name="greater" xMin="129" yMin="132" xMax="510" yMax="1131">
      <contour>
        <pt x="156" y="132" on="1"/>
        <pt x="144" y="132" on="0"/>
        <pt x="129" y="156" on="0"/>
        <pt x="129" y="175" on="1"/>
        <pt x="129" y="218" on="1"/>
        <pt x="129" y="240" on="0"/>
        <pt x="142" y="274" on="0"/>
        <pt x="153" y="289" on="0"/>
        <pt x="170" y="310" on="1"/>
        <pt x="399" y="624" on="1"/>
        <pt x="405" y="632" on="0"/>
        <pt x="405" y="650" on="0"/>
        <pt x="398" y="657" on="1"/>
        <pt x="170" y="952" on="1"/>
        <pt x="168" y="954" on="0"/>
        <pt x="156" y="967" on="0"/>
        <pt x="153" y="971" on="0"/>
        <pt x="144" y="982" on="0"/>
        <pt x="141" y="987" on="0"/>
        <pt x="135" y="998" on="0"/>
        <pt x="133" y="1006" on="0"/>
        <pt x="130" y="1018" on="0"/>
        <pt x="129" y="1031" on="0"/>
        <pt x="129" y="1038" on="1"/>
        <pt x="129" y="1091" on="1"/>
        <pt x="129" y="1108" on="0"/>
        <pt x="144" y="1131" on="0"/>
        <pt x="155" y="1131" on="1"/>
        <pt x="161" y="1131" on="0"/>
        <pt x="177" y="1117" on="1"/>
        <pt x="464" y="757" on="1"/>
        <pt x="483" y="734" on="0"/>
        <pt x="498" y="713" on="0"/>
        <pt x="510" y="678" on="0"/>
        <pt x="510" y="657" on="1"/>
        <pt x="510" y="622" on="1"/>
        <pt x="510" y="615" on="0"/>
        <pt x="509" y="602" on="0"/>
        <pt x="506" y="590" on="0"/>
        <pt x="504" y="581" on="0"/>
        <pt x="496" y="568" on="0"/>
        <pt x="494" y="563" on="0"/>
        <pt x="483" y="548" on="0"/>
        <pt x="479" y="544" on="0"/>
        <pt x="465" y="526" on="0"/>
        <pt x="463" y="523" on="1"/>
        <pt x="178" y="143" on="1"/>
        <pt x="167" y="132" on="0"/>
      </contour>
    </TTGlyph>
    <TTGlyph name="greaterequal" xMin="218" yMin="99" xMax="612" yMax="1131">
      <contour>
        <pt x="256" y="332" on="1"/>
        <pt x="244" y="332" on="0"/>
        <pt x="230" y="354" on="0"/>
        <pt x="230" y="372" on="1"/>
        <pt x="230" y="425" on="1"/>
        <pt x="230" y="434" on="0"/>
        <pt x="231" y="450" on="0"/>
        <pt x="237" y="464" on="0"/>
        <pt x="240" y="473" on="0"/>
        <pt x="250" y="486" on="0"/>
        <pt x="254" y="492" on="0"/>
        <pt x="268" y="508" on="0"/>
        <pt x="271" y="511" on="1"/>
        <pt x="499" y="706" on="1"/>
        <pt x="506" y="713" on="0"/>
        <pt x="506" y="731" on="0"/>
        <pt x="499" y="739" on="1"/>
        <pt x="270" y="953" on="1"/>
        <pt x="269" y="955" on="0"/>
        <pt x="258" y="968" on="0"/>
        <pt x="255" y="971" on="0"/>
        <pt x="246" y="983" on="0"/>
        <pt x="244" y="987" on="0"/>
        <pt x="238" y="998" on="0"/>
        <pt x="236" y="1005" on="0"/>
        <pt x="232" y="1016" on="0"/>
        <pt x="231" y="1026" on="0"/>
        <pt x="230" y="1038" on="0"/>
        <pt x="230" y="1045" on="1"/>
        <pt x="230" y="1088" on="1"/>
        <pt x="230" y="1131" on="0"/>
        <pt x="256" y="1131" on="1"/>
        <pt x="265" y="1131" on="0"/>
        <pt x="278" y="1120" on="1"/>
        <pt x="563" y="840" on="1"/>
        <pt x="599" y="796" on="0"/>
        <pt x="605" y="779" on="1"/>
        <pt x="611" y="762" on="0"/>
        <pt x="611" y="741" on="1"/>
        <pt x="611" y="706" on="1"/>
        <pt x="611" y="685" on="0"/>
        <pt x="599" y="651" on="0"/>
        <pt x="583" y="629" on="0"/>
        <pt x="564" y="606" on="1"/>
        <pt x="278" y="346" on="1"/>
        <pt x="262" y="332" on="0"/>
      </contour>
      <contour>
        <pt x="580" y="99" on="1"/>
        <pt x="251" y="99" on="1"/>
        <pt x="218" y="99" on="0"/>
        <pt x="218" y="136" on="1"/>
        <pt x="218" y="160" on="1"/>
        <pt x="218" y="196" on="0"/>
        <pt x="251" y="196" on="1"/>
        <pt x="580" y="196" on="1"/>
        <pt x="612" y="196" on="0"/>
        <pt x="612" y="159" on="1"/>
        <pt x="612" y="135" on="1"/>
        <pt x="612" y="99" on="0"/>
      </contour>
    </TTGlyph>
    <TTGlyph name="guillemotleft" xMin="77" yMin="225" xMax="711" yMax="1063">
      <contour>
        <pt x="696" y="225" on="1"/>
        <pt x="695" y="225" on="0"/>
        <pt x="668" y="252" on="0"/>
        <pt x="630" y="292" on="0"/>
        <pt x="592" y="330" on="0"/>
        <pt x="578" y="345" on="1"/>
        <pt x="563" y="360" on="1"/>
        <pt x="401" y="542" on="0"/>
        <pt x="401" y="558" on="1"/>
        <pt x="387" y="571" on="0"/>
        <pt x="387" y="664" on="1"/>
        <pt x="387" y="735" on="0"/>
        <pt x="397" y="745" on="1"/>
        <pt x="397" y="753" on="0"/>
        <pt x="508" y="872" on="0"/>
        <pt x="536" y="900" on="1"/>
        <pt x="575" y="941" on="1"/>
        <pt x="614" y="982" on="0"/>
        <pt x="652" y="1022" on="1"/>
        <pt x="691" y="1062" on="1"/>
        <pt x="691" y="1062" on="0"/>
        <pt x="692" y="1062" on="1"/>
        <pt x="694" y="1063" on="1"/>
        <pt x="702" y="1063" on="0"/>
        <pt x="705" y="1046" on="1"/>
        <pt x="711" y="1046" on="0"/>
        <pt x="711" y="961" on="1"/>
        <pt x="711" y="917" on="0"/>
        <pt x="700" y="903" on="1"/>
        <pt x="700" y="895" on="0"/>
        <pt x="674" y="861" on="0"/>
        <pt x="644" y="831" on="0"/>
        <pt x="612" y="800" on="0"/>
        <pt x="610" y="798" on="1"/>
        <pt x="608" y="797" on="0"/>
        <pt x="476" y="652" on="0"/>
        <pt x="476" y="650" on="1"/>
        <pt x="474" y="642" on="0"/>
        <pt x="477" y="636" on="1"/>
        <pt x="477" y="634" on="0"/>
        <pt x="554" y="559" on="0"/>
        <pt x="556" y="558" on="1"/>
        <pt x="557" y="557" on="0"/>
        <pt x="605" y="503" on="0"/>
        <pt x="655" y="445" on="0"/>
        <pt x="698" y="388" on="0"/>
        <pt x="698" y="381" on="1"/>
        <pt x="711" y="369" on="0"/>
        <pt x="711" y="276" on="1"/>
        <pt x="711" y="266" on="0"/>
        <pt x="706" y="240" on="0"/>
        <pt x="704" y="240" on="1"/>
        <pt x="703" y="225" on="0"/>
        <pt x="697" y="225" on="1"/>
      </contour>
      <contour>
        <pt x="387" y="226" on="1"/>
        <pt x="253" y="360" on="1"/>
        <pt x="91" y="542" on="0"/>
        <pt x="91" y="558" on="1"/>
        <pt x="77" y="572" on="0"/>
        <pt x="77" y="664" on="1"/>
        <pt x="77" y="735" on="0"/>
        <pt x="88" y="745" on="1"/>
        <pt x="88" y="753" on="0"/>
        <pt x="199" y="872" on="0"/>
        <pt x="227" y="900" on="1"/>
        <pt x="228" y="902" on="0"/>
        <pt x="380" y="1062" on="0"/>
        <pt x="381" y="1062" on="1"/>
        <pt x="382" y="1062" on="1"/>
        <pt x="384" y="1063" on="1"/>
        <pt x="393" y="1063" on="0"/>
        <pt x="396" y="1046" on="1"/>
        <pt x="402" y="1046" on="0"/>
        <pt x="402" y="961" on="1"/>
        <pt x="402" y="920" on="0"/>
        <pt x="391" y="903" on="1"/>
        <pt x="391" y="897" on="0"/>
        <pt x="375" y="873" on="0"/>
        <pt x="349" y="845" on="0"/>
        <pt x="326" y="822" on="0"/>
        <pt x="301" y="799" on="0"/>
        <pt x="300" y="798" on="1"/>
        <pt x="296" y="794" on="0"/>
        <pt x="167" y="652" on="0"/>
        <pt x="167" y="650" on="1"/>
        <pt x="165" y="643" on="0"/>
        <pt x="167" y="636" on="1"/>
        <pt x="167" y="634" on="0"/>
        <pt x="245" y="559" on="0"/>
        <pt x="247" y="558" on="1"/>
        <pt x="248" y="556" on="0"/>
        <pt x="321" y="474" on="0"/>
        <pt x="388" y="390" on="0"/>
        <pt x="388" y="381" on="1"/>
        <pt x="402" y="368" on="0"/>
        <pt x="402" y="276" on="1"/>
        <pt x="402" y="266" on="0"/>
        <pt x="397" y="240" on="0"/>
        <pt x="395" y="240" on="1"/>
        <pt x="394" y="225" on="0"/>
        <pt x="389" y="225" on="1"/>
        <pt x="388" y="225" on="0"/>
        <pt x="388" y="226" on="0"/>
      </contour>
    </TTGlyph>
    <TTGlyph name="guillemotright" xMin="77" yMin="223" xMax="711" yMax="1067">
      <contour>
        <pt x="398" y="223" on="1"/>
        <pt x="387" y="223" on="0"/>
        <pt x="387" y="261" on="1"/>
        <pt x="387" y="341" on="1"/>
        <pt x="387" y="396" on="0"/>
        <pt x="411" y="423" on="1"/>
        <pt x="619" y="620" on="1"/>
        <pt x="623" y="624" on="0"/>
        <pt x="623" y="644" on="0"/>
        <pt x="620" y="648" on="1"/>
        <pt x="410" y="860" on="1"/>
        <pt x="387" y="887" on="0"/>
        <pt x="387" y="945" on="1"/>
        <pt x="387" y="1025" on="1"/>
        <pt x="387" y="1067" on="0"/>
        <pt x="399" y="1067" on="1"/>
        <pt x="404" y="1067" on="0"/>
        <pt x="410" y="1059" on="1"/>
        <pt x="687" y="772" on="1"/>
        <pt x="711" y="746" on="0"/>
        <pt x="711" y="687" on="1"/>
        <pt x="711" y="584" on="1"/>
        <pt x="711" y="524" on="0"/>
        <pt x="687" y="501" on="1"/>
        <pt x="410" y="231" on="1"/>
        <pt x="400" y="223" on="0"/>
      </contour>
      <contour>
        <pt x="89" y="223" on="1"/>
        <pt x="77" y="223" on="0"/>
        <pt x="77" y="261" on="1"/>
        <pt x="77" y="341" on="1"/>
        <pt x="77" y="395" on="0"/>
        <pt x="101" y="423" on="1"/>
        <pt x="310" y="620" on="1"/>
        <pt x="314" y="624" on="0"/>
        <pt x="314" y="644" on="0"/>
        <pt x="310" y="648" on="1"/>
        <pt x="101" y="860" on="1"/>
        <pt x="77" y="887" on="0"/>
        <pt x="77" y="945" on="1"/>
        <pt x="77" y="1025" on="1"/>
        <pt x="77" y="1067" on="0"/>
        <pt x="90" y="1067" on="1"/>
        <pt x="95" y="1067" on="0"/>
        <pt x="101" y="1059" on="1"/>
        <pt x="377" y="772" on="1"/>
        <pt x="401" y="746" on="0"/>
        <pt x="401" y="687" on="1"/>
        <pt x="402" y="584" on="1"/>
        <pt x="402" y="525" on="0"/>
        <pt x="377" y="501" on="1"/>
        <pt x="100" y="231" on="1"/>
        <pt x="90" y="223" on="0"/>
      </contour>
    </TTGlyph>
    <TTGlyph name="guilsinglleft" xMin="77" yMin="225" xMax="402" yMax="1063">
      <contour>
        <pt x="387" y="226" on="1"/>
        <pt x="387" y="226" on="0"/>
        <pt x="253" y="360" on="1"/>
        <pt x="91" y="542" on="0"/>
        <pt x="91" y="558" on="1"/>
        <pt x="77" y="572" on="0"/>
        <pt x="77" y="664" on="1"/>
        <pt x="77" y="735" on="0"/>
        <pt x="88" y="745" on="1"/>
        <pt x="88" y="753" on="0"/>
        <pt x="199" y="872" on="0"/>
        <pt x="227" y="900" on="1"/>
        <pt x="228" y="902" on="0"/>
        <pt x="380" y="1062" on="0"/>
        <pt x="381" y="1062" on="1"/>
        <pt x="382" y="1062" on="1"/>
        <pt x="384" y="1063" on="1"/>
        <pt x="393" y="1063" on="0"/>
        <pt x="396" y="1046" on="1"/>
        <pt x="402" y="1046" on="0"/>
        <pt x="402" y="961" on="1"/>
        <pt x="402" y="920" on="0"/>
        <pt x="391" y="903" on="1"/>
        <pt x="391" y="897" on="0"/>
        <pt x="375" y="873" on="0"/>
        <pt x="349" y="845" on="0"/>
        <pt x="326" y="822" on="0"/>
        <pt x="301" y="799" on="0"/>
        <pt x="300" y="798" on="1"/>
        <pt x="296" y="794" on="0"/>
        <pt x="167" y="652" on="0"/>
        <pt x="167" y="650" on="1"/>
        <pt x="165" y="643" on="0"/>
        <pt x="167" y="636" on="1"/>
        <pt x="167" y="634" on="0"/>
        <pt x="245" y="559" on="0"/>
        <pt x="247" y="558" on="1"/>
        <pt x="248" y="556" on="0"/>
        <pt x="321" y="474" on="0"/>
        <pt x="388" y="390" on="0"/>
        <pt x="388" y="381" on="1"/>
        <pt x="402" y="368" on="0"/>
        <pt x="402" y="276" on="1"/>
        <pt x="402" y="266" on="0"/>
        <pt x="397" y="240" on="0"/>
        <pt x="395" y="240" on="1"/>
        <pt x="394" y="225" on="0"/>
        <pt x="389" y="225" on="1"/>
        <pt x="388" y="225" on="0"/>
        <pt x="388" y="226" on="0"/>
      </contour>
    </TTGlyph>
    <TTGlyph name="guilsinglright" xMin="77" yMin="223" xMax="402" yMax="1067">
      <contour>
        <pt x="89" y="223" on="1"/>
        <pt x="77" y="223" on="0"/>
        <pt x="77" y="261" on="1"/>
        <pt x="77" y="341" on="1"/>
        <pt x="77" y="395" on="0"/>
        <pt x="101" y="423" on="1"/>
        <pt x="310" y="620" on="1"/>
        <pt x="314" y="624" on="0"/>
        <pt x="314" y="644" on="0"/>
        <pt x="310" y="648" on="1"/>
        <pt x="101" y="860" on="1"/>
        <pt x="77" y="887" on="0"/>
        <pt x="77" y="945" on="1"/>
        <pt x="77" y="1025" on="1"/>
        <pt x="77" y="1067" on="0"/>
        <pt x="90" y="1067" on="1"/>
        <pt x="95" y="1067" on="0"/>
        <pt x="101" y="1059" on="1"/>
        <pt x="377" y="772" on="1"/>
        <pt x="401" y="747" on="0"/>
        <pt x="401" y="687" on="1"/>
        <pt x="402" y="584" on="1"/>
        <pt x="402" y="525" on="0"/>
        <pt x="377" y="501" on="1"/>
        <pt x="100" y="231" on="1"/>
        <pt x="92" y="223" on="0"/>
      </contour>
    </TTGlyph>
</ttFont>
